<?xml version="1.0" encoding="utf-8"?>
<!-- Generator: Adobe Illustrator 15.0.0, SVG Export Plug-In . SVG Version: 6.00 Build 0)  -->
<!DOCTYPE svg PUBLIC "-//W3C//DTD SVG 1.1//EN" "http://www.w3.org/Graphics/SVG/1.1/DTD/svg11.dtd">
<svg version="1.1" xmlns="http://www.w3.org/2000/svg" xmlns:xlink="http://www.w3.org/1999/xlink" x="0px" y="0px" width="225px"
	 height="341px" viewBox="0 0 225 341" enable-background="new 0 0 225 341" xml:space="preserve">
<g id="Calque_2">
	<polygon fill-rule="evenodd" clip-rule="evenodd" fill="#898989" points="109,255.5 42.5,257 40.5,152.5 74.5,153 109.5,145.5 
		134,139 147.625,130.689 160,106.5 162.5,93 159.5,76.5 148,60 127,51.5 95.5,59 86.592,72.692 80.5,88 79,111.5 4,107.612 
		21.5,61 30.5,49 63.5,22.5 83.5,12 119.5,6.5 155,11.5 183.5,26 204.5,41 215,64 220,83.5 219,101.5 217,118 212,135 193.5,164 
		176.5,180 158,191.5 127.889,194.152 113.5,199.5 107.544,204.476 110,206 111,250.5 	"/>
	<rect x="41" y="269.5" fill-rule="evenodd" clip-rule="evenodd" fill="#898989" width="73.5" height="64"/>
</g>
<g id="Calque_1">
	<g>
		<g>
			<path fill-rule="evenodd" clip-rule="evenodd" d="M50.762,58.725c-2.545,4.338-7.497,6.269-14.271,6.376
				c-0.028-1.591-0.505-2.733-0.304-4.554c1.898-0.835,3.695-1.771,6.68-1.519C44.693,56.875,48.434,56.479,50.762,58.725z"/>
			<path fill-rule="evenodd" clip-rule="evenodd" d="M55.62,66.012c-4.72,1.491-7.714,5.509-13.968,4.555
				c-0.366-1.051-0.556-2.279-0.607-3.644c1.004-1.461,3.847-1.191,6.681-2.125C50.701,63.816,56.031,59.541,55.62,66.012z
				 M47.422,69.352c0.55-0.765,1.878-0.753,2.429-1.518C48.712,67.822,47.074,68.886,47.422,69.352z"/>
			<path fill-rule="evenodd" clip-rule="evenodd" d="M57.688,27.773C54.383,30.795,35.66,45.747,33.454,47.49
				c-7.869,6.214-11.519,19.029-16.701,30.365c-1.96,4.288-5.916,11.923-5.466,17.004c0.112-0.517-0.237-0.573-0.607-0.607
				c0.583,2.629-1.821,6.17-0.911,9.109c3.058,4,10.779,1.528,17.004,2.429c3.302-3.12,6.239-5.002,6.984-10.324
				c7.696-7.109,14.653-16.652,23.988-22.774c3.301-2.165,7.295-3.196,10.932-5.466c3.409-2.128,7.126-3.716,10.627-5.769
				c3.607-2.116,7.061-4.34,10.931-5.466c4.198-1.221,8.895-0.987,12.45-3.947c-2.664-3.026-8.75-5.078-13.968-6.68
				c-4.935-1.516-11.053-2.379-14.879-2.733c-3.226-0.299-6.026,1.076-8.806,2.125c-1.181-1.045-3.394-1.061-4.251-2.429
				c0.206-1.92,0.43-3.821,2.125-4.251c0.968-6.32,4.306-10.269,6.68-15.182c-1.113,0-9.94,3.507-11.174,4.395L57.688,27.773z
				 M57.641,24.161c5.662-2.822,19.226-10.711,25.915-12.502c2.528-0.677,5.437-0.616,8.199-1.214
				c5.165-1.12,10.353-2.96,16.093-3.948c3.177-0.546,6.938-1.362,9.717-1.519c2.005-0.112,3.959,0.846,6.073,0.911
				c8.881,0.273,20.536,1.43,29.454,2.733c2.816,0.411,5.7,3.075,8.502,4.251c2.733,1.146,5.37,1.551,7.895,2.732
				c11.396,5.334,21.919,12.221,30.668,21.255c3.623,3.741,8.678,6.233,10.931,9.717c1.344,2.077,1.441,4.432,2.429,6.984
				c0.869,2.243,2.408,4.283,3.341,6.681c0.935,2.404,1.289,5.03,2.125,7.591c0.634,1.938,1.899,3.614,2.429,5.466
				c2.056,7.167,2.056,15.294,1.519,23.077c-0.22,3.182-1.443,6.233-1.822,9.413c-0.188,1.581,0.222,3.195,0,4.555
				c-0.509,3.118-2.642,6.236-3.341,9.413c-1.319,6.004-2.165,11.788-3.947,17.308c-2.16,6.692-7.311,13.57-11.235,18.826
				c-3.421,4.583-5.591,7.716-10.021,12.146c-7.648,7.648-14.773,15.239-25.81,20.041c-6.017,2.618-14.216,3.938-21.255,6.377
				c-2.24,0.776-4.421,2.202-6.376,2.733c-4.992,1.355-9.776,1.586-14.271,2.732c-4.26,1.087-8.255,2.493-12.45,4.251
				c-0.945,18.408,1.201,37.203,0,55.872c-6.581-0.268-12.358-3.556-19.434-3.644c-16.503-0.204-33.395,1.818-50.102,2.43
				c-0.736-0.984-1.556-1.886-2.732-2.43c1.023-8.733-0.983-17.735-1.215-27.024c-0.257-10.313,2.691-20.719,2.125-31.276
				c-0.321-6-1.28-11.969-1.518-17.915c-0.256-6.404,0.796-12.887,0.304-19.13c-0.325-4.128-2.785-7.591-0.911-11.235
				c7.676-1.773,15.373,0.548,23.381,0.607c26.817,0.197,55.708-5.066,74.09-16.397c1.866-1.15,3.57-3.019,5.465-4.555
				c1.962-1.589,4.343-2.761,5.77-4.251c2.863-2.993,6.093-8.843,7.895-13.36c2.172-5.446,4.925-11.199,5.162-17.308
				c0.569-14.64-7.578-22.254-13.057-31.58c-5.698-1.501-9.996-5.947-15.486-7.288c-3.718-0.908-9.492-1.534-13.968-0.911
				c-2.964,0.413-5.643,0.664-8.376,1.555c-3.219,1.048-3.854,2.167-7.11,2.696c-6.821,1.107-12.916,8.08-16.093,13.664
				c-6.526,11.471-4.847,24.72-5.162,41.6c-2.529-0.034-4.591-1.644-6.984-1.822c-3.693-0.274-7.575,0.591-11.235,0.607
				c-5.893,0.027-11.444-1.327-17.308-1.822c-6.999-0.591-14.071-0.35-20.952-1.215c-3.822-0.48-7.468-0.985-11.235-0.911
				c-3.299,0.065-6.876,0.802-9.717-1.518c0.639-13.913,5.486-26.721,10.628-37.653c0.669-1.422,0.873-2.971,1.518-4.251
				c0.805-1.596,2.297-2.736,3.037-4.251c0.794-1.629,1.052-3.415,1.822-4.858c4.764-8.941,26.627-24.934,34.559-30.952
				L57.641,24.161z M86.592,15.303c0.165-0.189-2.19,0.733-3.947,0c-0.635,1.162-2.078,3.393-2.733,5.466
				c-6.263,3.352-11.981,7.25-11.539,17.308c13.208,0.051,22.363,4.156,32.794,6.984c7.055,7.279,21.484,5.329,34.616,6.376
				c13.916-3.189,20.978-20.042,15.486-36.134c-3.082-3.906-12.893-4.218-17.612-2.125c0.464,3.747-0.842,6.913-3.644,8.806
				c-2.533,1.453-6.132-1.356-8.502,0.607c3.067,1.983,6.116,3.507,6.984,6.984c1.418,5.683-4.852,14.234-10.324,14.575
				c-6.342,0.396-12.003-5.602-18.219-5.466c-2.967,2.84-10.334,2.676-12.45-0.911c-0.21-2.624-0.421-5.248-0.304-8.199
				c1.956-4.32,7.931-4.62,12.45-6.376c3.011-4.953,7.179-10.134,12.146-12.146C102.577,9.269,94.447,14.781,86.592,15.303z
				 M118.476,12.267c-4.494,2.187-8.623,4.738-11.843,8.198c-0.124,2.002-1.33,2.921-1.518,4.858
				c-2.646,1.808-4.901,4.006-8.502,4.858c-1.146-0.372-2.019-1.018-3.644-0.911c-1.272,2.324-0.51,5.874,2.126,6.073
				c0.766-3.729,6.004-3.011,8.806-4.858c1.109-0.732,1.329-2.179,2.125-3.036c4.591-4.941,10.007-10.505,19.433-10.324
				c1.559,0.029,2.74,1.433,4.555-0.304C128.025,12.973,122.365,13.593,118.476,12.267z M213.517,117.329
				c0.456-1.506,1.569-2.874,1.822-4.251c0.502-2.726-0.362-6.602,0.304-10.324c0.489-2.735,1.706-5.269,1.822-7.895
				c0.211-4.773,0.655-13.936-0.304-19.434c-0.348-1.999-2.051-5.551-2.125-5.77c-2.583-7.558-4.24-15.873-8.503-21.559
				c-5.753-7.675-16.188-14.02-24.595-19.434c-3.201-2.061-5.866-4.922-8.502-6.377c-4.589-2.532-10.767-3.985-15.79-5.465
				c-0.074,15.985-3.021,31.272-13.361,37.956c1.455,1.391,4.556,0.158,6.681,0.303c8.656-4.805,10.277-16.646,14.879-25.506
				c2.4-3.23,8.93-3.087,13.057-1.214c3.586,1.627,6.736,6.693,9.717,8.806c1.741,1.234,3.826,1.544,5.162,2.733
				c1.034,0.92,1.712,2.708,3.037,4.251c1.285,1.497,3.191,2.598,4.251,3.948c3.111,3.962,5.074,10.866,8.502,16.397
				c0.888,1.432,2.539,2.574,3.34,3.947c1.864,3.193,2.928,11.149,2.733,17.004c-0.148,4.424-0.421,9.675-1.214,13.36
				c-0.337,1.565-1.318,2.696-1.519,4.251c-0.801,6.212-0.333,12.66-1.214,19.13C213.43,121.472,212.969,119.142,213.517,117.329z
				 M116.957,25.323c-1.762-0.03-2.634,1.992-4.858,1.215c-0.049,1.423-0.063,1.727-0.304,2.429c4.79,0.878,7.371,3.964,7.287,9.716
				C124.869,36.592,122.547,25.418,116.957,25.323z M94.184,206.905c-1.242-0.378-0.981-2.258-2.429-2.43
				c-3.55,1.888-5.539,4.797-9.717,5.162c-3.341,0.292-6.185-2.245-9.109-2.125c-1.492,0.061-2.863,1.484-4.251,1.822
				c-2.866,0.697-6.392,0.56-8.806-0.303c-2.388-0.854-4.338-4.28-7.591-2.429c-0.344,2.672,2.369,2.287,2.125,4.858
				c-3.212,0.432-6.829,0.458-9.11,1.822c0.306,5.518-1.615,11.028-0.911,17.915c3.854-0.008,6.627,1.065,10.324,1.214
				c6.501-1.495,3.471-12.521,10.932-13.057c2.536,2.541,0.386,7.186,2.125,10.021c1.981,3.227,7.038,2.321,10.02,0.607
				c-1.929-4.655,1.881-8.012,2.733-12.45c1.309,0.614,3.545,0.301,4.555,1.214c0.568,2.971,0.788,6.15,0.304,9.413
				c1.253,0.568,1.779,1.865,2.732,2.733c5.574-2.767,14.883,1.028,13.057,7.288c-5.862-1.655-9.814-3.49-16.701-4.555
				c-4.625-0.715-9.377,2.683-13.968,1.822c-2.623-0.492-4.494-3.166-6.68-4.251c-3.936,5.455-11.626,7.034-19.737,4.555
				c0.219,4.637,1.591,10.206,1.519,16.701c18.621,2.892,44.237-3.025,62.248,1.214c-0.565-4.115,1.673-8.202,1.518-12.753
				c-0.08-2.35-0.988-4.719-1.214-7.288c-0.227-2.564,0.23-5.356,0-7.895c-0.145-1.596-0.822-3.272-0.911-4.859
				c-0.319-5.691,1.501-11.299,0.304-16.397c-0.469-1.996-1.684-3.324-1.822-5.465c1.988-0.368,3.038-1.539,4.858-1.822
				c2.965-0.462,6.087,0.661,9.109,0c2.837-0.621,5.348-2.43,8.199-3.037c1.899-0.404,3.854-0.143,5.769-0.607
				c5.114-1.24,10.742-3.581,16.397-5.162c5.843-1.634,12.527-3.027,17.004-5.465c1.323-0.721,2.303-2.048,3.644-2.733
				c1.572-0.803,3.71-0.998,5.162-2.125c2.823-2.192,5.75-5.872,8.502-9.11c5.586-6.569,10.275-9.597,14.575-17.308
				c0.913-1.638,1.411-3.302,2.429-4.858c2.302-3.521,7.55-9.41,8.805-13.968c0.379-1.376-0.006-3.007,0.304-4.555
				c0.294-1.463,1.811-3.1,0.607-4.555c-1.848,1.088-2.342,3.528-2.733,6.073c-2.743,4.139-5.007,8.758-6.68,13.968
				c-1.394,1.673-3.326,2.534-5.162,4.555c-1.838,2.024-2.669,5.191-4.555,7.288c-3.465,3.851-13.161,9.411-18.522,4.251
				c-3.733-5.393-0.946-13.095,3.34-16.701c2.147-1.806,4.634-2.693,6.68-5.162c4.875-5.881,9.471-14.915,12.146-24.292
				c0.938-3.291,2.255-6.648,2.733-9.414c2.612-15.112,0.846-31.488-5.465-44.332c-3.142-2.437-5.51-7.229-9.109-8.199
				c-2.687,7.992,4.936,11.826,7.59,17.611c0.775,1.69,0.506,3.429,0.912,5.163c0.424,1.815,1.491,3.26,1.822,4.858
				c1.134,5.47,1.35,11.375,1.822,17.612c0.798,10.55-6.502,17.317-7.288,27.936c-1.489,0.839-2.044,2.612-3.644,3.34
				c-1.623,4.304-4.378,7.396-8.199,10.931c-2.125,1.966-4.51,4.656-6.376,5.162c-4.845,1.313-10.271-1.437-10.932-5.466
				c-0.433-2.641,1.188-4.715,0.911-7.288c-4.215,1.332-4.792,8.864-2.125,12.45c2.418,1.124,5.618,1.467,8.502,2.125
				c1.622,4.779-1.501,9.606,0.607,14.271c3.185,1.066,5.933,2.57,8.502,4.251c-1.222,1.207-1.904,2.955-3.644,3.644
				c-4.509-1.105-10.966-1.994-12.146-6.377c-0.938-3.481,1.087-6.124,1.519-9.717c-8.684-1.593-13.935-8.798-10.324-18.826
				c1.611-4.477,5.594-9.793,8.806-13.968c1.361-1.77,3.308-4.109,5.162-6.376c1.794-2.194,4.402-4.686,4.858-6.377
				c0.348-1.289-0.17-2.78,0-3.947c0.305-2.094,1.609-4.08,1.822-5.769c0.603-4.799,0.18-9.576-0.607-13.36
				c-1.445-6.954-6.817-11.861-7.591-18.523c-0.391-3.361,1.028-4.617,2.732-6.68c2.156-0.273,4.018-0.841,6.68-0.607
				c-0.491,2.11,1.448,1.791,1.822,3.037c2.962,5.162,5.962,9.451,8.502,15.79c0.864,2.155,2.133,4.745,2.429,6.68
				c2.307,15.076-3.506,27.984-8.502,36.134c-3.668,5.985-11.045,10.781-11.538,18.522c6.637-2.879,12.573-8.718,16.701-15.182
				c1.533-2.401,1.137-5.882,3.037-9.109c4.068-6.911,6.035-14.358,5.161-23.381c-0.906-9.375-3.499-16.908-7.287-24.595
				c-3.855-3.534-6.418-8.359-6.377-15.79c1.3-2.445,4.072-3.418,6.681-4.555c0.099,1.269,0.249,1.042,2.125,0.911
				c9.036,4.797,14.185,14.962,17.309,26.721c0.416,1.567,0.416,3.549,0.911,5.162c0.557,1.813,1.645,3.122,1.822,4.555
				c0.241,1.951-0.045,4.781-0.303,7.287c-0.349,3.39-0.419,7.256-0.911,10.324c-0.566,3.53-2.14,6.865-2.733,10.021
				c-0.307,1.631,0.017,3.115-0.304,4.555c-1.97,8.849-6.011,15.507-11.539,22.167c-4.544,5.477-6.863,11.63-11.841,13.664
				c-0.953,5.298,2.275,5.697,5.466,3.947c1.637-2.286,4.659-3.753,6.68-6.376c0.886-1.151,1.239-2.813,2.125-3.947
				c1.121-1.434,2.895-2.222,3.948-3.644c4.015-5.422,6.876-14.446,8.806-22.167c0.704-2.817,2.273-5.602,2.429-7.895
				c0.086-1.285-0.509-2.62-0.607-3.948c-0.323-4.355,1.222-8.031,1.822-11.842c0.974-6.189,1.409-13.314,0.911-17.308
				c-0.591-4.739-4.65-8.179-4.251-13.664c-3.802-8.547-9.713-14.984-15.182-21.863c-7.945-1.767-10.819-13.017-20.648-9.109
				c-3.568,5.61-5.072,14.859-9.717,20.648c-1.684,2.099-7.311,4.639-7.591,7.288c-0.205,1.932,3.234,5.76,4.858,8.199
				c1.944,2.919,3.862,5.425,4.858,7.895c0.68,1.684,0.648,3.79,1.215,5.466c0.673,1.991,1.878,3.459,2.125,4.858
				c0.307,1.742,0.011,4.045,0,6.073c-0.012,2.232,0.548,4.514,0,7.895c-0.618,3.806-3.846,9.022-6.073,13.664
				c-3.182,6.634-6.622,11.929-11.842,15.79c-1.294,0.957-2.88,1.434-4.251,2.429c-1.796,1.303-3.237,3.19-4.858,4.251
				c-11.24,7.361-28.332,11.403-43.726,14.272c-3.986,0.743-8.753,2.099-13.36,2.429c-11.763,0.843-23.507,0.057-36.134-0.607
				c-1.257,3.325-2.12,8.289-1.214,12.45c0.286,1.314,1.945,2.625,3.037,4.858c0.606,1.242,0.657,3.23,1.214,3.948
				c0.145,0.186,1.048,0.173,1.519,0.607c0.609,0.563-0.34,0.893,0.911,0.911c1.838-0.186,3.454-0.594,4.858-1.214
				c-0.637-5.245,0.078-8.78,4.858-10.324c0.876,1.141,2.883,1.807,3.34,3.644c0.292,1.176-0.575,2.744-0.304,3.947
				c0.542,2.41,2.594,3.319,3.947,4.858c5.098-0.874,7.348-4.595,6.376-11.539c1.895-0.131,3.028-2.727,4.555-2.429
				c1.637,0.318,3.588,5.666,3.037,8.806c-0.195,1.112-1.114,1.431-0.911,2.429c3.992,4.52,13.984,1.186,12.146-6.68
				c1.189-0.937,2.52-1.731,3.948-2.429c3.453,0.697,4.162,4.138,3.644,8.806c3.119,1.836,8.829,0.691,11.843-0.911
				c0.918-4.244,2.593-7.731,5.465-10.021c1.276,0.545,2.675,0.97,3.644,1.822c-0.298,3.439-0.158,5.172,0.911,7.591
				c4.442-0.002,10.031-5.474,13.36-0.911c-1.326,3.088-5.236,3.291-9.717,4.251c-2.127,0.456-5.034,2.451-5.769,0.303
				c0.569,0.067,2.012,0.783,2.429,0c-7.199-3.348-11.011,4.518-20.041,2.429c-1.864-0.431-2.902-1.781-5.465-2.429
				c-2.708,0.831-4.959,4.445-8.502,4.858c-3.522,0.412-7.4-0.943-10.021-3.036c-5.525-0.282-6.447,4.326-12.449,2.732
				c-1.994-1.404-2.442-4.87-4.858-4.858c-2.533,0.013-4.784,5.461-8.502,5.162c-2.963-0.579-5.371-1.714-8.199-2.429
				c0.058,10.728,1.058,18.83,1.215,29.15c0.641-1.074,1.654-2.007,4.555-1.518c1.252-2.594,3.137-4.555,2.429-9.109
				c1.372-0.349,2.587-0.854,4.251-0.911c1.434,2.817,2.846,5.655,3.947,8.806c6.202,0.736,9.347-1.584,8.502-7.895
				c1.346-0.577,2.985-0.862,4.251-1.519c1.636,2.414,3.136,4.961,3.644,8.502c5.241,2.155,11.331-0.181,9.109-6.983
				c2.315-1.207,3.968-3.125,7.288-1.822c1.422,3.079,2.357,5.928,2.733,9.413l-1.214,0.911L94.184,206.905z M79.912,65.405
				c-2.144,5.014-2.073,10.301-3.34,17.612c-1.441,8.316-3.137,17.595-1.518,25.203c0.81,0,1.62,0,2.429,0
				c0.743-15.708,0.969-37.048,11.539-44.94c0.013-0.418-0.143-0.667-0.304-0.911C85.029,62.446,82.512,65.242,79.912,65.405z
				 M169.185,65.708c4.882,8.678,8.17,20.411,7.895,33.705c-0.054,2.606-1.352,6.605-0.303,8.806
				c5.278-8.122,4.548-27.189-0.607-35.831c-0.969-1.624-2.883-2.939-3.947-4.555c-0.775-1.177-0.559-2.763-2.125-3.036
				c-0.304,0-0.607,0-0.911,0C169.185,65.101,169.185,65.405,169.185,65.708z M66.855,72.692c-2.918,2.766-0.835,8.984-0.304,12.146
				c0.785,4.676,1.08,10.036,3.644,11.842c1.641-8.348,2.025-18.154,3.34-26.114C70.709,69.512,69.196,72.264,66.855,72.692z
				 M56.835,78.766c-2.784,2.234-6.223,3.954-6.377,8.502c-0.16,4.739,2.745,10.52,6.073,12.45
				c1.608-5.781-0.304-15.081,2.125-20.041C58.185,79.237,57.473,79.038,56.835,78.766z M60.782,102.753
				c-0.188,2.349-1.155,3.492,0,5.77c1.643,0.737,4.398,0.217,5.162-0.911c0.228-3.658-0.885-7.171-2.125-11.539
				c-1.068-3.759-1.384-6.748-2.43-7.895C59.864,92.003,61.173,97.858,60.782,102.753z M43.474,100.628
				c0.71-0.1,1.255-0.365,1.822-0.607c-0.814-3.103,0.767-8.03-0.607-9.413C40.228,91.923,40.746,97.684,43.474,100.628z
				 M48.94,98.806c-1.497,2.167,0.776,5.379,0,8.806c1.791-0.272,3.096,1.217,4.555,0.304
				C52.202,104.653,51.828,100.473,48.94,98.806z M36.49,100.932c-0.459,2.273-1.925,3.54-2.732,5.466
				c1.451,1.246,4.925,0.356,6.68,0C40.077,104.625,40.245,98.513,36.49,100.932z M168.881,121.276
				c1.826-0.501,6.698-10.866,7.351-12.542C173.965,110.744,168.685,119.844,168.881,121.276z M164.023,126.742
				c1.554-0.977,2.689-2.372,3.644-3.948C165.816,123.475,164.64,124.828,164.023,126.742z"/>
			<path fill-rule="evenodd" clip-rule="evenodd" d="M116.957,268.545c-0.888,6.425,1.055,14.645,0.304,23.381
				c-0.565,6.573-1.554,18.635-0.911,25.81c0.378,4.222,3.984,16.564,0,19.13c-3.088,1.988-13.852,0.607-19.13,0.607
				c-19.386,0-39.326,0-58.301,0c3.171-13.148-0.139-33.834,0.911-49.495c0.191-2.853-0.559-5.79-0.304-8.198
				c0.141-1.327,0.979-2.706,1.214-3.948c0.458-2.417-0.07-4.311-0.304-6.68c4.454-0.263,8.271-1.732,12.753-1.822
				c5.344-0.107,10.474,2.007,15.486,1.822c3.72-0.137,7.335-2.194,10.931-2.125c1.687,0.032,3.05,1.359,4.858,1.518
				c2.496,0.22,6.278-0.976,9.413-1.214C102.089,266.705,110.386,265.662,116.957,268.545z M65.033,310.146
				c1.023-0.9,1.827-2.019,3.644-2.125c0.099,4.994,2.871,10.961,3.036,16.396c0.066,2.171-2.264,7.878,2.125,7.592
				c0.163-16.953,1.244-34.291,1.519-53.139c-1.329-0.734-1.936-3.842-4.251-4.555c-1.005-0.31-3.584,0.106-5.162,0
				c-6.79-0.455-14.275-4.507-18.219-0.911c-4.912,11.133-2.578,30.887-1.822,45.851c0.158,3.138-0.766,7.148-0.304,10.02
				c0.119,0.742-0.081,3.178,1.822,2.733c2.193-3.774,0.926-8.611,0.607-13.361c-0.794-11.838,2.672-24.992-1.215-33.401
				c4.55-5.415,13.926-4.126,22.773-5.162c5.491,1.944,4.842,14.409-3.644,10.932c-0.711-1.718-1.362-3.497-2.429-4.859
				c-2.63-0.445-6.042-0.558-7.895,0.607c0.616,2.184-1.062,3.593-1.518,5.77c-0.608,2.896,0.059,6.497-0.304,10.021
				c-0.867,8.428-1.662,18.5-0.607,26.113c0.144,1.038,0.289,2.788,1.518,3.341c2.5-0.47,1.519-4.073,1.519-6.073
				c0-9.758-0.624-17.86-0.911-26.722c5.16-1.122,15.714-4.563,17.612,1.519c-2.375,2.377-5.404,2.5-9.717,1.822
				c-0.665,0.751-1.049,1.784-2.429,1.822c0.586,8.976-0.746,19.709,1.519,27.632c1.619,0,3.239,0,4.858,0
				c0.394-5.463-0.656-10.382-1.822-13.361c0.251,0.72-0.428,1.398-0.304,0.304C65.976,316.215,65.509,312.991,65.033,310.146z
				 M104.811,272.493c-5.907,2.088-19.559-0.936-24.595,3.036c2.446,2.96,0.777,6.042,0.304,9.109
				c-1.139,7.368-0.963,17.984-1.215,22.774c-0.387,7.371-2.177,15.741-0.911,24.596c2.834,0,5.668,0,8.502,0
				c-0.378-5.241-0.604-10.041-1.214-14.879c-0.396-3.134-2.179-7.209,0.303-10.021c1.761-0.667,2.795,1.801,3.644,3.037
				c-1.279,5.989,2.013,10.112,2.429,14.878c0.233,2.673-0.922,4.633-0.304,6.984c0.81,0,1.62,0,2.429,0
				c-0.293-11.838-0.622-22.08-1.822-31.276c-1.671,0.054-3.555,2.514-7.287,1.518c-0.104-1.692-1.367-3.588-0.911-4.858
				c3.14-2.73,9.686-2.055,13.057-4.554c1.465,4.827-0.389,9.702,0,14.878c0.601,8.017,2.893,16.096,1.822,24.292
				c1.214,0,2.429,0,3.644,0c-0.271-15.648,0.501-31.777-0.304-48.584c-2.907-0.915-5.969,0.652-8.806,0
				c-1.206,2.235-3.281,3.602-5.769,4.555c-1.403-2.419-2.039-6.028,0-8.198c6.534-0.172,13.396-3.967,19.129-1.215
				c2.561,3.083,0.986,6.38,0.607,10.02c-1.333,12.817,0.811,30.056-0.607,43.422c1.923,0,3.847,0,5.77,0
				c-2.238-16.212-1.373-34.12-0.911-52.228c1.437-1.741,0.932-5.912-0.304-7.591C109.461,272.785,106.679,272.496,104.811,272.493z
				"/>
			<g>
				<path fill-rule="evenodd" clip-rule="evenodd" fill="none" stroke="#000000" stroke-width="8.5187" stroke-linecap="round" d="
					M102.23,212.219c-1.383-3.196-4.816-4.269-7.136-6.528"/>
			</g>
		</g>
	</g>
</g>
</svg>
