<?xml version="1.0" encoding="utf-8"?>
<!-- Generator: Adobe Illustrator 15.0.0, SVG Export Plug-In . SVG Version: 6.00 Build 0)  -->
<!DOCTYPE svg PUBLIC "-//W3C//DTD SVG 1.1//EN" "http://www.w3.org/Graphics/SVG/1.1/DTD/svg11.dtd">
<svg version="1.1" xmlns="http://www.w3.org/2000/svg" xmlns:xlink="http://www.w3.org/1999/xlink" x="0px" y="0px" width="649px"
	 height="142px" viewBox="0 0 649 142" enable-background="new 0 0 649 142" xml:space="preserve">
<g id="Calque_2">
	<polygon fill="#AEA1E5" points="46.374,127.227 39.693,123.132 38.831,118.391 42.064,114.943 48.098,113.219 64.045,114.297 
		84.95,116.883 95.941,114.512 102.837,111.71 108.656,96.625 107.794,80.462 101.76,69.255 93.354,64.73 81.502,64.945 
		69.218,62.359 65.123,54.601 70.511,47.058 84.734,47.274 96.156,51.153 101.544,54.816 106.07,52.662 109.949,38.653 
		107.363,23.999 95.079,21.844 83.873,15.378 64.261,23.137 46.805,29.171 36.676,37.145 35.383,43.826 39.478,47.489 
		38.616,52.015 36.676,60.851 39.478,66.023 44.219,67.316 47.667,74.643 54.132,77.229 75.468,77.014 82.148,87.358 78.054,92.53 
		70.727,93.608 61.459,89.513 56.934,91.884 49.391,92.53 34.952,91.884 33.013,100.289 23.746,109.556 23.53,115.805 
		25.901,119.685 25.901,125.934 28.702,129.167 40.125,132.184 46.374,130.244 	"/>
	<path fill="#EAEA1B" d="M173.522,34.128l-7.758-11.207l-9.482-1.724l-8.836,1.509l-9.698,3.879l-8.189,3.664l-3.879,7.974
		l-2.801,9.698l-0.216,33.619v10.991l3.448,11.207l6.25,7.327l3.879,2.586l3.017,1.285v1.516l5.459,0.809l3.162,1.347l-0.193-0.907
		l3.21,0.476l14.008-1.293l9.482-4.957l3.664-10.991l2.371-41.593L173.522,34.128z M154.127,97.057l-10.805-0.816l-4.281-36.898
		l2.801-9.051l4.957,3.448l7.974,5.819l2.802,32.542L154.127,97.057z"/>
	<polygon fill="#D3A922" points="192.333,113.667 211.833,116.667 218.167,115 223.5,109.833 222.667,101.667 227.167,99 
		226.667,93.833 221.5,91.333 221.333,85.833 230.5,85.167 240,90.833 241.167,99.167 239.167,114.333 245,117.833 261.667,115.833 
		265.667,96.833 263,81.833 258,76 249.667,73.167 240.5,72.833 237.5,69.667 238,59.167 246.5,51.833 261.167,48.667 
		264.667,43.167 265.167,24.167 261,19.833 253,20.833 241.833,25.333 234.167,36.833 229.167,50 223.667,52 221.167,42 
		221.833,20.667 215.5,18.833 193,21.833 190.667,27.333 194.833,32.667 196.333,42.167 201,49 202,74.167 200,90.5 196.167,94.833 
		198.167,100.5 192.333,108.167 	"/>
	<path fill="#96E086" d="M341.75,35.25l-8.5-8.75l-12.75-6.25l-11.5-5.5l-8.75,3L289.75,23l-6,11.5l1.5,64l6.25,14.5l13.116,3.655
		L305,119l13-1.5l7.25-1.5l11.25-3.25L344,99.5l2-36L341.75,35.25z M327.75,92.5l-5.25,7.5l-10.75,4l-2.637-0.071l-0.363-2.179
		l-5.75-3.5L300.5,82V52.75l8-6l4,3.5l6.75,1.5l3.5-3.25l4,0.75l4.75,8.5L327.75,92.5z"/>
	<g>
		<polygon fill="#3DD124" points="382.667,97.333 383.937,100.296 384.74,101.254 382.556,93.996 		"/>
		<path fill="#59698E" d="M424,80.667L417.334,71L409,65.333l-5.661-2.384L404,62l8.667-12.333L412,32.333l-5.666-10L390.667,15
			l-18,2L363,19l-1.333,46.333l0.331-0.325L361,96.667L365.667,114l6.667,3l10.333,2.667h22L420,113.333l7.334-15L424,80.667z
			 M387,35.667l6.667,2.667l1,7.667l-3,3.333l-11-4.654v-4.346L387,35.667z M404.667,102.667L389,106.333l-4.26-5.08l0.927,3.08
			l-1.73-4.038L380.334,96l1.973-2.833l0.249,0.83l-0.038-1.134l3.122-4.485l3.027,0.956l11-3l7,5.667L404.667,102.667z"/>
	</g>
	<path fill="#BC6F6F" d="M517.588,103.076l-2.89-9.081l-1.857-10.525l-2.684-41.484l-10.525-11.557l-11.351-7.43l-20.639-0.207
		l-13.828,4.954l-7.224,11.558l-4.54,14.653l0.619,21.051l5.366,20.226l-7.431,3.715l-0.412,6.811l-5.366,7.843l3.509,3.096
		l18.78,1.651l11.765-2.683l2.889-3.096l-4.54-8.462l4.334-6.191l-8.049-8.049l1.651-9.081l12.796-6.191l11.558,1.444l4.334,4.954
		l-1.651,9.081l-5.366,8.875l-0.412,5.159l-5.16,7.224l-1.444,4.541l3.096,2.271l22.289-1.651l14.447-1.032l3.922-6.192
		L517.588,103.076z M495.092,58.703l-12.384,6.192l-14.653-1.032l-10.525-3.715l-3.302-7.017l-1.032-7.224l3.715-2.063l11.971,4.127
		h13.415l11.351-3.921l5.16,0.619L495.092,58.703z"/>
	<polygon fill="#AEA1E5" points="587.5,99 578,65.5 572.574,58.627 565.25,58.75 564.75,74.5 567.75,103.25 574.25,115.75 
		558.75,116 548.25,105.5 541.75,102.5 536,101.5 540.25,80.75 534.5,74.75 538.75,59 535.5,49.25 545.25,31.25 546,27.75 
		560,24.25 569.5,25 575.75,23 586.5,38.75 592.75,45.5 598.75,65.25 604.5,82.75 609,78.25 609,61.75 601.25,44 607.5,38.25 
		599.5,26.75 603,17.5 611.75,18 621,29 625.25,53.5 624.5,86 617.75,99.5 616.75,110.5 606.75,115.25 598.25,113.25 	"/>
</g>
<g id="Calque_1">
	<g>
		<g>
			<path fill-rule="evenodd" clip-rule="evenodd" d="M39.774,122.892l1.033-1.376c1.941,2.532,7.15,1.798,9.637,3.786
				c0.031,3.357-2.043,4.611-3.786,6.195l-0.516-1.549l-1.549-0.516c-0.318-3.583-5.556-2.246-6.195-5.507L39.774,122.892z"/>
			<path fill-rule="evenodd" clip-rule="evenodd" d="M167.121,67.134c6.47-3.576,10.854,8.459,5.852,9.982
				C168.199,78.569,163.552,69.107,167.121,67.134z M169.531,72.298c0.043,0.988,0.431,1.634,1.721,1.376c0-0.459,0-0.918,0-1.376
				C170.799,71.855,169.983,71.855,169.531,72.298z"/>
			<g>
				<g>
					<path d="M294.813,48.893c5.04-0.58,4.586-17.222-2.754-11.014c-0.539,2.49,1.633,2.267,1.377,4.474
						c-0.365,1.011-2.072,0.682-2.41,1.721C290.961,47.022,292.607,49.146,294.813,48.893z"/>
					<path d="M295.5,56.121c-6.394-7.164-7.322,10.297-2.753,9.981C295.586,65.906,295.492,60.054,295.5,56.121z"/>
					<path d="M346.761,82.901c-0.129-1.94-0.25-3.774-0.006-5.554c0.043-0.319-0.01-0.627-0.129-0.903
						c1.543-14.958,0.281-31.425-2.939-44.072c-1.772-2.244-4.274-3.757-5.852-6.195c-1.498-0.108-2.814-0.397-4.13-0.688
						c-1.54-3.083-6.009-3.774-9.293-5.507c-1.746-0.92-2.837-3.045-4.475-3.786c-1.06-0.48-2.961-0.765-4.475-1.377
						c-4.819-1.95-10.003-1.806-15.488,0.688l0.09,0.121c-8.726,2.244-15.572,9.983-17.134,19.465
						c-1.92,11.657-1.001,30.521-0.331,44.295c0.159,3.247,0.295,6.06,0.377,8.42l-0.211-0.022
						c-0.048,1.883,0.243,3.427,0.688,4.818l0.134-0.015c0.179,4.704,0.647,9.697,2.786,14.396l-0.166,0.073
						c2.154,5.159,5.472,9.153,12,9.937c3.338,1.876,7.031,2.415,10.716,2.415c2.589,0,5.175-0.265,7.63-0.517
						c1.059-0.108,2.062-0.21,3.056-0.293l-0.017,0.161c2.296,0.116,4.035-0.326,5.507-1.033v-0.118
						c0.592,0.112,1.197,0.169,1.809,0.169c2.822,0,5.766-1.164,8.086-3.263l0.086,0.115c7.316-4.431,10.817-12.677,11.348-23.894
						C347.1,88.076,346.929,85.447,346.761,82.901z M318.561,19.982c-0.986,6.029-6.818,5.223-7.572,11.014
						c-1.064,8.173,5.327,12.409,8.26,18.242c-0.458,0.345-1.038,0.567-1.376,1.033l0.068,0.113
						c-2.672,0.061-5.361-1.203-7.16-3.402l0.208-0.153c-0.727-1.225-1.336-2.565-2.409-3.442l-0.241,0.145
						c-0.008-0.014-0.012-0.028-0.021-0.041c-4.417-6.842-4.222-16.042,0.426-22.003l0.179,0.217
						C310.534,19.809,316.177,18.876,318.561,19.982z M327.165,82.967h0.302c-0.1,0.664-0.19,1.331-0.282,1.998
						c-0.458,3.376-0.893,6.577-2.332,9.489l-0.097-0.129c-2.615,0.827-4.212,2.671-4.818,5.507
						c-3.066,0.368-7.175,2.237-10.67,0.688c-3.552-1.574-4.685-8.962-5.507-13.767c-0.319-1.867-1.303-3.786-1.376-5.507
						c-0.066-1.535,0.696-3.112,0.688-4.818c-0.009-1.899-0.948-4.036-1.033-6.195c-0.325-8.363-0.519-21.306,6.884-20.995
						l0.072-0.138c2.265,2.543,5.504,4.022,8.765,4.022c0.276,0,0.553-0.015,0.83-0.036l-0.03,0.282
						c3.498,0.515,3.622-2.343,5.852-3.097c3.439,0.647,3.848,5.119,4.13,8.604C329.124,66.068,327.003,76.947,327.165,82.967z
						 M341.621,92.604c-2.68,0.096-4.474-2.331-7.229-1.032c-0.516,4.876,5.315,3.403,6.54,6.54
						c-1.002,6.455-4.337,10.578-8.26,14.111l0.091,0.068c-1.962,1.72-4.439,2.565-6.665,2.292
						c-2.173-3.215-6.158-3.183-7.194,1.081l0.013,0.021c-0.888,0.079-1.787,0.168-2.666,0.258
						c-5.809,0.595-11.811,1.209-16.69-1.59l0.07-0.065c0.063-2.116,2.774-1.585,2.753-3.786c-1.481-3.715-5.565-0.495-6.884,1.033
						c-3.244-1.001-4.689-3.801-6.539-6.196l-0.089,0.076c-1.729-3.995-2.175-8.334-2.35-12.476l0.03,0.01
						c0.483-0.09,0.392-0.755,0.688-1.033c2.59-1.063,8.165,1.43,7.916-3.097c-1.485-1.498-5.658-0.308-8.26-0.688
						c-0.193-0.496-0.537-0.84-1.032-1.033l-0.018,0.011c-0.084-2.251-0.211-4.873-0.357-7.861
						c-0.665-13.645-1.574-32.331,0.295-43.684c1.391-8.442,7.488-15.305,15.223-17.189v0.232c1.538-0.082,3.799-0.843,5.163,0
						c0.573,0.684-0.031,0.437,0,1.376l0.177,0.043c-4.982,6.632-5.334,16.53-0.883,24.147c-0.572,3.477-6.378,5.063-6.865,8.851
						c-0.86,6.685-0.571,14.132-0.344,22.027c-0.979,1.774-4.858,0.649-4.819,3.442c0.283,2.241,4.167,0.881,5.163,2.409
						c0.258,5.822,1.977,10.184,2.065,16.177c-1.707,1.85-6.176,0.937-7.572,3.097c0.781,4.898,5.685,0.041,8.604,0.344
						c1.642,0.17,7.346,4.3,7.572,5.507c0.617,3.288-3.187,2.661-1.721,6.196c4.385,2.506,4.906-4.387,6.539-6.884
						c4.812-1.154,7.653-4.278,12.392-5.506l0.078-0.151c1.234,0.724,2.379,1.565,3.589,2.457c0.872,0.643,1.773,1.307,2.716,1.926
						c0.246,0.162,0.523,0.239,0.797,0.239c0.475,0,0.939-0.231,1.219-0.657c0.441-0.672,0.254-1.575-0.418-2.016
						c-0.877-0.575-1.746-1.216-2.586-1.835c-1.076-0.793-2.189-1.605-3.377-2.338l0.047-0.035c-0.31-0.608-0.831-1.004-1.033-1.721
						h-0.136c1.644-3.33,2.129-6.899,2.599-10.359c0.064-0.472,0.132-0.942,0.199-1.413L330.263,84
						c0.566-3.908,7.424-1.525,8.949-4.474c-1.24-2.791-5.877-0.074-7.916-2.065c-0.298-6.643,1.24-13.768,1.721-19.962
						c1.115-1.752,5.031-0.705,4.475-4.13c-1.264-1.991-2.988,0.076-5.508-0.344c-1.049-3.25-3.14-4.028-5.506-6.195
						c-1.314-1.203-2.001-2.832-3.098-3.442c-0.734-0.408-1.922-0.336-2.753-0.688c-9.389-3.975-4.873-20.518,5.162-17.897
						c-0.141,0.829,0.629,0.749,0.345,1.721l0.255,0.078c-1.648,2.363-2.582,5.073-3.334,7.666c-0.19,0.655,0.187,1.34,0.842,1.53
						c0.115,0.033,0.23,0.049,0.345,0.049c0.536,0,1.028-0.351,1.186-0.891c0.689-2.377,1.534-4.846,2.969-6.914l0.147,0.202
						c3.619-4.058,7.533,2.431,9.637,5.163c-1.873,2.9-6.666,7.766-4.13,11.702c2.529-1.141,2.216-5.125,5.163-5.851
						c2.178,1.168,3.007,5.136,3.441,8.261c0.801,5.757,1.268,13.176-0.344,17.897c-1.864,0.774-5.583-0.305-6.195,1.721
						c-0.23,3.329,3.822,2.374,6.195,3.098c1.291,1.347,1.023,4.255,1.032,6.884h0.003c-0.251,2.043-0.122,4.059,0.008,6.011
						c0.16,2.428,0.309,4.722-0.268,6.899C342.69,90.978,342.503,92.14,341.621,92.604z"/>
				</g>
				<g>
					<path d="M429.388,95.357c-0.006-2.438-2.043-5.878-2.754-9.293c-0.696-3.34-0.118-5.648-2.192-6.768
						c-2.708-5.973-7.567-10.164-12.282-14.213l0.02-0.014c-0.975-1.894-4.378-1.359-4.819-3.786
						c1.108-3.82,4.671-4.467,5.851-7.572c0.558-1.468,0.299-3.607,0.689-5.163c0.473-1.889,1.338-3.205,1.376-4.818
						c0.081-3.423-1-8.935-2.065-12.046c-1.481-4.329-7.688-11.814-11.014-13.767c-1.686-0.99-9.152-3.603-12.046-3.786
						c-4.804-0.305-10.466-0.843-14.8-0.344c-5.416,0.624-10.072,3.996-14.8,5.507c0.013,3.084,0.579,5.617,0.345,8.949h0.385
						c-0.498,3.881-0.538,9.26-0.577,14.468c-0.018,2.405-0.034,4.677-0.094,6.797c-0.036,1.3-0.024,2.66-0.011,4.099
						c0.01,1.029,0.019,2.093,0.01,3.156c-0.043,5.264-0.297,10.931-0.541,16.41c-0.43,9.611-0.832,18.693-0.227,26.005
						l-0.322-0.033c-0.016,2.124,0.049,4.167,1.254,5.071c0.537,7.192,5.41,14.52,13.005,14.958
						c4.235,1.929,8.558,3.426,14.651,2.688v-0.093c0.584,0.036,1.172,0.08,1.764,0.125c1.463,0.11,2.949,0.223,4.442,0.223
						c1.696,0,3.4-0.149,5.088-0.609c4.781-0.164,9.548-0.344,12.444-2.393c4.345-0.72,8.293-3.579,10.994-7.963l0.03,0.041
						C426.276,107.39,429.399,101.549,429.388,95.357z M411.481,116.08l0.008-0.071c-0.229,0-0.459,0-0.688,0
						c-1.788-1.589-0.269-4.676-1.376-6.54c-1.178-0.602-2.466-0.183-3.441,0.344c-0.711,1.65,0.784,3.086,0.344,5.507
						c-1.428,2.765-6.996-0.633-7.57,3.083c-2.609,0.681-5.511,0.463-8.319,0.25c-0.641-0.048-1.278-0.096-1.909-0.135
						c-0.256-0.016-0.498,0.034-0.719,0.126c-4.867-0.394-9.229-1.294-11.082-4.701l-0.189,0.175
						c-1.472-2.378-2.193-5.249-2.301-9.188l0.08,0.065c2.467-2.597-1.377-6.286-3.441-3.442c-0.055,1.546,0.279,2.704,1.033,3.442
						l0.106-0.087c0.068,3.04,0.493,6.718,2.444,10.059l-0.143,0.009c-0.051,0.382,0.041,0.906-0.284,1.013
						c-5.991-0.3-9.802-6.454-10.096-12.376l0.056,0.006c0.112-1.608,1.951-1.489,2.064-3.098l-0.275-0.176
						c2.535-3.499,3.891-7.74,4.882-11.431c0.147-0.548-0.178-1.112-0.726-1.259c-0.549-0.146-1.111,0.178-1.26,0.726
						c-0.877,3.266-2.047,6.972-4.088,10.073c-0.567-0.022-0.701,0.388-1.287,0.346c-0.076-0.268-0.288-0.399-0.688-0.344
						l-0.163,0.098c-0.544-7.078-0.153-15.916,0.264-25.263c0.245-5.503,0.499-11.193,0.544-16.506c0.01-1.085,0-2.161-0.01-3.202
						c-0.013-1.414-0.025-2.75,0.01-4.001c0.061-2.146,0.076-4.432,0.096-6.851c0.034-4.703,0.071-9.545,0.444-13.187
						c0.411-0.201,0.708-0.515,0.88-0.957c2.027-0.069,3.849,2.139,5.507,0.345c0.437-4.123-3.979-2.982-4.13-5.851
						c-0.184-3.495,7.35-5.855,11.014-4.819c0.76,2.911,0.771,6.571,4.475,6.54c2.501-1.111,0.36-3.77,0.688-6.54
						c1.563-1.052,6.355-1.052,7.917,0c1.22,0.845-0.034,4.164,1.721,4.475c2.753,0.343,2.592-2.227,4.476-2.753
						c2.768,0.498,4.959,1.028,5.506,3.442c0.422,1.864-1.796,4.557,0.344,5.851c1.885,0.279,1.677-1.536,3.441-1.376
						c1.939,0.47,2.379,2.439,3.099,4.129c0.156,1.993-2.288,1.384-2.065,3.442c0.211,1.968,2.834,1.526,3.786,2.753
						c0.253,2.748,1.017,5.327,0,7.572c-1.448,0.732-4.61-0.25-5.163,1.376c-0.068,2.479,2.992,1.827,3.442,3.786
						c0.521,1.238-1.103,2.924-2.065,3.786c-1.861-0.069-3.211-2.166-5.162-1.032c-1.235,1.917,1.688,3.424,0.688,5.162
						c-4.095,1.784-9.23,0.315-13.768,1.721c-2.177,0.675-3.554,3.286-6.195,2.41c-2.545-2.104-4.268-6.271-3.097-11.014
						c4.021-6.384,9.337,0.588,14.456-0.688c5.117-1.277,4.485-13.219,0-15.488c-6.549-3.313-16.469,1.637-14.112,9.292
						c-2.663,1.467-3.798,4.462-5.851,6.54c-0.88,8.796,3.607,12.225,7.229,16.521l0.165-0.017
						c-2.419,6.209-2.393,11.629,0.091,15.715L380.858,84c1.582,3.956-1.577,9.001-0.689,13.423
						c-4.141-0.624,0.035-6.54-3.441-6.883c-3.257-0.322-2.416,4.487-1.721,6.195c2.135,5.255,9.994,5.267,9.98,11.358l0.246-0.026
						c-0.081,2.208,0.605,5.006,2.367,6.487c0.82,0.691,1.79,1.043,2.849,1.043c0.399,0,0.812-0.05,1.233-0.151
						c0.758-0.181,1.226-0.942,1.045-1.7c-0.181-0.758-0.939-1.226-1.7-1.044c-0.87,0.207-1.335-0.076-1.61-0.306
						c-0.846-0.711-1.293-2.266-1.359-3.63l0.027,0.017c0.572-0.577,2.021-0.274,3.099-0.344l-0.002-0.013
						c0.924,0.217,1.879,0.328,2.847,0.328c5.252,0,10.826-3.058,13.219-7.627l0.112,0.084c2.315-6.598-0.159-14.326-6.755-15.125
						c-2.307-0.634-4.568-0.438-6.762-0.247c-1.91,0.167-3.723,0.318-5.435-0.087l0.021-0.028c-2.23-0.751-3.525-2.439-5.162-3.786
						l-0.1,0.135c-2.309-4.252-1.038-9.554,0.516-13.377l0.271,0.163c4.363-7.037,19.143-5.039,25.814-1.376l0.035-0.047
						l0.171,0.146c4.544,3.903,9.239,7.941,11.61,13.449c1.237,5.107,3.236,9.454,2.982,16.051
						c-1.215,1.767-2.758,3.207-3.785,5.162c-0.24,1.846,1.704,1.509,1.721,3.098c-0.061,1.661-1.661,1.781-1.721,3.442l0.143,0.106
						c-0.038,0.05-0.078,0.097-0.111,0.153C418.544,112.993,415.156,115.537,411.481,116.08z M391.526,39.944
						c1.92,1.886,2.087,5.461-0.688,7.572c-2.717-1.413-7.371-1.311-7.916-4.13C382.116,39.218,388.771,37.236,391.526,39.944z
						 M387.396,88.818v-0.094c2.298,0.612,4.543,0.417,6.718,0.227c2.013-0.176,3.918-0.333,5.7,0.166l-0.027,0.044
						c3.267,1.859,5.174,5.078,4.487,10.891c-2.314,3.896-8.055,6.379-12.429,5.329l0.025-0.043
						c-1.467-1.687-5.207-2.974-6.539-5.851c-1.301-2.808-1.935-8.197,0.343-10.669C386.249,88.818,386.823,88.818,387.396,88.818z"
						/>
					<path d="M395.657,69.2c-1.727,0.294-7.805,5.357-7.572,7.572c0.24,2.283,7.181,5.684,8.948,5.507
						C402.285,81.753,401.837,68.147,395.657,69.2z M395.313,77.116c-2.611-0.025-0.944-4.145,1.034-2.41
						C396.509,76.018,396.199,76.855,395.313,77.116z"/>
				</g>
				<path d="M71.725,48.117c7.107-0.979,16.991-0.111,23.418,4.049c0.508,0.329,1.043,0.734,1.61,1.163
					c1.704,1.289,3.625,2.742,5.754,2.742c0.103,0,0.206-0.003,0.309-0.01c4.774-0.319,5.772-5.672,6.575-9.973
					c0.258-1.385,0.504-2.704,0.838-3.811l0.102,0.077c1.519-1.668,0.265-4.456,0.344-6.883c0.049-1.493,0.806-3.222,0.688-4.819
					c-0.304-4.134-3.843-10.987-5.851-11.358c-1.659-0.306-3.81,1.439-5.852,1.377c-3.726-0.113-6.057-3.384-9.637-4.819
					c-13.356-5.353-22.084,3.964-29.255,7.572l0.027,0.036c-6.902,1.052-25.232,5.173-26.878,19.24
					c-0.76,0.156-0.134,1.697-0.338,2.408c0.746,2.318,4.831,1.297,4.484,4.708c-3.189,4.333-4.001,9.749-2.109,14.222h-0.31
					c-0.033,2.098,0.938,3.192,2.065,4.13c1.538,1.175,4.059-0.74,5.507,0.344c0.02,0.21,0.052,0.407,0.344,0.344l0.006-0.002
					c1.569,10.753,10.343,10.121,18.099,9.556c5.94-0.432,12.08-0.876,15.741,3.093L77.29,81.59
					c1.168,1.701,2.189,3.547,2.753,5.851h0.02c-0.553,2.276-1.569,3.711-3.102,4.379c-2.765,1.203-7.542-0.002-13.125-3.305
					l0.031-0.042c-5.329-2.723-8.829,1.814-12.391,3.098v0.15c-1.605-0.136-3.226-0.444-4.938-0.771
					c-3.763-0.72-7.65-1.458-11.582-0.321v-0.091c-4.13,0.448-4.929,4.706-3.786,8.604l0.165,0.192
					c-0.422,0.351-0.855,0.703-1.294,1.06c-3.521,2.862-7.489,6.099-8.618,10.935l-0.234-0.14c-2.829,4.264,2.176,6.021,3.732,8.187
					c0.031,0.795-0.092,1.625-0.223,2.491c-0.112,0.742-0.228,1.508-0.256,2.322c-0.086,2.98,1.771,5.505,5.231,7.109
					c2.674,1.239,6.083,1.85,9.245,1.85c3.438,0,6.584-0.723,8.17-2.147c0.582-0.522,0.63-1.417,0.108-2
					c-0.523-0.582-1.418-0.629-2-0.107c-1.99,1.786-9.583,2.036-14.333-0.166c-2.436-1.128-3.644-2.628-3.591-4.447
					c0.022-0.643,0.121-1.297,0.226-1.991c0.155-1.029,0.31-2.087,0.241-3.21c0.497-1.212,1.401-2.015,1.708-3.416
					c-0.051-2.586-3.768-1.509-5.162-2.754c0-0.343,0-0.688,0-1.032l-0.261,0.027c0.935-3.934,4.366-6.733,7.697-9.441
					c0.272-0.221,0.537-0.439,0.804-0.658l0.02,0.091c2.045-1.168,4.721-1.705,6.195-3.442c-0.231-2.292-3.391-1.657-3.786-3.786
					c0.496-0.193,0.84-0.538,1.033-1.033l-0.033-0.044c3.175-0.875,6.494-0.243,9.996,0.427c1.625,0.311,3.301,0.625,4.977,0.785
					c2.09,0.549,5.301,0.872,7.433,0.208c1.254-0.696,1.177-2.723,2.409-3.441c0.574,0,1.149,0,1.723,0
					c3.51,2.037,7.962,4.028,11.972,4.028c1.34,0,2.631-0.223,3.82-0.741c2.624-1.143,4.339-3.521,5.101-7.071
					c0.038-0.175,0.038-0.348,0.021-0.517c0.502-3.578-1.646-6.532-3.706-8.091l-0.079,0.106
					c-4.682-4.979-11.848-4.462-18.183-4.001c-8.649,0.629-13.645,0.617-14.761-6.8c3.629-4.723-2.918-6.523-7.591-5.137
					c-0.073-0.386-0.381-0.536-0.688-0.688l-0.144,0.192c-1.479-3.699-0.681-8.196,2.1-11.788l0.109,0.238
					c2.209-1.182,3.175-4.792,1.721-6.54c-1.461-1.757-3.47-0.094-5.163-1.376c-0.055-0.19-0.039-0.453-0.145-0.592
					c1.387-9.761,13.601-14.913,24.926-16.506v0.233c6.675-0.183,7.06-4.109,10.669-6.195c13.656-7.894,18.855,7.462,32.008,4.818
					c1.765,1.563,2.924,3.729,3.098,6.883c-0.904,0.932-2.936,0.736-3.786,1.721c-0.446,2.308-0.371,5.137-2.065,6.195
					c-4.913-1.316-0.289-8.316-4.818-8.949c-3.679-0.513-2.563,4.062-5.507,4.475c-2.223,0.312-2.949-3.068-4.818-3.442
					c-2.33-0.044-4.233,1.515-5.163-0.688c0.935-3.691,2.66-1.927,2.753-4.13c0.08-1.872-0.599-2.381-2.065-2.753
					c-8.426-2.137-6.267,13.038-1.376,14.111c1.186,0.26,2.713-0.878,4.13-0.688c2,0.268,3.17,2.571,5.163,2.753
					c1.354,0.123,2.794-1.245,4.475-1.033c3.233,0.408,2.743,5.003,6.195,5.163c3.829,0.177,3.521-7.544,6.54-3.442h0.137
					c-0.397,1.296-0.674,2.776-0.942,4.214c-0.828,4.443-1.541,7.367-3.813,7.519c-1.133,0.079-2.678-1.095-4.044-2.128
					c-0.585-0.442-1.19-0.899-1.792-1.289c-7.698-4.983-18.758-5.507-25.889-4.443l-0.37,0.055l-0.301,0.222
					c-1.24,0.912-2.124,2.045-2.979,3.142c-0.404,0.518-0.79,1.009-1.199,1.463l-0.111-0.148c-2.65,1.171-2.281,5.758-1.032,8.26
					l0.019-0.014c2.022,5.986,8.388,6.743,13.534,7.355c1.435,0.17,2.799,0.333,4.006,0.586c0.079,0.26,0.289,0.388,0.683,0.333
					c1.104,0.96,0.928,3.203,2.409,3.786c2.426-0.212,2.382-2.895,4.13-3.786c1.101,0,2.2,0,3.301,0
					c0.045,0.013,0.088,0.032,0.136,0.042c1.31,0.26,3.001,0.823,4.108,2.041c-0.857,1.033-1.818,1.986-2.821,2.98
					c-0.243,0.241-0.486,0.482-0.728,0.725l-0.209-0.28c-1.121,0.256-1.047,1.707-1.721,2.409c0.092,2.458,4.107,2.779,4.13,0
					l-0.28-0.209c0.239-0.239,0.479-0.478,0.719-0.716c0.994-0.986,2.012-1.997,2.948-3.116c1.203,0.934,2.247,2.151,3.336,3.431
					c0.288,0.338,0.575,0.673,0.864,1.004c1.665,4.75-5.734,3.127-5.522,7.523c2.71,3.186,4.894-2.703,7.916-1.377
					c0.266,2.762,1.167,6.573,0.344,9.293c-2.633,1.268-8.118-0.317-9.292,2.409c0.941,4.031,6.001,0.458,8.948,1.721
					c0.849,2.746-0.36,6.25-1.377,8.26c-4.285,0.894-8.142-3.39-10.669,0c0.757,3.717,6.341,2.608,8.261,5.163
					c0,0.229,0,0.458,0,0.688h0.226c-0.641,3.787-4.7,4.755-8.152,4.871l0.01-0.053c-1.34-1.928-6.501-8.93-7.916-4.474
					c-0.955,3.006,2.763,2.04,2.409,5.162c-5.317,3.891-5.54-4.576-10.325-4.474c-1.676,0.123-0.594,3.003-1.334,4.063
					c-3.13,0.039-6.962-0.417-11.004-0.902c-8.522-1.022-18.181-2.18-24.48,1.133c-1.594,0.838-4.329,2.653-4.738,5.385
					c-0.251,1.675,0.4,3.298,1.938,4.824c0.297,0.294,0.684,0.441,1.071,0.441c0.391,0,0.782-0.15,1.08-0.45
					c0.592-0.596,0.588-1.559-0.008-2.151c-0.812-0.806-1.172-1.55-1.073-2.214c0.179-1.191,1.743-2.405,3.146-3.144
					c5.461-2.872,14.621-1.774,22.702-0.806c4.407,0.529,8.569,1.025,12.027,0.908l-0.015,0.139
					c4.75,1.33,11.626,0.986,16.409-0.436c6.122-0.159,10.1-2.631,11.066-6.836l0.06,0.045c5.129-8.181,7.938-27.737,1.239-36.492
					c-0.07-0.159-0.157-0.313-0.278-0.45c-0.296-0.337-0.59-0.682-0.885-1.028c-1.372-1.611-2.793-3.268-4.669-4.507
					c-1.387-2.033-3.715-3.425-6.761-4.029c-0.354-0.07-0.704-0.028-1.016,0.097c-2.927-0.303-6.59,0.131-9.634-0.054
					c-1.357-0.289-2.807-0.469-4.336-0.651c-5.707-0.678-9.594-1.421-10.882-5.202h0.05c0.041-1.681-0.186-3.627,0.344-4.818
					l-0.167-0.125c0.526-0.571,0.994-1.168,1.445-1.746C70.301,49.59,70.949,48.759,71.725,48.117z"/>
				<path d="M259.913,75.687c-4.192-3.396-8.177-3.554-13.221-3.752c-0.976-0.039-1.984-0.079-3.049-0.144
					c-2.23-0.138-3.898-0.872-4.697-2.069c-0.761-1.14-0.631-2.558-0.317-3.681l0.083,0.062c0.713-1.14,0.768-2.939,0.997-4.563
					c0.091-0.145,0.165-0.305,0.211-0.479c0.576-2.191,2.117-4.137,4.998-6.31c0.006-0.004,0.01-0.01,0.016-0.015
					c2.19-0.64,2.908-2.136,5.136-2.745c4.7-1.284,9.747,0.798,13.423-2.409c4.264-3.72,4.798-15.708,3.729-22.271
					c0.035-0.129,0.06-0.263,0.063-0.403c0.083-3.382-1.515-5.994-4.497-7.354c-6.188-2.822-16.78,0.269-21.763,4.812
					c-1.924,1.754-4.356,5.362-7.229,10.725c-0.901,1.682-1.63,3.762-2.401,5.964c-1.264,3.608-2.837,8.098-4.953,8.9
					c-0.236,0.089-0.898,0.341-2.165-0.227c-0.203-0.64-0.267-1.362-0.339-2.172c-0.107-1.204-0.228-2.569-0.886-3.901
					c-0.018-0.037-0.043-0.067-0.063-0.102c-0.908-4.762,4.33-9.993,0.235-14.278l-0.068,0.015c0.018-0.131,0.033-0.256,0.051-0.389
					c0.49-3.672,1.293-9.721-4.21-11.199l0.097-0.129c-4.627-1.297-10.973,1.775-18.586,2.409c-2.235,0.186-4.491-0.357-6.195,0
					c-3.083,0.646-6.314,3.56-6.54,5.163c-0.722,5.145,4.004,5.012,5.851,8.26c-0.641,6.851,2.716,11.85,4.475,17.898
					c2.374,8.164,1.285,18.643,0.688,26.501c-0.272,3.591,0.727,7.719,0,10.669c-0.584,2.366-3.634,3.716-4.13,5.851
					c-0.742,3.188,1.088,6.528,0.691,8.245c-0.453,0.855-1.103,1.654-1.786,2.489c-0.946,1.155-1.917,2.35-2.517,3.853l-0.174-0.13
					c-0.593,1.977-0.937,6.667,1.377,6.883l0.173-0.23c0.217,0.163,0.483,0.268,0.774,0.285c1.822,0.108,4.008,0.411,6.323,0.731
					c3.469,0.48,7.396,1.024,11.146,1.024c6.725,0,12.882-1.751,14.816-8.746l0.154,0.052c1.186-2.114-0.357-4.455-0.688-6.196
					c0.509-1.063,2.181-0.964,2.394-2.324c1.486-1.386,2.05-3.472,1.434-5.556c-0.658-2.226-2.423-3.816-4.55-4.198
					c-5.453-5.004,7.762-3.516,9.671-2.721c3.373,1.403,5.033,5.18,5.506,8.949c0.778,6.189-2.354,15.835-1.032,19.274
					c2.22,5.773,23.629,3.212,24.781-0.689l-0.158-0.118c0.1-0.133,0.181-0.286,0.234-0.453
					C265.38,107.961,271.51,85.083,259.913,75.687z M197.753,23.08c2.446,0.25,2.464,3.173,4.474,3.442
					c2.784-3.583,5.365-4.842,9.293-1.377c2.899-0.772,2.351-4.991,6.539-4.474v-0.257c2.789,0.658,2.978,3.173,2.319,8.11
					c-0.009,0.07-0.018,0.135-0.026,0.204c-0.534,0.642-1.007,1.345-1.948,1.58l0.008,0.075c-1.587-0.093-3.208-0.268-4.78-0.439
					c-4.377-0.478-8.897-0.966-13.47,0.197v-0.176C192.01,31.588,191.618,22.451,197.753,23.08z M197.409,37.535
					c-0.348-3.101,2.053-3.454,3.786-4.475l-0.058-0.077c3.965-0.955,7.957-0.522,12.169-0.062c1.556,0.17,3.162,0.341,4.768,0.441
					l-0.015,0.042c2.879,0.406,2.505,5.017-0.344,5.163l0.021,0.189c-0.042,0.004-0.083,0.004-0.125,0.012
					c-3.433,0.703-6.892,0.767-10.555,0.835c-1.593,0.03-3.235,0.063-4.864,0.152l0.035-0.157
					C200.832,38.702,197.933,39.306,197.409,37.535z M199.91,113.61c-1.916-0.265-3.743-0.517-5.395-0.665
					c-0.136-0.173-0.341-0.276-0.548-0.378c0-0.918,0-1.836,0-2.754h-0.171c0.45-1.026,1.207-1.95,2.002-2.921
					c0.918-1.121,1.861-2.282,2.462-3.727l0.182,0.109c1.548-1.091,4.122-1.156,6.884-1.033v-0.039
					c1.159,0.126,2.321,0.177,3.481,0.177c2.037,0,4.066-0.15,6.053-0.297c1.168-0.086,2.374-0.175,3.544-0.229v0.044
					c0.973-0.284,0.892,0.485,1.721,0.344c0.879,1.989,1.688,4.049,2.409,6.196l0.038-0.004
					C220.169,115.788,211.264,115.182,199.91,113.61z M223.223,93.637v-0.222c0.001,0,0.002,0,0.004,0
					c1.406,0,2.354,1.075,2.669,2.141c0.123,0.417,0.411,1.819-0.862,2.723l-0.09-0.167c-2.392,0.028-5.005-0.166-6.853,0.405
					c-1.165,0.057-2.339,0.142-3.478,0.226c-3.165,0.233-6.154,0.454-9.096,0.114c-0.464-0.052-0.905,0.09-1.241,0.361
					c-6.356-0.298-7.136-5.738,0.042-5.921c0.049,0.005,0.096,0.013,0.146,0.013c0.045,0,0.093-0.011,0.139-0.015
					c0.126-0.001,0.248-0.005,0.378-0.002l-0.017-0.05c1.948-0.386,3.913-0.406,5.991-0.424c1.968-0.017,4-0.038,6.072-0.389v0.174
					C219.82,92.221,221.077,93.373,223.223,93.637z M260.588,112.955c-5.256,1.636,0.2-8.18-5.012-7.616
					c-3.688,1.695,2.18,11.539-5.163,9.981c-2.28-2.923,1.619-8.627-2.065-9.293c-4.617-0.834-1.265,6.211-3.098,9.293
					c-4.76-0.665-2.544-4.873-2.064-8.948c0.909-7.734,0.695-13.124-2.41-17.898c-3.958-6.085-22.068-8.72-23.06,0.345
					c-0.611,0.189-1.423,0.177-1.717,0.684c-1.657,0.232-3.321,0.248-5.07,0.262c-2.043,0.018-4.152,0.041-6.292,0.433l0-0.002
					c-0.44-0.019-0.477-0.441-1.033-0.344c-1.561-4.753-1.104-13.433,0.688-17.897c4.095,1.527,4.145,7.099,9.638,7.228
					c1.206,1.548,0.447,5.06,2.753,5.507c1.58-0.256,0.949-2.723,1.376-4.13c4.135-1.717,4.446-7.257,8.605-8.949
					c-0.191-1.988-2.903-1.457-3.442-3.098c0.057-4.646-2.982-6.195-5.507-8.26c-0.925-2.632-0.88-6.233-4.475-6.195
					c-2.748,2.075,0.95,4.531,0.344,6.884c-0.413,1.606-2.517,1.695-3.786,2.753c-1.521,1.268-2.34,4.916-4.819,4.131
					c-1.705-4.438-0.666-12.749-1.721-18.242c-0.548-2.856-3.881-5.655-0.679-7.091c1.505-0.077,3.037-0.108,4.526-0.136
					c3.484-0.065,7.081-0.139,10.622-0.812l-0.014,0.122c1.018,0.948,1.419,2.511,2.28,3.616c0.333,0.732,0.412,1.591,0.5,2.58
					c0.106,1.191,0.226,2.542,0.866,3.865l0.238,0.491l0.476,0.266c1.265,0.705,2.482,1.058,3.639,1.058
					c0.672,0,1.323-0.119,1.952-0.357c3.619-1.374,5.332-6.262,6.988-10.989c0.726-2.072,1.412-4.029,2.186-5.475
					c3.348-6.248,5.389-8.779,6.511-9.803c4.503-4.104,13.588-6.235,18.002-4.222c1.739,0.793,2.526,2.105,2.477,4.127
					c0,0.016,0.003,0.031,0.003,0.046c-1.095,2.045-6.955,1.014-5.16,4.815c1.144,1.718,3.402-0.599,4.819,0.344
					c0.796,0.823,1.021,3.621,0.344,4.819c-2.211,0.772-6.347-0.381-6.539,2.409c0.205,2.777,5.103,0.863,6.195,2.754
					c0.177,2.357-1.358,3.001-2.41,4.13c-8.017,0.022-14.385,1.693-18.264,5.854c-2.308,1.741-5.056,4.195-6.143,7.825
					c-1.135,1.043-2.028,3.344-1.063,5.251h0.123c-0.899,3.036-0.148,5.116,0.673,6.345c1.34,2.008,3.843,3.222,7.046,3.42
					c1.099,0.067,2.125,0.108,3.116,0.147c4.654,0.184,8.017,0.317,11.421,3.076C267.667,85.896,262.779,105.747,260.588,112.955z"
					/>
				<path d="M182.266,66.446c0.421-6.721-1.154-11.867-2.065-17.209c-0.33-1.935-0.001-3.731-0.344-5.163
					c-0.602-2.511-2.768-4.941-3.786-7.572c-0.601-1.554-0.488-3.304-1.032-4.475c-3.586-7.707-16.928-18.891-28.223-12.39
					c-1.961,1.128-2.029,3.183-4.474,4.129c-1.185,0.459-3.232,0.31-4.819,0.689c-3.36,0.802-6.022,1.563-7.572,3.786l0.132,0.099
					c-2.596,1.467-4.678,4.086-5.964,7.498l-0.019-0.025c-2.065,1.147-2.309,4.115-2.065,7.572h0.428
					c-1.218,9.104-1.335,18.259-0.342,26.502h-0.429c-0.415,1.191-0.63,2.583-0.688,4.13l0.406-0.043
					c-0.046,0.759-0.097,1.523-0.148,2.293c-0.513,7.72-1.041,15.696,2.048,22.873l-0.241,0.001
					c1.265,3.783,1.993,8.104,5.163,9.981l0.161-0.218c5.68,6.434,11.572,9.696,17.53,9.696c0.19,0,0.38-0.007,0.569-0.014
					l-0.02,0.172c1.106,0.615,3.242,0.2,4.475,0.688l-0.004-0.212c1.492,0.096,2.925,0.145,4.302,0.145
					c13.014,0,20.833-4.252,22.761-12.421l0.131,0.098c2.761-4.856,1.485-12.346,1.721-18.585
					C180.134,81.135,181.826,73.457,182.266,66.446z M150.945,22.735c5.358,0.312,10.894,5.099,12.145,9.368
					c-0.036,0.216-0.031,0.443,0.025,0.668c1.059,4.23,3.656,18.209-7.098,21.281c-4.488-0.037-10.607-0.399-9.891-4.471
					c0.553-3.148,3.793-1.229,7.228-2.065c2.681-0.653,3.785-2.665,4.475-4.819h-0.077c0.661-1.735,0.648-3.522-0.047-5.207
					c-1.384-3.354-5.25-5.813-8.567-7.069l0.085-0.115C146.197,28.09,147.676,22.545,150.945,22.735z M142.34,75.395l-0.038-0.004
					c0.005-0.047,0.016-0.092,0.017-0.14c0.054-3.04-0.305-6.024-0.652-8.911c-0.213-1.773-0.433-3.605-0.548-5.4h0.188
					c0.253-2.326-0.376-5.58,0-6.884c-0.019-0.592,0.265-0.882,0.688-1.032c2.623-0.279,2.95,1.974,5.507,3.442
					c2.601,1.493,4.838,1.714,5.851,3.441c1.084,1.849,0.477,3.958,1.506,6.127c0.733,3.087,0.78,6.254,0.824,9.604
					c0.018,1.385,0.038,2.815,0.11,4.232h-0.031c-1.522,4.87,2.589,8.307,0.689,12.735c-1.939,4.516-9.457,4.718-12.28,0.751
					c-0.572-2.495-0.798-5.035-1.034-7.72c-0.136-1.55-0.28-3.149-0.494-4.738l0.041,0.004
					C142.461,79.175,143.135,76.55,142.34,75.395z M178.479,63.692c-0.121,1.728-1.222,4.081-1.376,6.196
					c-0.67,9.184,1.81,23.814-5.163,26.502c-2.823,0.466-5.541-1.044-7.228,0.344c0.123,5.991,7.329,1.892,10.669,2.753
					c0.949,1.977-0.2,4.539-0.344,6.539h0.269c-2.049,9.556-13.864,10.979-23.716,10.413l0.043-0.087
					c-3.7-0.888-1.676-7.502-3.787-9.98c-4.879,0.673-0.894,6.182-2.042,9.564c-5.118-0.047-10.291-2.989-15.393-8.758l0.227-0.119
					c-0.168-1.994-0.645-3.987,0-5.851l-0.16-0.083c0.715-1.05,1.264-2.152,1.79-3.22c0.632-1.283,1.229-2.493,2.071-3.531
					c0.502-0.619,0.408-1.527-0.211-2.029c-0.618-0.502-1.527-0.408-2.029,0.211c-1.046,1.29-1.744,2.705-2.418,4.073
					c-0.45,0.915-0.885,1.781-1.399,2.585l-0.052-0.071c-0.345-0.001-0.41,0.278-0.688,0.344c-1.178,0.145-1.034-1.031-1.721-1.376
					l-0.222,0.19c-2.916-6.672-2.405-14.396-1.909-21.871c0.031-0.468,0.06-0.929,0.091-1.394c3.521-1.973,7.87-3.118,10.3-6.182
					c-1.849-4.507-6.974,2.545-9.52-0.217c-0.819-7.508-0.707-15.756,0.328-24c2.925-3.704,8.961,0.185,12.29-0.22
					c1.713-6.018-8.412-3.017-10.326-6.54c0-0.229,0-0.459,0-0.688h-0.237c0.664-1.884,2.06-4.763,4.711-6.325v0.129
					c3.58-0.398,5.073,3.893,8.26,1.721c0.451-2.516-1.656-2.474-1.376-4.818c4.906-2.279,5.187,5.44,9.981,5.506v-0.108
					c2.583,1.002,5.717,2.922,6.717,5.348c0.422,1.024,0.404,2.048-0.044,3.121l-0.133-0.1c-1.651,2.42-4.716,1.231-7.228,1.721
					c-5.627,1.097-10.489,6.527-10.325,12.046c-1.545,0.635-4.52-0.16-4.818,1.721c0.077,3.247,4.868,1.781,5.729,4.243
					c0.125,1.792,0.335,3.578,0.544,5.309c0.344,2.862,0.668,5.569,0.631,8.348l-0.021-0.002c-0.453,1.154-1.783,1.43-2.409,2.409
					l0.061,0.103c-2.763,0.879-5.323,3.003-7.242,6.032c-0.446,0.703-0.237,1.634,0.466,2.08c0.25,0.159,0.529,0.234,0.806,0.234
					c0.499,0,0.987-0.247,1.274-0.7c1.471-2.318,3.344-3.956,5.327-4.677l-0.003,0.027c0.345,0,0.688,0,1.033,0
					c0.316,0.331,0.64,0.653,0.97,0.969c0.189,1.454,0.324,2.941,0.451,4.387c0.232,2.647,0.477,5.38,1.083,8.066h-0.095
					c-0.487,0.89-0.597,2.157-1.032,3.098l0.012,0.002c-2.576,3.215-2.611,7.332-2.332,10.623c0.067,0.787,0.726,1.381,1.501,1.381
					c0.043,0,0.086-0.002,0.129-0.006c0.83-0.071,1.446-0.801,1.375-1.63c-0.24-2.832-0.225-6.37,1.951-8.791l0.117,0.141
					c0.267-0.077,0.679-0.009,0.688-0.344c3.048,0.509,6.158,0.956,8.949,1.721c0.048,0.641,0.227,1.15,0.689,1.377l0.048-0.029
					c0.47,2.936,2.293,5.727,4.988,7.575c1.896,1.301,4.019,1.978,6.086,1.978c0.865,0,1.72-0.119,2.544-0.359
					c0.785-0.229,1.235-1.051,1.006-1.835c-0.229-0.785-1.051-1.234-1.836-1.006c-1.939,0.566-4.171,0.123-6.125-1.218
					c-2.064-1.417-3.485-3.621-3.768-5.81l0.155,0.016c1.248-4.259,4.055-6.958,4.474-12.046c2.023-0.404,3.689,0.953,5.163,0
					c-1.401-3.629-5.621-4.44-6.657-8.434c0.061-0.19,0.094-0.393,0.083-0.604c-0.073-1.379-0.092-2.807-0.11-4.188
					c-0.044-3.343-0.098-6.795-0.886-10.206c0.22-3.115-1.24-5.849-0.74-8.328c4.877-1.567,8.126-5.173,9.411-10.479
					c1.28-5.289,0.323-11.022-0.439-14.207h0.028c0.093-1.168-0.267-2.791,0.344-3.442c3.737,3.22,7.822,11.097,9.637,18.93
					C177.477,52.446,178.823,58.772,178.479,63.692z"/>
				<g>
					<path d="M626.472,63.187h-0.006c0.397-6.96-0.268-13.955-0.914-20.722c-0.083-0.869-0.167-1.737-0.246-2.604
						c0.275-7.783-1.835-16.292-7.773-21.362c-5.687-4.855-17.987-8.662-17.098,3.109c-1.749,1.1-4.703,0.995-5.828,2.72
						c0.396,6.856,6.413,8.096,8.55,13.212c-0.912,2.185-3.832,2.35-4.276,4.663c-0.623,3.249,2.546,8.09,3.499,11.658
						c2.388,8.957,7.193,17.69,2.719,25.259c-6.448-3.825-1.875-16.271-6.218-22.15l-0.117,0.089
						c-0.233-1.022-0.433-2.06-0.639-3.146c-0.48-2.54-0.979-5.166-1.997-7.666c-0.054-0.134-0.129-0.252-0.21-0.362l0.242-0.184
						c-1.267-6.244-7.935-7.089-10.49-12.046l-0.072,0.095c-0.128-0.221-0.257-0.44-0.385-0.662
						c-1.985-3.428-4.038-6.964-7.458-9.43l0.144-0.107c-2.942-4.27-7.934-0.905-12.824-0.777l-0.035,0.078
						c-0.049-0.022-0.098-0.05-0.15-0.068c-5.23-1.755-11.347-1.332-17.302,1.17v-0.014c-2.896,1.126-6.874,0.195-8.16,2.72
						c-1.306,2.563,2.468,4.902,1.944,8.16c-0.397,2.461-4.123,4.117-5.441,5.829c-1.168,1.514-1.13,2.981-2.722,4.663
						c-0.407,4.946-1.995,7.858-1.552,12.823c0.675,1.731,3.088,2.963,3.107,5.44c0.023,3.139-3.705,6.413-3.498,10.492
						c0.276,5.424,3.551,6.183,7.384,9.715c-1.899,6.001-5.889,9.914-5.441,18.264c1.529,3.556,6.567,4.207,10.493,2.332
						c3.021,1.419,2.38,4.354,4.274,6.995c2.398,3.343,10.639,7.127,16.71,7.383c3.69,0.155,10.723,0.067,12.046-1.555
						c3.248-3.979-3.633-9.031-5.828-11.269l-0.229,0.155c-3.631-11.527-4.311-24.165-4.965-36.394
						c-0.067-1.265-0.135-2.527-0.206-3.787h0.349c0.982-2.255,1.765-4.71,3.885-5.829c3.528,1.401,6.44,4.968,7.773,8.549
						c1.055,2.838,0.72,6.126,1.554,9.327c1.092,4.195,3.73,8.788,5.051,13.601c1.494,5.442,2.283,11.169,4.276,14.766
						c2.822,5.101,8.211,6.308,11.268,10.88c3.349-2.086,7.367-0.347,10.492-0.777c4.082-0.563,9.347-5.72,10.493-11.269
						c0.331-1.612-0.276-3.569,0-5.44c0.989-6.718,6.994-10.601,4.274-15.933h-0.056c0.44-2.119,0.656-4.257,0.862-6.33
						c0.079-0.8,0.159-1.599,0.251-2.395c0-0.004-0.001-0.008,0-0.012C626.823,71.638,626.654,66.289,626.472,63.187z
						 M582.171,70.182c2.707-0.526,3.881,2.188,2.72,4.274C582.263,74.905,581.218,72.059,582.171,70.182z M586.445,83.394
						c-2.087-0.275-2.048-2.993-1.166-4.274c0.518,0,1.037,0,1.556,0c0.624,0.929,1.277,1.83,1.165,3.497
						C587.228,82.621,587.506,83.677,586.445,83.394z M589.942,90c-1.195,0.272-0.746,0.272-1.942,0c0-0.389,0-0.777,0-1.166
						C589.074,88.401,590.179,88.228,589.942,90z M591.886,98.16c-1.859,0.282-2.042-0.835-1.554-1.943c0.388,0,0.777,0,1.165,0
						C591.824,96.668,592.01,97.259,591.886,98.16z M594.993,104.767c-1.014,0.108-1.943,0.131-1.552-1.167
						C594.457,103.491,595.112,103.742,594.993,104.767z M598.103,109.818c-0.553-0.519-0.553-2.202,0-2.72c0.519,0,1.037,0,1.555,0
						C601.05,108.354,599.966,110.875,598.103,109.818z M608.595,110.983c-1.215,0.469-1.927,1.44-3.885,1.166
						c-0.218-0.559-0.606-0.948-1.167-1.166C602.309,106.163,610.026,105.649,608.595,110.983z M612.48,109.041
						c-2.564-1.293-0.2-5.114,2.332-3.498C615.37,106.991,614.558,109.083,612.48,109.041z M601.601,102.435
						c-1.125-1.778-4.229-3.403-5.051-5.829c-0.521-1.535-0.03-3.418-0.391-5.051c-0.763-3.489-2.146-8.219-3.496-12.047
						c-3.371-9.56-6.228-17.382-13.601-22.15c-2.716-1.756-7.449-4.588-10.492-5.052c-8.167-1.243-10.308,4.996-12.435,10.492
						c0.351,1.981,4.098,0.565,5.052,1.943c0.563,0.604,0.519,1.813,1.165,2.332l0.022-0.016c0.05,0.935,0.102,1.869,0.151,2.807
						c0.671,12.552,1.366,25.53,5.218,37.541l-0.34,0.083c0.568,2.411,2.945,3.013,3.108,5.828
						c-5.406,2.039-9.498,1.016-13.212-0.777c-2.776-1.34-6.844-6.021-7.771-8.549c-1.218-3.317-0.771-6.797-3.887-6.995
						c-3.153-0.201-3.27,3.963-6.995,3.108c-2.157-2.461,0.668-4.881,1.555-6.994c0.879-2.098,1.288-5.223,2.72-7.772
						c2.656-4.73,6.476-8.244,1.943-11.658c-2.851-0.39-3.158,1.765-5.829,1.554c-4.468-2.404,1.266-13.724,4.274-13.989
						c3.328-0.294,4.436,5.518,7.384,1.554c-0.075-2.904-3.404-2.552-5.052-3.886c-0.696-1.766-0.677-4.246-1.943-5.44
						c-1.765-0.814-3.792,0.771-5.052-0.777c-0.567-4.926-0.268-7.516,2.331-11.269c2.342-3.382,8.604-4.468,8.938-7.383
						c0.316-2.753-2.698-2.184-2.719-5.44c0.517-0.39,1.173-0.641,1.554-1.166l-0.068-0.092c5.247-2.271,10.587-2.701,15.075-1.195
						c0.077,0.026,0.154,0.039,0.233,0.054c1.917,1.227,2.554,5.419,4.966,5.896c3.51,0.693,3.98-1.647,4.275-5.83
						c0.648,0,1.295,0,1.942,0l0.162-0.216c0.026,0.019,0.047,0.042,0.073,0.06c3.063,2.039,4.923,5.253,6.893,8.656
						c0.251,0.432,0.5,0.863,0.752,1.29c0.032,0.054,0.067,0.104,0.105,0.154l-0.213,0.159c1.547,1.951,0.74,6.255,1.942,8.549
						c1.957,1.294,3.467,0.245,5.829,0c1.086,0.981,1.588,2.547,2.713,3.49c0.669,1.927,1.058,3.967,1.464,6.11
						c0.226,1.186,0.459,2.407,0.743,3.612h-0.256c0.589,6.198,2.554,15.438,3.886,21.762c0.9,4.276,1.467,8.738,7.383,6.995
						c4.683-1.38,6.239-16.383,5.052-22.15c-1.462-7.092-6.822-12.528-5.829-19.819c1.715-0.875,5.3,0.119,6.605-1.166
						c0.373-9.05-8.025-9.332-9.715-16.321c1.682-0.78,4.979,0.055,5.829-1.555c0.501-3.521-3.688-3.847-2.33-6.995
						c3.965-0.813,7.689,1.864,9.713,4.275c0.118,7.151,4.023,10.514,5.501,16.303c-0.041,0.188-0.063,0.382-0.044,0.585
						c0.086,0.927,0.174,1.855,0.263,2.783c0.636,6.657,1.294,13.541,0.898,20.24c0,0.004,0.001,0.007,0,0.011
						c-0.876,3.177-0.163,7.944-0.399,11.76h0.084c-0.084,0.746-0.16,1.493-0.233,2.243c-0.22,2.191-0.425,4.261-0.877,6.293
						c-0.032,0.139-0.043,0.277-0.042,0.414C618.601,93.988,615.635,103.746,601.601,102.435z"/>
					<path d="M564.296,39.094c-0.247,2.578,0.918,3.744,3.497,3.498c0.188-0.46,0.415-0.882,0.777-1.166
						C568.91,39.025,566.14,38.061,564.296,39.094z"/>
					<path d="M554.581,42.592c0.747,1.922,3.741,2.625,4.664,0.388C559.499,40.04,554.729,39.918,554.581,42.592z"/>
					<path d="M573.622,42.592c-0.154,1.708,0.477,2.631,1.943,2.72c0.855-0.31,1.55-0.78,1.555-1.943
						C576.532,41.945,574.793,41.468,573.622,42.592z"/>
					<path d="M552.25,50.752C555.779,41.679,542.317,49.624,552.25,50.752L552.25,50.752z"/>
				</g>
				<path d="M72.815,29.619c-2.466-5.553-18.895,1.916-9.981,6.884l0.136-0.221c0.836,0.948,2.104,1.484,3.487,1.484
					c0.325,0,0.656-0.03,0.989-0.09c1.664-0.304,2.952-1.306,3.5-2.678l0.147,0.127C72.079,33.35,73.625,31.44,72.815,29.619z
					 M66.994,35.194c-0.625,0.114-1.384,0.022-1.905-0.377l0.156-0.035c-1.331-1.99,1.327-3.583,3.097-2.409
					c0,0.573,0,1.147,0,1.721l0.248,0.001C68.312,34.735,67.61,35.082,66.994,35.194z"/>
				<path d="M174.263,57.145l0.086,0.009c0-0.688,0-1.376,0-2.065c-0.964-2.943-6.535-3.065-7.572,0l0.181,0.135
					c-0.016,0.021-0.035,0.038-0.05,0.06c-1.601,2.381-1.639,4.812-0.102,6.503c0.889,0.977,2.18,1.505,3.451,1.505
					c0.702,0,1.396-0.161,2.015-0.496C172.955,62.425,175.04,60.951,174.263,57.145z M170.84,60.156
					c-0.53,0.288-1.36,0.109-1.813-0.389c-0.613-0.675-0.295-1.643,0.095-2.354l0.064,0.085c0.724-0.755,1.53-0.071,2.065,0.344
					l0.078-0.047C171.563,58.988,171.391,59.857,170.84,60.156z"/>
				<g>
					<path d="M499.6,40.977c-3.161-1.104-6.064,0.985-7.884,2.385c-0.047,0.021-0.096,0.037-0.143,0.064
						c-5.736,3.329-12.57,4.696-19.277,3.873c-1.012-0.37-2.407-0.355-2.641-1.503c1.312-2.636,4.801-1.58,5.163-4.475
						c0.606-4.839-10.729-11.186-15.488-6.195c-0.801,2.176,0.055,5.858-0.343,7.572c-8.201-2.648-8.963,7.087-6.755,12.032
						c0.007,0.024,0.005,0.048,0.011,0.073c1.357,5.328,5.848,9.22,12.318,10.679c5.242,1.182,9.788,1.77,13.733,1.77
						c2.3,0,4.397-0.2,6.308-0.599c7.158-1.495,11.752-5.778,13.679-12.717C499.938,50.494,502.991,44.437,499.6,40.977z
						 M468.279,40.289c-1.519,0.142-2.66-0.093-3.441-0.688C463.156,36.119,469.295,36.833,468.279,40.289z M465.278,62.3
						c-5.057-1.14-8.582-4.009-9.756-7.9h0.022c-0.847-2.972-1.042-6.559,1.376-7.916c6.148,0.161,8.503,4.117,14.8,4.129v-0.061
						c1.46,0.187,2.925,0.282,4.385,0.282c6.004,0,11.934-1.557,17.078-4.531c1.119-0.203,2.213-0.178,2.975,0.524
						c0.948,2.242-0.804,4.057-1.033,6.195h0.028C492.323,63.303,482.816,66.254,465.278,62.3z"/>
					<path d="M517.842,100.52c-0.393-1.36,0.971-3.198,0.687-5.163c-0.502-3.502-4.169-6.763-4.474-9.637
						c-0.306-2.892,0.839-5.888,1.033-8.604c0.585-8.177,0.216-18.55-0.688-26.502c-0.251-2.206-1.91-3.754-2.754-5.851
						c-0.893-2.218-0.854-5.119-1.72-6.883c-0.58-1.179-2.449-2.238-3.787-3.786c-1.285-1.488-2.085-3.483-3.097-4.475
						c-0.974-0.952-2.697-1.301-4.131-2.409c-1.526-1.179-2.359-2.849-3.441-3.442c-1.048-0.573-3.276-1.315-5.163-2.064
						c-7.921-3.149-15.962-1.469-25.469,0l0.087,0.116c-8.045,1.227-14.469,6.218-18.612,14.476
						c-3.229,6.436-4.991,14.869-4.896,23.288c-2,2.516-0.328,4.327,0.016,7.208c0.58,4.859,0.893,12.725,1.721,16.521
						c0.602,2.754,0.234,5.751,0.688,6.883c0.618,1.539,2.695,1.573,2.409,3.098c-2.016,1.884-5.547,2.255-7.227,4.474
						c-0.403,2.583,0.918,3.441,0.688,5.851c-1.273,4.116-7.546,5.194-7.229,9.981c0.422,6.342,22.274,5.961,30.289,5.507v-0.22
						c0.387,0.025,0.766,0.038,1.137,0.038c3.649,0,6.468-1.174,8.075-3.368l0.081,0.108c5.649-3.611-1.23-7.835-2.41-11.702
						c1.613-2.538,4.161-5.52,2.754-9.981c-4.785-1.276-9.659-6.87-5.163-12.39l-0.109-0.083c4.852-4.51,16.185-7.247,22.315-3.915
						c3.165,1.721,4.327,4.83,3.452,9.239c-0.101,0.508-0.479,1.387-0.811,2.162c-0.177,0.412-0.346,0.805-0.491,1.178
						c-4.19,3.176-6.573,8.161-7.128,14.973c-2.277,2.363-6.84,8.309-5.032,12.245c0.836,1.819,2.706,2.737,5.57,2.737
						c0.414,0,0.849-0.02,1.304-0.058c0.101-0.008,0.195-0.028,0.289-0.053c5.041,0.488,10.107-1.728,15.748-1.254l-0.011-0.096
						c0.016-0.001,0.031-0.001,0.046-0.003c1.086-0.155,2.208-0.17,3.397-0.188c1.806-0.025,3.668-0.057,5.516-0.594v0.193
						c6.271-0.154,10.984-1.866,13.424-5.851C527.476,104.207,518.769,103.738,517.842,100.52z M510.958,63.692
						c-0.183,3.351-2.277,6.971-5.507,5.163C503.94,65.274,508.726,60.377,510.958,63.692z M444.187,69.544
						c3.158,0.627,6.326,1.245,7.572,3.786C449.298,76.035,442.308,74.107,444.187,69.544z M469.655,113.255l0.184,0.137
						c-0.028,0.038-0.06,0.072-0.085,0.113c-1.295,2.117-4.184,2.457-6.175,2.415c-1.789-0.745-1.965-3.104-4.249-3.353
						c-1.618,0.102-0.601,2.839-1.376,3.785c-1.615,0.542-3.221,0.343-4.131-0.688c-0.269-1.531,0.459-2.065,0.344-3.441
						c-3.074-3.498-3.843,2.306-4.817,4.129c-2.252-0.158-4.646-0.173-5.508-1.72c-0.136-2.432,2.232-2.357,2.065-4.819
						c-0.082-0.491-0.566-0.58-0.688-1.032c-4.365-0.234-3.843,4.417-6.195,6.195c-1.115-0.145-2.241-1.016-2.41-1.721
						c-0.858-3.595,5.569-6.212,9.769-6.539c0.144,0.058,0.296,0.102,0.46,0.113c1.013,0.065,2.018,0.096,3.018,0.096
						c4.73,0,9.301-0.677,13.601-1.447v0.205c0.573,0,1.147,0,1.721,0C467.02,107.86,469.841,109.055,469.655,113.255z
						 M468.967,97.422c0.751,4.651-3.835,3.966-6.538,5.163l0.027,0.039c-4.883,0.861-10.104,1.57-15.419,1.225
						c-0.033-0.002-0.063,0.003-0.097,0.003v-0.234c-2.006-0.403-3.041-1.778-2.754-4.474c1.139-2.074,4.72-1.705,7.572-2.065
						l-0.024-0.226c0.515,0.051,1.026,0.079,1.53,0.079c1.262,0,2.497-0.131,3.706-0.259c1.285-0.136,2.497-0.266,3.707-0.239
						c0.009,0,0.02,0,0.03,0v0.301C464.165,97.216,467.34,94.894,468.967,97.422z M490.939,74.857
						c-7.548-4.104-20.313-0.928-26.009,4.449l-0.093-0.125c-4.876,1.475-4.298,8.487-3.099,13.423
						c-0.521,0.487-1.553,0.464-2.027,0.998c-1.033,0.035-2.051,0.142-3.041,0.247c-1.48,0.156-2.891,0.306-4.274,0.215l0.05-0.084
						c-2.866-4.36-6.517-7.938-6.883-14.8c2.863-3.023,12.67-2.846,12.391-7.916c-0.197-3.558-5.808-2.199-8.604-4.131
						c-3.228-2.228-2.789-5.142-5.163-7.571l-0.02,0.014c-0.127-12.468,4.27-32.875,21.703-35.108V24.8c0.573,0,1.146,0,1.721,0
						c1.854,1.818,1.55,5.793,4.818,6.195c2.46-1.219-0.356-3.28,0-5.507c0.694-2.197,5.985-2.213,7.916-1.032
						c1.104,2.147-1.892,4.383,0,6.195c3.438-0.118,2.816-4.296,4.819-5.851c4.511-0.037,7.221,1.728,8.604,4.818
						c-5.018-0.051-12.857,6.418-13.079,9.293c-0.19,2.476,2.683,5.1,4.13,5.163c1.631,0.071,4.01-2.396,5.852-3.786
						c3.64-2.747,5.688-5.521,3.786-10.326c7.02,1.47,8.846,8.134,13.078,12.391c0.062,5.216,3.175,7.095,2.41,12.046
						c-0.22,1.414-1.029,1.541-2.066,3.098c-0.686,1.03-1.032,2.542-1.721,3.442c-2.359,3.088-6.662,4.225-6.539,7.572
						c0.174,4.746,6.13,3.061,11.014,4.13c0.814,5.313-0.246,12.333-1.033,18.586c-0.514,0.403-1.406,0.428-1.721,1.032l0.037,0.061
						c-4.334,0.404-8.444,0.781-12.514-0.184c-0.254-0.371-0.454-0.794-0.77-1.103c0.104-0.254,0.221-0.527,0.343-0.811
						c0.412-0.961,0.839-1.955,1.004-2.785C497.097,81.703,495.313,77.235,490.939,74.857z M494.092,95.013v-0.228
						c2.354,0.629,4.702,0.844,7.032,0.844c2.387,0,4.752-0.22,7.079-0.437l0.365-0.034l-0.02,0.199
						c5.753-1.156,6.109,4.277,2.394,5.331c-0.162-0.034-0.331-0.05-0.506-0.031c-7.766,0.864-14.177,1.136-20.168,0.854
						c-0.454-0.552-1.345-0.667-1.683-1.335C488.678,96.712,492.129,96.605,494.092,95.013z M517.153,113.943
						c-3.036,0.217-3.924-2.854-6.54-3.441c-1.735,0.794,1.046,3.436-0.458,4.659c-1.376,0.341-2.856,0.364-4.411,0.386
						c-1.214,0.017-2.468,0.037-3.725,0.212l-0.011-0.094c-0.075-0.268-0.288-0.4-0.688-0.344c0.804-3.273-0.224-10.29-3.787-5.507
						c0.04,2.034,1.299,3.873,0.345,5.851c-1.45,1.038-4.249,0.683-5.507-0.344c-0.137-2.315,2.085-2.274,2.409-4.13
						c-4.968-5.137-3.349,6.524-8.604,5.506v0.072c-0.047,0-0.093-0.006-0.14-0.002c-1.948,0.164-3.287-0.12-3.582-0.761
						c-0.677-1.472,1.633-5.841,4.663-8.821c0.101-0.099,0.181-0.21,0.251-0.327c0.727-0.92,1.474-1.818,2.776-2.161
						c1.552,0.073,3.127,0.11,4.745,0.11c4.755,0,9.869-0.316,15.723-0.963v0.118c3.813,0.088,7.062,0.74,9.293,2.41
						C521.51,110.183,520.41,113.711,517.153,113.943z"/>
				</g>
			</g>
		</g>
	</g>
</g>
</svg>
