<svg xmlns="http://www.w3.org/2000/svg" width="51" height="48" viewBox="0 0 51 48"><path d="M43 35V23h-6V11h-6V0H18v11h-5v12H7v12H0v13h51V35"/><path fill="#FFF" d="M22 1h6v1h-6zM22 3h6v1h-6zM22 5h6v1h-6zM22 7h6v1h-6zM22 9h6v1h-6zM22 11h6v1h-6zM22 13h6v1h-6zM22 15h6v1h-6zM22 17h6v1h-6zM22 19h6v1h-6zM22 21h6v1h-6zM22 23h6v1h-6zM22 25h6v1h-6zM22 27h6v1h-6zM22 29h6v1h-6zM22 31h6v1h-6zM22 33h6v1h-6zM22 35h6v1h-6zM22 37h6v1h-6zM22 39h6v1h-6zM22 41h6v1h-6zM22 43h6v1h-6zM22 45h6v1h-6zM22 47h6v1h-6z"/></svg>