<svg xmlns="http://www.w3.org/2000/svg" width="72.635" height="72.637" viewBox="0 0 72.635 72.637"><path d="M71.288 43.998l-2.41-.97c-.97-.39-.67-2.72-.67-2.72l-.004-.002c.365-2.902.32-5.803-.096-8.63l.012-.005c0 .002-.347-2.32.616-2.73.962-.413 2.39-1.02 2.39-1.02 1.09-.466 1.598-1.727 1.133-2.818l-2.965-6.95c-.465-1.092-1.727-1.6-2.816-1.134l-2.39 1.02c-.964.41-2.398-1.45-2.398-1.45l-.013.005c-1.753-2.257-3.814-4.3-6.16-6.045v-.003c.002 0-1.887-1.397-1.495-2.368l.968-2.41c.443-1.1-.09-2.35-1.19-2.793l-7.01-2.82C45.693-.287 44.44.247 44 1.347c0 0-.58 1.438-.97 2.41-.39.97-2.72.67-2.72.67l-.002.004c-2.904-.365-5.805-.32-8.632.096l-.005-.012c.003 0-2.32.348-2.73-.615l-1.02-2.39C27.456.42 26.195-.087 25.105.378L18.152 3.34c-1.09.465-1.598 1.728-1.134 2.818l1.018 2.388c.41.962-1.448 2.398-1.448 2.398l.005.013c-2.256 1.75-4.297 3.812-6.043 6.158h-.003s-1.398 1.888-2.37 1.498l-2.408-.97c-1.1-.442-2.353.09-2.795 1.19l-2.82 7.01c-.44 1.1.092 2.352 1.192 2.794 0 0 1.438.58 2.41.97.97.39.67 2.72.67 2.72h.003c-.365 2.903-.32 5.805.096 8.63l-.01.006s.346 2.323-.616 2.733c-.963.41-2.388 1.02-2.388 1.02-1.09.464-1.6 1.727-1.134 2.816l2.962 6.95c.465 1.09 1.728 1.6 2.817 1.134 0 0 1.426-.607 2.39-1.02.963-.41 2.397 1.45 2.397 1.45l.01-.005c1.752 2.257 3.813 4.298 6.16 6.044l-.003.005c.003 0 1.89 1.396 1.5 2.368l-.97 2.41c-.44 1.1.092 2.35 1.19 2.792l7.01 2.82c1.102.442 2.353-.09 2.795-1.19l.97-2.41 2.72-.67v-.005c2.904.365 5.804.318 8.63-.096l.006.01s2.324-.347 2.734.614l1.02 2.39c.464 1.09 1.727 1.6 2.816 1.133l6.95-2.962c1.09-.465 1.6-1.727 1.134-2.818l-1.018-2.388c-.41-.963 1.447-2.398 1.447-2.398l-.003-.012c2.258-1.752 4.3-3.814 6.047-6.162h.002c0 .003 1.396-1.885 2.367-1.494.972.39 2.41.97 2.41.97 1.1.44 2.35-.093 2.793-1.192l2.82-7.01c.44-1.1-.09-2.35-1.192-2.794zm-41.263 7.964c-8.64-3.476-12.828-13.298-9.353-21.938 3.477-8.64 13.3-12.827 21.938-9.35S55.436 33.97 51.962 42.61c-3.475 8.64-13.296 12.828-21.937 9.352z"/></svg>