<?xml version="1.0" encoding="utf-8"?>
<!-- Generator: Adobe Illustrator 19.0.0, SVG Export Plug-In . SVG Version: 6.00 Build 0)  -->
<svg version="1.0" id="Calque_1" xmlns="http://www.w3.org/2000/svg" xmlns:xlink="http://www.w3.org/1999/xlink" x="0px" y="0px"
	 viewBox="-162 276.1 286.7 241.9" style="enable-background:new -162 276.1 286.7 241.9;" xml:space="preserve">
<path d="M-124.5,408.4c5.8,0.5,26.8-2.2,31.7,1c6,4,7.3,16.4,0.8,22c-6.2,5.2-20-6-21.6,8.4c-1.4,13.3,36.2,6.7,43.2,6.2
	c24.4-2,50.4-6,72.3-17.5c15-8,29.2-33.6,16.5-50.8c-13-17.4-52.6-2.4-71,2.5c-13.3,3.5-13,0.4-13,15c0,5.4,6.3,19.8-5.2,13
	c-7.3-4.2-18-22.7-24.3-29.4c-7-7.4-13.6-12.6-21.7-18.3c-4.2-2.9-24.2-12.4-25.5-18.4c-2-10.2,15.7-17.5,23.7-23.8
	c10-8,20.7-15.6,30-24.6c7-7,15-23.4,25-15.3c5.3,4.4,1.2,17.3,7.6,21.5c4,2.5,30-6.5,37-7.5c36-5.3,103.7-18.6,129.5,14.7
	c14.2,18.3,13.4,43.3,13,65c-0.7,23,1.5,46.2,1.2,69.3c-0.3,26.3-1.3,50.3-27.7,61.6c-21.5,9-44.3,9.3-67.4,8.8
	c-49.5-1-100,9.8-149,5c-35.9-3.7-45.6-18.4-42.1-53.2c0.8-8-1.3-25,1.2-32c5-14,23-21,35.7-23.3c5,0.4-2,0.4,0,0L-124.5,408.4z"/>
</svg>
