<?xml version="1.0" encoding="utf-8"?>
<!-- Generator: Adobe Illustrator 15.0.0, SVG Export Plug-In . SVG Version: 6.00 Build 0)  -->
<!DOCTYPE svg PUBLIC "-//W3C//DTD SVG 1.1//EN" "http://www.w3.org/Graphics/SVG/1.1/DTD/svg11.dtd">
<svg version="1.1" id="Calque_1" xmlns="http://www.w3.org/2000/svg" xmlns:xlink="http://www.w3.org/1999/xlink" x="0px" y="0px"
	 width="72.635px" height="72.637px" viewBox="0 0 72.635 72.637" enable-background="new 0 0 72.635 72.637" xml:space="preserve">
<path d="M71.288,43.998c0,0-1.438-0.578-2.409-0.969c-0.971-0.392-0.671-2.721-0.671-2.721l-0.004-0.002
	c0.365-2.902,0.32-5.803-0.096-8.63l0.012-0.005c-0.001,0.001-0.347-2.322,0.616-2.732c0.962-0.412,2.389-1.019,2.389-1.019
	c1.09-0.466,1.599-1.727,1.134-2.818l-2.964-6.95c-0.465-1.092-1.727-1.599-2.816-1.134c0,0-1.426,0.608-2.39,1.019
	c-0.963,0.41-2.397-1.449-2.397-1.449l-0.013,0.005c-1.752-2.257-3.813-4.299-6.16-6.045l0.001-0.003
	c0.002,0-1.887-1.397-1.495-2.368c0.39-0.971,0.968-2.409,0.968-2.409c0.443-1.101-0.09-2.352-1.189-2.794l-7.011-2.819
	c-1.1-0.443-2.352,0.091-2.794,1.191c0,0-0.579,1.438-0.969,2.409c-0.391,0.971-2.721,0.671-2.721,0.671l-0.001,0.004
	c-2.904-0.365-5.805-0.319-8.632,0.096l-0.005-0.012c0.002,0-2.32,0.348-2.731-0.615c-0.411-0.962-1.019-2.388-1.019-2.388
	c-0.466-1.091-1.727-1.599-2.817-1.134L18.152,3.34c-1.09,0.465-1.598,1.728-1.134,2.818c0,0,0.608,1.425,1.018,2.388
	c0.411,0.962-1.448,2.398-1.448,2.398l0.005,0.013c-2.256,1.751-4.297,3.812-6.043,6.158l-0.003-0.001
	c-0.001,0.002-1.398,1.889-2.369,1.499c-0.972-0.391-2.409-0.97-2.409-0.97c-1.1-0.442-2.352,0.091-2.794,1.191l-2.819,7.009
	c-0.441,1.101,0.091,2.352,1.191,2.794c0,0,1.438,0.579,2.409,0.969c0.972,0.391,0.671,2.72,0.671,2.72l0.003,0.001
	c-0.365,2.903-0.319,5.805,0.096,8.631l-0.011,0.005c0,0,0.347,2.323-0.615,2.733c-0.963,0.41-2.388,1.019-2.388,1.019
	c-1.091,0.465-1.6,1.728-1.134,2.817l2.962,6.949c0.465,1.092,1.728,1.6,2.817,1.135c0,0,1.426-0.607,2.389-1.019
	c0.964-0.411,2.398,1.449,2.398,1.449l0.011-0.005c1.751,2.256,3.812,4.297,6.158,6.043l-0.002,0.005c0.002,0,1.89,1.397,1.5,2.369
	c-0.391,0.971-0.97,2.409-0.97,2.409c-0.442,1.1,0.091,2.351,1.19,2.793l7.01,2.82c1.101,0.442,2.352-0.091,2.794-1.19
	c0,0,0.578-1.438,0.969-2.409s2.72-0.672,2.72-0.672l0.002-0.004c2.903,0.365,5.803,0.318,8.63-0.096l0.005,0.012
	c0-0.002,2.323-0.348,2.733,0.613c0.411,0.963,1.019,2.389,1.019,2.389c0.465,1.092,1.728,1.6,2.817,1.134l6.95-2.962
	c1.091-0.465,1.599-1.727,1.134-2.818c0,0-0.608-1.425-1.018-2.388c-0.411-0.962,1.447-2.397,1.447-2.397L56.04,61.68
	c2.258-1.752,4.299-3.814,6.047-6.162l0.002,0.001c0,0.002,1.397-1.886,2.368-1.495c0.972,0.391,2.409,0.969,2.409,0.969
	c1.102,0.442,2.352-0.092,2.794-1.191l2.819-7.009C72.921,45.691,72.39,44.441,71.288,43.998z M30.025,51.962
	c-8.641-3.476-12.828-13.298-9.353-21.938c3.477-8.64,13.299-12.827,21.938-9.351s12.826,13.297,9.352,21.937
	C48.487,51.251,38.666,55.438,30.025,51.962z"/>
</svg>
