<!DOCTYPE svg PUBLIC "-//W3C//DTD SVG 1.1//EN" "http://www.w3.org/Graphics/SVG/1.1/DTD/svg11.dtd" [
	<!ENTITY ns_flows "http://ns.adobe.com/Flows/1.0/">
]><svg xmlns="http://www.w3.org/2000/svg" width="1706" height="378" viewBox="0 0 1706 378"><path d="M84.54 112.246c-.104-.03-.21-.03-.313-.044.253.626.33.567.313.044zM213.585 57.32c-9.62 5.345 1.71-.803 0 0z"/><path d="M34.45.413c-6.637 43.464-8.44 98.628-8.142 142.534.284 39.292-11.39 44.967 36.88 44.743 34.322-.15 68.448 1.055 102.782.73 48.135-.433 56.473-1.282 53.06 45.737-2.347 32.235 8.327 80.922-27.63 85.063-36.345 4.17-69.294.832-105.595.476-40.57-.357-23.076-22.782-23.582-59.2-.18-12.132 66.54-14.232 79.76-10.48 2.693 40.32-68.802-9.633-67.863 34.66.832 39.843 26.62 17.988 54.807 20.55 12.37 1.133 57.62 9.29 66.302-1.788 12.43-15.904-.523-76.903-1.863-95.858-36.12-6.567-177.63-6.85-177.63-6.85s6.494 50.893 2.948 79.628c-2.707 22.037-7.503 60.54-12.134 80.37C.46 363.235 0 369.37 0 369.786c46.14 14.83 228.833 4.525 278.084 4.467l-5.372-90.468c-1.013-37.79-2.208-66.08-1.714-103.866.357-28.454 15.813-41.662-20.576-40.544-60.512 1.846-121.083-6.297-181.665-3.958 4.288-24.436 8.666-58.784 8.74-83.604L219.72 50.8c-7.548 17.927-74.21 14.488-91.45 15.677-13.238.91-32.326-1.815-31.716 12.343-1.084 4.095-1.755 12.106-.207 17.228-1.787 6.924.612 20.517.715 23.05 11.88 1.815 23.82 2.424 35.824 1.83 36.938 2.77 71.408 3.977 108.435.373 43.06-4.214 24.945-45.784 29.858-83.42L270.284 0 34.45.413z"/><path fill-rule="evenodd" clip-rule="evenodd" d="M472.465 151.702c38.102-.4 27.198 49.76 29.388 81.89 2.163 31.49-.16 57.698 2.104 89.32 3.018 41.99-.732 50.26-43.017 52.524-38.085 2.084-76.37 2.74-114.527 2.145-25.552-.417-41.563-.794-41.563-.794s-2.19-67.95-1.61-98.088c.775-40.083 3.004-89.005-.456-123.944 19.223 1.104 38.728.373 57.874-1.368 1.46 32.293-4.52 64.634-2.968 97.004 1.666 35.004-6.188 74.11 28.463 70.41 13.563-.297 57.413 6.134 66.195-7.266 4.586-37.727-1.502-75.52-.954-113.293-7.792-1.225-17.038-1.454-20.068 3.862.657 21.592 3.99 59.313 4.82 73.847.164 2.858 2.005 22.008 1.725 24.3-15.71 2.323-27.807 2.32-52.438-.718-20.335-2.56-5.358-146.31-3.573-146.52l90.605-3.31zM1453.977 164.568c11.076 5.433 7.207 62.727 8.846 75.486 5.746 44.03 4.408 89.353 1.28 134.375-24.714 5.956-45.085 1.25-70.515-.655-37.466-2.74-77.67.865-115.22 2.475 5.057-40.26 10.605-99.85 6.885-145.456 21.945 3.395 84.393-2.68 104.22 1.295 2.418 2.695.78 8.59 1.018 13.146.715 14.785 7.56 57.944 7.56 57.944s-40.424-1.65-48.05 5.613c-4.434 4.17-2.36-6.606-2.866 4.473 22.214 3.214 46.248 10.094 68.608 3.035-3.125-33.26-.477-72.18-2.977-105.47-17.126 2.096-106.25 5.612-123.644 5.09-2.85-9.04.66-43.595 7.032-52.9l157.825 1.548zM1549.923 251.685c3.632-3.903 10.897-2.578 18.522-3.947 2.024 36.196 1.843 92.455 12.924 128.012l124.237 2.04c0-72.29-1.02-211.312-1.02-211.312-4.46-11.822-58.424-9.156-65.093-.148-1.724 49.03-4.047 90.237-2.146 139.312-23.76-2.173-14.352-48.152-18.1-71.57-3.935-24.45-4.173-50-6.254-74.687-40.443-1.4-82.367 10.81-124.416 10.363 1.607 41.69 5.476 166.865 4.584 125.115-2.487-115.45-.928 79.43.955 82.928l60.75-1.29c-8.99-28.11-14.95-98.194-4.944-124.815zm154.612-84.998c-.065.104-.065.238-.12.372.055-.105.055-.224.12-.373zM1008.54 229.482c-.605-19.9-1.84-59.132-3.792-77.726h-126.37c-9.278 20.555-4.72 80.564-7.303 101.893-.925 7.58.064 29.537 2.27 34.694 9.32 21.79 53.306 11.943 53.306 11.943l-1.96-94.223s17.987-.328 25.517 1.963c.927 11.42-4.206 110.297-7.393 112.324-51.498 5.455-88.652-5.033-88.652-5.033s5.73-103.48 5.447-163.562h-55.07c-1.456 22.483-3.915 55.03-4.666 78.622-.89 28.185-11.6 122.585 3.495 145.872 72.423-4.11 124.03-4.146 195.5-.75-1.91-47.526 10.444-118.576 9.67-146.018zM1259.892 197.746s-64.092-4.098-82.437-1.748c-32.264 4.158-64.323 4.18-64.323 4.18l2.068 89.268s19.975 3.872 34.563.887c8.15-1.653 41.253-3.86 41.253-3.86s-1.263-22.146-3.737-32.94c17.48-.24 13.24-2.723 30.872.627 5.89 31.623-.977 52.018-.977 52.018s-23.49 1.273-48.116 2.145c-25.95.92-71.627 5.054-71.627 5.054s-4.35-20.054-3.235-31.644c3.692-38.146 7.385-66.347 5-104.67-1.427-22.617-4.167-45.562.8-68 14.386 1.578 28.326-.06 41.9-4.928-1.636 15.573 9.41 28.528-11.61 29.09-9.472-.355-13.876 4.32-13.225 14.043-.057 29.97-9.228 38.01 25.733 35.272 30.28-2.368 50.383 11.375 49.192-24.687-.54-15.485-1.104-30.97-1.64-46.454-.65-21.874-1.633-65.304-1.633-65.304 11.31-15.247-109.17 22.38-154.017.238-.03.236-.055.468-.08.706l-1.25 328.96c35.062.576 94.034-6.537 119.043-2.762 24.57 3.693 99.21 3.262 99.21 3.262s7.067-65.855 8.263-87.506l.01-91.248zM716.678 216.222s7.788 92.9 5.487 102.912c-2.162 1.732-12.61 2.678-15.704 2.648-11.983-.12-7.058-67.657-6.476-81.398.87-19.962-8.89-51.494-8.89-51.494s18.713 3.878 29.41 2.582c20.037-2.425 40.23-2.815 52.618-13.49 5.938-5.122 1.22-19.4 1.07-30.643-.435-29.02 1.01-54.985-3.693-83.57-1.948-11.81 3.247-30.168.7-35.872-19.507-1.74-22.037-2.604-48.36-1.31-28.945 1.414-65.632 5.6-94.726 2.13 1.382 23.054 4.035 36.847 5.13 75.558 12.258-2.96 83.833-6.837 83.833-6.837l2.37 25.9s-39.92 1.845-56.804 1.518c-23.896-.463-53.215 5.136-53.215 5.136s1.186-39.744-.505-106.443l-52.468 2.653c-3.753-.224-20.787.163-23.498 1.533 4.406 10.17.417 33.13-.71 62.98-1.448 38.102 5.45 138.188 3.422 176.246-1.733 32.53.82 78.468-5.21 110.83h70.86c2.76-41.004 4.524-190.89 4.524-190.89s15.33-1.86 21.834-3.187c2.262 46.47.998 96.527-1.933 143.07-2.016 31.865-13.95 45.226 22.66 49.335 18.164 2.025 67.38 1.672 67.38 1.672L778.454 376s.287-130.794-6.163-169.178c-19.534 4.007-55.612 9.4-55.612 9.4z"/></svg>