<?xml version="1.0" encoding="utf-8"?>
<!-- Generator: Adobe Illustrator 15.0.0, SVG Export Plug-In . SVG Version: 6.00 Build 0)  -->
<!DOCTYPE svg PUBLIC "-//W3C//DTD SVG 1.1//EN" "http://www.w3.org/Graphics/SVG/1.1/DTD/svg11.dtd">
<svg version="1.1" id="Calque_1" xmlns="http://www.w3.org/2000/svg" xmlns:xlink="http://www.w3.org/1999/xlink" x="0px" y="0px"
	 width="51px" height="48px" viewBox="0 0 51 48" enable-background="new 0 0 51 48" xml:space="preserve">
<polygon points="43,35 43,23 37,23 37,11 31,11 31,0 18,0 18,11 13,11 13,23 7,23 7,35 0,35 0,48 51,48 51,35 "/>
<rect x="22" y="1" fill="#FFFFFF" width="6" height="1"/>
<rect x="22" y="3" fill="#FFFFFF" width="6" height="1"/>
<rect x="22" y="5" fill="#FFFFFF" width="6" height="1"/>
<rect x="22" y="7" fill="#FFFFFF" width="6" height="1"/>
<rect x="22" y="9" fill="#FFFFFF" width="6" height="1"/>
<rect x="22" y="11" fill="#FFFFFF" width="6" height="1"/>
<rect x="22" y="13" fill="#FFFFFF" width="6" height="1"/>
<rect x="22" y="15" fill="#FFFFFF" width="6" height="1"/>
<rect x="22" y="17" fill="#FFFFFF" width="6" height="1"/>
<rect x="22" y="19" fill="#FFFFFF" width="6" height="1"/>
<rect x="22" y="21" fill="#FFFFFF" width="6" height="1"/>
<rect x="22" y="23" fill="#FFFFFF" width="6" height="1"/>
<rect x="22" y="25" fill="#FFFFFF" width="6" height="1"/>
<rect x="22" y="27" fill="#FFFFFF" width="6" height="1"/>
<rect x="22" y="29" fill="#FFFFFF" width="6" height="1"/>
<rect x="22" y="31" fill="#FFFFFF" width="6" height="1"/>
<rect x="22" y="33" fill="#FFFFFF" width="6" height="1"/>
<rect x="22" y="35" fill="#FFFFFF" width="6" height="1"/>
<rect x="22" y="37" fill="#FFFFFF" width="6" height="1"/>
<rect x="22" y="39" fill="#FFFFFF" width="6" height="1"/>
<rect x="22" y="41" fill="#FFFFFF" width="6" height="1"/>
<rect x="22" y="43" fill="#FFFFFF" width="6" height="1"/>
<rect x="22" y="45" fill="#FFFFFF" width="6" height="1"/>
<rect x="22" y="47" fill="#FFFFFF" width="6" height="1"/>
</svg>
