<?xml version="1.0" encoding="utf-8"?>
<!DOCTYPE svg PUBLIC "-//W3C//DTD SVG 1.1//EN" "http://www.w3.org/Graphics/SVG/1.1/DTD/svg11.dtd" []>
<svg version="1.1"
	 xmlns="http://www.w3.org/2000/svg" xmlns:xlink="http://www.w3.org/1999/xlink" xmlns:a="http://ns.adobe.com/AdobeSVGViewerExtensions/3.0/"
	 x="0px" y="0px" width="350px" height="100%" viewBox="0 0 1706 378" enable-background="new 0 0 1706 378" xml:space="preserve"
	>
<defs>
</defs>
<path d="M84.54,112.246c-0.104-0.029-0.209-0.029-0.313-0.044C84.48,112.828,84.556,112.769,84.54,112.246z"/>
<path d="M213.585,57.321C203.965,62.665,215.295,56.517,213.585,57.321L213.585,57.321z"/>
<path d="M34.451,0.413c-6.638,43.464-8.44,98.628-8.143,142.534c0.284,39.292-11.389,44.967,36.881,44.743
	c34.321-0.149,68.447,1.055,102.781,0.729c48.135-0.432,56.473-1.281,53.061,45.738c-2.348,32.235,8.326,80.922-27.63,85.063
	c-36.346,4.17-69.295,0.832-105.596,0.476c-40.57-0.357-23.076-22.782-23.582-59.199c-0.179-12.133,66.541-14.233,79.761-10.48
	c2.692,40.318-68.803-9.634-67.864,34.66c0.832,39.842,26.62,17.987,54.807,20.548c12.369,1.134,57.62,9.29,66.302-1.787
	c12.432-15.904-0.522-76.903-1.862-95.858c-36.121-6.567-177.63-6.849-177.63-6.849s6.494,50.892,2.948,79.627
	c-2.707,22.037-7.503,60.541-12.134,80.371C0.46,363.234,0,369.367,0,369.785c46.141,14.83,228.833,4.525,278.084,4.467
	l-5.372-90.468c-1.013-37.789-2.208-66.08-1.714-103.866c0.357-28.454,15.813-41.662-20.576-40.544
	c-60.512,1.846-121.083-6.297-181.665-3.958c4.288-24.436,8.666-58.784,8.741-83.604l142.221-1.012
	c-7.547,17.927-74.208,14.488-91.449,15.677c-13.238,0.91-32.326-1.815-31.716,12.343c-1.084,4.095-1.755,12.106-0.207,17.228
	c-1.787,6.924,0.612,20.517,0.715,23.05c11.879,1.815,23.819,2.424,35.824,1.831c36.938,2.77,71.408,3.976,108.435,0.372
	c43.059-4.215,24.944-45.785,29.857-83.422L270.284,0L34.451,0.413z"/>
<path fill-rule="evenodd" clip-rule="evenodd" d="M472.465,151.702c38.102-0.401,27.198,49.761,29.388,81.89
	c2.163,31.491-0.161,57.698,2.104,89.321c3.018,41.989-0.732,50.259-43.017,52.523c-38.085,2.084-76.369,2.74-114.527,2.145
	c-25.552-0.418-41.563-0.795-41.563-0.795s-2.189-67.95-1.609-98.088c0.774-40.083,3.003-89.005-0.457-123.944
	c19.223,1.104,38.728,0.373,57.874-1.368c1.459,32.293-4.519,64.634-2.968,97.004c1.666,35.004-6.188,74.11,28.463,70.409
	c13.563-0.296,57.413,6.135,66.195-7.265c4.586-37.727-1.502-75.519-0.954-113.293c-7.792-1.226-17.038-1.455-20.068,3.861
	c0.657,21.592,3.989,59.313,4.819,73.847c0.165,2.859,2.006,22.009,1.726,24.301c-15.71,2.323-27.808,2.321-52.439-0.718
	c-20.335-2.559-5.358-146.31-3.573-146.52L472.465,151.702z"/>
<path fill-rule="evenodd" clip-rule="evenodd" d="M1453.977,164.568c11.076,5.433,7.207,62.727,8.846,75.486
	c5.746,44.029,4.408,89.353,1.279,134.375c-24.713,5.957-45.084,1.252-70.514-0.654c-37.466-2.74-77.67,0.865-115.219,2.475
	c5.056-40.26,10.604-99.85,6.884-145.456c21.945,3.395,84.393-2.68,104.221,1.295c2.417,2.696,0.778,8.59,1.017,13.147
	c0.714,14.785,7.56,57.944,7.56,57.944s-40.425-1.651-48.05,5.613c-4.435,4.17-2.36-6.606-2.867,4.473
	c22.214,3.214,46.248,10.094,68.608,3.035c-3.125-33.26-0.477-72.181-2.977-105.472c-17.126,2.097-106.249,5.613-123.644,5.091
	c-2.852-9.039,0.659-43.595,7.031-52.9L1453.977,164.568z"/>
<path fill-rule="evenodd" clip-rule="evenodd" d="M1549.923,251.685c3.632-3.903,10.897-2.578,18.522-3.947
	c2.024,36.196,1.843,92.455,12.924,128.012l124.238,2.041c0-72.291-1.019-211.313-1.019-211.313
	c-4.462-11.822-58.425-9.156-65.094-0.148c-1.724,49.031-4.047,90.237-2.146,139.312c-23.759-2.173-14.352-48.152-18.101-71.571
	c-3.934-24.45-4.172-49.999-6.253-74.686c-40.443-1.399-82.367,10.81-124.416,10.363c1.607,41.691,5.476,166.865,4.584,125.115
	c-2.487-115.45-0.928,79.431,0.955,82.928l60.75-1.291C1545.876,348.389,1539.917,278.306,1549.923,251.685z M1704.535,166.687
	c-0.065,0.104-0.065,0.238-0.119,0.372C1704.47,166.955,1704.47,166.836,1704.535,166.687z"/>
<path fill-rule="evenodd" clip-rule="evenodd" d="M1008.54,229.482c-0.605-19.901-1.841-59.132-3.792-77.726h-126.37
	c-9.278,20.555-4.719,80.564-7.303,101.893c-0.925,7.581,0.064,29.538,2.269,34.695c9.322,21.789,53.307,11.943,53.307,11.943
	l-1.962-94.223c0,0,17.988-0.328,25.518,1.963c0.927,11.421-4.206,110.297-7.393,112.324c-51.498,5.454-88.652-5.034-88.652-5.034
	s5.731-103.48,5.447-163.562h-55.068c-1.457,22.483-3.916,55.03-4.667,78.622c-0.889,28.185-11.6,122.585,3.495,145.872
	c72.424-4.109,124.03-4.145,195.5-0.75C996.96,327.974,1009.314,256.924,1008.54,229.482z"/>
<path fill-rule="evenodd" clip-rule="evenodd" d="M1259.892,197.746c0,0-64.092-4.098-82.437-1.748
	c-32.264,4.158-64.323,4.179-64.323,4.179l2.068,89.269c0,0,19.975,3.872,34.563,0.887c8.15-1.653,41.253-3.859,41.253-3.859
	s-1.263-22.147-3.737-32.94c17.482-0.242,13.241-2.724,30.873,0.626c5.889,31.623-0.977,52.018-0.977,52.018
	s-23.491,1.273-48.116,2.145c-25.948,0.919-71.626,5.054-71.626,5.054s-4.351-20.054-3.235-31.644
	c3.692-38.146,7.385-66.347,4.999-104.671c-1.426-22.616-4.166-45.561,0.801-68c14.386,1.579,28.326-0.06,41.9-4.927
	c-1.636,15.573,9.409,28.528-11.61,29.091c-9.472-0.356-13.876,4.319-13.225,14.042c-0.057,29.971-9.228,38.011,25.733,35.272
	c30.28-2.368,50.383,11.375,49.192-24.687c-0.54-15.485-1.104-30.969-1.64-46.454c-0.651-21.873-1.633-65.303-1.633-65.303
	c11.309-15.247-109.171,22.379-154.017,0.238c-0.031,0.236-0.055,0.468-0.081,0.706L1033.369,376
	c35.061,0.576,94.033-6.537,119.042-2.762c24.568,3.693,99.208,3.262,99.208,3.262s7.068-65.855,8.264-87.506L1259.892,197.746z"/>
<path fill-rule="evenodd" clip-rule="evenodd" d="M716.678,216.222c0,0,7.788,92.9,5.487,102.912
	c-2.162,1.732-12.611,2.678-15.704,2.648c-11.984-0.119-7.059-67.657-6.477-81.398c0.869-19.962-8.889-51.494-8.889-51.494
	s18.712,3.878,29.409,2.582c20.037-2.425,40.231-2.815,52.618-13.49c5.938-5.122,1.219-19.399,1.069-30.643
	c-0.434-29.019,1.012-54.984-3.692-83.57c-1.947-11.808,3.248-30.167,0.701-35.871c-19.507-1.74-22.037-2.604-48.36-1.311
	c-28.945,1.415-65.632,5.6-94.726,2.132c1.382,23.053,4.035,36.846,5.13,75.557c12.258-2.961,83.833-6.837,83.833-6.837
	l2.369,25.902c0,0-39.918,1.844-56.803,1.517c-23.896-0.463-53.215,5.136-53.215,5.136s1.186-39.744-0.505-106.443l-52.468,2.652
	c-3.753-0.224-20.787,0.163-23.498,1.533c4.406,10.17,0.417,33.129-0.711,62.98c-1.447,38.102,5.452,138.188,3.423,176.246
	c-1.732,32.531,0.82,78.468-5.208,110.83h70.858c2.761-41.004,4.525-190.889,4.525-190.889s15.329-1.862,21.834-3.188
	c2.262,46.471,0.998,96.527-1.933,143.071c-2.016,31.864-13.951,45.225,22.659,49.334c18.165,2.025,67.382,1.672,67.382,1.672
	L778.453,376c0,0,0.287-130.794-6.163-169.178C752.756,210.829,716.678,216.222,716.678,216.222z"/>
</svg>
