<?xml version="1.0" encoding="utf-8"?>
<!-- Generator: Adobe Illustrator 15.0.0, SVG Export Plug-In . SVG Version: 6.00 Build 0)  -->
<!DOCTYPE svg PUBLIC "-//W3C//DTD SVG 1.1//EN" "http://www.w3.org/Graphics/SVG/1.1/DTD/svg11.dtd">
<svg version="1.1" id="Calque_1" xmlns="http://www.w3.org/2000/svg" xmlns:xlink="http://www.w3.org/1999/xlink" x="0px" y="0px"
	 width="335.089px" height="238.6px" viewBox="0 0 335.089 238.6" enable-background="new 0 0 335.089 238.6" xml:space="preserve">
<g>
	<g>
		<path fill-rule="evenodd" clip-rule="evenodd" fill="#FFFFFF" d="M60.822,40.989c-4.05,3.241-11.635,0.796-12.833-3.431
			c-0.253-0.895-0.535-4.64-0.787-7.813c-0.586-7.407,0.261-11.145,1.761-14.002c0.201-0.045,0.225,0.09,0.239,0.234
			c3.54-1.116,5.28,1.625,7.375,2.773C60.934,24.02,64.544,32.459,60.822,40.989z"/>
		<path fill-rule="evenodd" clip-rule="evenodd" d="M264.887,15.31c2.101,2.214,0.622,9.008,1.305,12.313
			c-0.769,0.145-1.104-0.151-1.662-0.222C263.678,22.6,260.104,15.323,264.887,15.31z"/>
		<path fill-rule="evenodd" clip-rule="evenodd" fill="#FFFFFF" d="M307.797,40.729c-4.106,5.363-11.287,9.741-15.489,15.794
			c-3.62,0.729-7.3,3.735-11.112,2.952c-3.81-0.783-6.113-6.943-9.795-7.964c0.085-1.403,0.828-2.162,0.915-3.564
			c4.304-2.585,9.868-3.937,13.918-6.772c6.842,0.732,11.125-1.873,18.946-1.605C306.413,39.611,307.123,39.776,307.797,40.729z
			 M293.224,53.195c-1.683-3.728-8.593,0.075-10.415,1.523C287.169,57.727,288.151,54.031,293.224,53.195z"/>
		<path fill-rule="evenodd" clip-rule="evenodd" fill="#FFFFFF" d="M43.797,45.185c0.797,1.532-0.832,3.82-0.412,6.403
			c0.401,2.475,3.562,3.706,3.152,7.317c-1.907,0.974-4.391,0.669-6.634,0.302c0.231-0.635,0.637-1.096,0.932-1.669
			c-1.986-2.363-6.311-2.34-9.28-3.702C28.4,46.354,38.956,46.085,43.797,45.185z"/>
		<path fill-rule="evenodd" clip-rule="evenodd" fill="#FFFFFF" d="M271.557,43.213c0.15,2.05-3.886,2.486-6.148,1.482
			C267.071,43.821,269.113,43.319,271.557,43.213z"/>
		<path fill-rule="evenodd" clip-rule="evenodd" fill="#FFFFFF" d="M61.114,46.676c-1.195,3.288-0.229,8.695-0.827,12.57
			c-4.738-0.196-7.392-2.515-9.533-5.359C51.327,50.203,55.789,46.326,61.114,46.676z"/>
		<path fill-rule="evenodd" clip-rule="evenodd" fill="#FFFFFF" d="M258.821,49.737c2.661,1.013,7.467,1.99,7.63,4.666
			c0.07,1.138-1.294,1.682-1.871,2.625c-1.021,1.669-2.035,6.169-4.684,5.734C258.759,59.214,259.789,53.456,258.821,49.737z"/>
		<path fill-rule="evenodd" clip-rule="evenodd" fill="#FFFFFF" d="M269.307,55.561c2.368,1.255,4.309,2.946,6.208,4.681
			c-1.913,1.276-4.727,0.066-6.168-0.652C269.333,58.246,269.32,56.903,269.307,55.561z"/>
		<path fill-rule="evenodd" clip-rule="evenodd" d="M111.045,62.783c-0.972,2.542-3.903,0.674-5.92,0.532
			c-7.639-0.544-17.692,0.785-22.292-1.206c-0.038-3.36,4.883-2.109,8.514-1.979C98.75,60.394,107.651,59.413,111.045,62.783z"/>
		<path fill-rule="evenodd" clip-rule="evenodd" d="M156.112,66.139c-1.106,0.011-2.212,0.021-3.318,0.032
			c-0.857-3.603,3.447-7.902,5.414-3.845C157.675,63.439,156.558,64.939,156.112,66.139z"/>
		<path fill-rule="evenodd" clip-rule="evenodd" d="M123.606,62.662c-0.148,1.341-0.892,2.099-1.153,3.33
			c-1.377-0.351-2.612-0.847-3.806-1.386C118.839,60.784,121.163,60.553,123.606,62.662z"/>
		<path fill-rule="evenodd" clip-rule="evenodd" d="M203.727,63.307c0.401,1.007,1.917,1.952,1.217,3.306
			c-7.361-0.906-25.519,0.992-33.652,0.563c-2.542-0.134-7.304,0.489-9.731-1.328c4.555-3.048,15.211-1.49,24.396-1.896
			C191.426,63.711,198.049,62.077,203.727,63.307z"/>
		<path fill-rule="evenodd" clip-rule="evenodd" d="M122.391,84.005c-4.47,0.306-10.997-3.155-15.93-5.06
			c-1.525-0.59-3.431-0.654-4.991-1.374c-3.951-1.821-7.432-3.163-12.377-5.332c-2.281-1-10.245-3.039-6.217-5.628
			c0.158-0.001,0.316-0.003,0.474-0.005c7.008,3.865,14.846,6.883,21.91,10.691c2.843,0.692,5.702,1.869,8.799,2.996
			C116.941,81.343,120.498,81.768,122.391,84.005z"/>
		<path fill-rule="evenodd" clip-rule="evenodd" d="M215.619,92.108c-0.795-0.306-1.208-1.003-1.205-2.122
			c0.553-0.005,1.106-0.01,1.659-0.016c10.912-6.59,18.881-16.067,28.208-24.212c4.721,2.265-3.312,7.364-7.014,10.023
			C230.71,80.491,223.941,88.375,215.619,92.108z"/>
		<path fill-rule="evenodd" clip-rule="evenodd" d="M80.593,100.054c-0.878,0.61-2.02-0.419-2.855-1.157
			c1.325-8.502-1.017-17.261-2.597-23.44c1.486-0.461,2.924,0.547,3.573,1.862C81.414,82.791,81.592,95.461,80.593,100.054z"/>
		<path fill-rule="evenodd" clip-rule="evenodd" d="M167.587,100.633c6.866-5.864,13.646-11.812,20.209-17.973
			c6.258,6.146,11.946,12.873,17.964,19.262c-7.319,6.359-14.887,12.474-22.097,18.939c4.837,6.557,10.141,12.639,14.883,19.292
			c-5.055,3.517-9.619,6.906-14.829,10.81c-1.313,0.985-4.116,3.866-4.703,3.838c-1.302-0.062-6.364-7.888-7.197-8.937
			c-1.284-1.615-2.011-2.96-3.365-4.708c-0.714-0.923-3.367-4.442-3.599-4.469c-0.622-0.073-4.753,3.957-5.173,4.316
			c-4.651,4.007-7.675,8.954-9.807,15.265c-6.777-7.292-13.275-14.866-19.654-22.563c6.693-5.329,12.697-11.335,19.272-16.778
			c-5.709-8.141-12.295-15.388-17.771-23.768c1.654-0.144,2.847-0.373,4.499-0.517c4.397-4.92,7.022-11.581,13.608-14.353
			C156.01,85.47,161.713,93.138,167.587,100.633z"/>
		<path fill-rule="evenodd" clip-rule="evenodd" d="M216.875,123.857c1.11,2.548,2.085,5.002,2.911,6.845
			c-0.282,0.963-1.863,0.291-2.604,0.263c-0.827-1.87-1.357-4.041-3.129-4.947C214.186,124.334,215.326,123.526,216.875,123.857z"/>
		<path fill-rule="evenodd" clip-rule="evenodd" d="M199.146,128.77c0.028,1.201-0.389,1.967-0.205,3.321
			c-2.962,0.147-3.646-2.028-4.542-3.986C196.163,126.671,197.473,128.211,199.146,128.77z"/>
		<path fill-rule="evenodd" clip-rule="evenodd" d="M238.028,129.815c1.895,2.664,2.277,6.639,3.182,10.397
			c0.605,2.513,4.048,5.46,1.729,7.095c-2.86-3.729-5.508-10.963-5.855-17.246C237.291,129.875,237.616,129.801,238.028,129.815z"/>
		<path fill-rule="evenodd" clip-rule="evenodd" d="M81.656,136.309c0.227,7.246-2.714,12.611-4.565,18.058
			c-0.524,1.543-0.514,4.259-2.317,5.475c-1.148-7.252,3.929-14.52,5.461-23.519C80.708,136.317,81.182,136.313,81.656,136.309z"/>
		<path fill-rule="evenodd" clip-rule="evenodd" d="M215.945,150.176c-4.875-3.304-8.434-7.192-11.734-12.449
			c0.34-0.136,0.575-0.375,0.704-0.717c0.237-0.002,0.473-0.005,0.711-0.007C208.906,141.256,215.204,144.925,215.945,150.176z"/>
		<path fill-rule="evenodd" clip-rule="evenodd" d="M231.723,139.594c-0.43,3.763,3.437,5.109,2.207,7.563
			c-2.004-1.945-3.339-4.573-5.044-6.824C228.897,139.109,230.995,138.713,231.723,139.594z"/>
		<path fill-rule="evenodd" clip-rule="evenodd" d="M246.074,177.378c-0.388,0.92-0.211,0.937-0.694,1.666
			c-10.258-3.983-14.824-13.767-21.774-21.121c-0.002-0.237-0.005-0.474-0.007-0.711c0.661-0.554,1.828-0.09,2.607-0.025
			C232.222,163.632,238.694,171.542,246.074,177.378z"/>
		<path fill-rule="evenodd" clip-rule="evenodd" d="M205.88,163.31c5.206,1.873,8.063,6.14,12.412,8.886
			c-1.123,2.617-2.333,0.292-3.801-0.911c-2.216-1.813-8.44-5.259-9.066-6.075C205.394,164.011,205.874,164.01,205.88,163.31z"/>
		<path fill-rule="evenodd" clip-rule="evenodd" d="M193.35,166.512c2.118,0.41,5.91,0.879,5.476,2.555
			c-0.571,2.207-5.133,1.351-6.398,0.062C192.514,168.04,192.806,167.153,193.35,166.512z"/>
		<path fill-rule="evenodd" clip-rule="evenodd" fill="#FFFFFF" d="M282.314,199.308c-0.187-1.325-0.974-2.038-1.216-3.307
			c-2.952-0.575-8.598-1.073-8.807-3.708c-0.239-3.037,5.554-2.242,5.902-2.427c2.199-1.167,2.26-3.832,5.407-4.556
			c4.719-1.085,10.776-1.373,16.092-2.526c6.389-1.386,11.06-3.546,17.513-2.777c-0.062,0.54,0.066,0.89,0.483,0.943
			C313.896,195.695,294.866,197.353,282.314,199.308z M283.468,195.978c0.526,0.501,0.98,1.075,1.672,1.405
			c1.66-0.491,2.927-2.223,5.661-2.899c4.269-1.055,12.711-0.026,12.992-4.392C297.697,189.821,287.18,191.225,283.468,195.978z"/>
		<path fill-rule="evenodd" clip-rule="evenodd" d="M151.561,183.509c0.461,0.567,0.713,1.347,0.734,2.364
			c-4.115,0.542-15.527-0.648-18.963-0.054c-0.003-0.395-0.008-0.79-0.012-1.185C135.958,181.509,145.461,183.734,151.561,183.509z"
			/>
		<path fill-rule="evenodd" clip-rule="evenodd" d="M124.776,183.295c1.236,0.415,1.787,1.528,2.395,2.583
			c-0.727,0.618-1.291,1.394-1.875,2.152c-1.313-0.308-2.052-2.035-2.396-2.584C123.163,184.374,124.397,184.254,124.776,183.295z"
			/>
		<path fill-rule="evenodd" clip-rule="evenodd" d="M221.972,184.96c0.006,0.632,0.012,1.264,0.018,1.896
			c-1.856,1.374-4.856,0.09-5.234-2.083C218.277,183.146,220.038,184.494,221.972,184.96z"/>
		<path fill-rule="evenodd" clip-rule="evenodd" d="M211.799,186.955c-1.318,1.955-4.926,0.979-4.993-1.611
			C208.302,183.089,211.325,184.807,211.799,186.955z"/>
		<path fill-rule="evenodd" clip-rule="evenodd" d="M303.793,190.093c-0.28,4.365-8.723,3.336-12.992,4.392
			c-2.734,0.676-4.001,2.408-5.661,2.899c-0.692-0.33-1.146-0.904-1.672-1.405C287.18,191.225,297.697,189.821,303.793,190.093z"/>
		<path fill-rule="evenodd" clip-rule="evenodd" fill="#FFFFFF" d="M263.03,190.488c1.607,0.994,2.297,2.922,3.596,4.231
			c-1.127,2.869-2.074,6.173-5.149,6.687C262.306,199.643,261.686,192.512,263.03,190.488z"/>
		<path fill-rule="evenodd" clip-rule="evenodd" fill="#FFFFFF" d="M277.34,199.592c-0.144,0.213-0.282,0.427,0.005,0.474
			c-0.656,1.818-7.229,0.554-10.658,0.814c-0.331-0.537,0.602-0.896-0.01-0.948C269.6,194.925,272.597,197.301,277.34,199.592z"/>
		<path fill-rule="evenodd" clip-rule="evenodd" fill="#FFFFFF" d="M270.062,206.774c3.001,1.491,3.835,4.096,7.158,4.908
			c0.137,3.178-0.4,8.102-0.831,12.096c-2.064,2.052-7.118,2.93-10.417,1.286c-4.305-3.147-3.683-9.223-2.282-15.384
			C266.468,208.229,266.774,207.87,270.062,206.774z"/>
		<path fill-rule="evenodd" clip-rule="evenodd" d="M41.99,185.075c0.33-19.978,1-43.088,2.776-64.289
			c0.472-5.627,1.373-11.681,2.432-18.038c0.469-2.812,0.14-5.781,0.389-8.774c0.754-9.024,3.636-22.486-1.72-30.796
			c-5.452-1.37-8.893,0.293-12.582-2.011c0.277-1.163,0.765-1.413,0.925-2.379c-5.249,0.268-8.852-4.63-7.917-9.878
			c3.362-4.839,9.632-6.828,17.469-7.281c1.829-7.493-3.804-25.382,3.512-28.95c7.433-3.626,16.22,8.935,17.004,18.086
			c0.423,4.947-0.659,6.35,0.113,11.613c0.165,0.549,1.245,0.167,0.958,1.176c36.881-0.206,72.875,3.048,109.753,1.069
			c8.799-0.472,17.849-1.276,26.774-0.971c18.024,0.618,34.821-4.447,53.074-1.936c-0.59-5.622-0.151-14.366-1.38-20.134
			c2.948-1.456,2.66-3.709,3.251-6.905c0.599-3.239,3.675-5.198,4.424-8.101c2.858-0.021,6.137-0.121,7.592,0.637
			c3.326,1.735,7.24,7.539,8.156,10.113c1.043,2.937-0.295,9.732,0.385,15.403c0.197,1.633,1.726,3.021-0.195,4.269
			c-1.033,0.176-1.339-0.39-2.373-0.213c-2.101-5.106,0.835-16.351-2.348-22.258c-1.691-3.137-7.845-7.473-10.695-2.977
			c-0.646,2.008-1.236,4.201-1.852,4.521c-0.992,6.148-1.685,12.874-1.241,18.737c0.103,1.366,0.07,2.263,0.255,1.894
			c0.318,0.52-1.056,1.41,0.007,0.711c-0.357,1.643-1.073,3.387-0.897,5.223c8.52-0.923,16.934-3.781,23.882-5.92
			c2.958-0.911,4.499-2.007,7.092-1.965c9.827,0.159,18.875,0.957,25.174,5.208c-0.024,2.325-1.768,2.96-3.521,3.59
			c-3.26,2.826-5.708,6.453-9.634,8.626c-2.085,2.217-2.518,4.621-4.912,6.684c-3.655,3.148-10.741,2.857-12.057,3.199
			c-0.516,0.134-1.59,1.048-2.833,1.212c-0.667,2.074,0.018,6.17,1.497,7.57c-3.198,2.456-2.138,7.57-2.272,10.213
			c-0.147,2.899,0.007,3.649-0.381,9.486c-1.091,16.374-0.145,20.93-0.644,31.53c-0.531,11.292,0.312,25.661-0.131,35.317
			c-0.323,7.057-2.153,16.802,1.901,24.869c10.851-0.797,25.694-5.5,34.534-7.208c0.872-0.167,2.132,0.442,3.562,0.677
			c8.19,13.96-15.067,23.663-27.003,26.097c-4.195,0.855-7.403-0.306-11.59,2.483c-0.092,8.857-0.945,15.647-2.847,24.204
			c-4.311-0.043-7.996,2.027-11.126,1.53c-7.723-1.225-10.486-14.014-8.742-21.721c-8.645-2.631-13.24-0.629-21.803,0.449
			c-12.411,1.562-25.17-0.5-32.954-0.866c-5.641-0.266-19.224,1.467-26.298,1.203c-5.296-0.197-9.988,0.872-14.688,0.854
			c-15.608-0.062-23.458,0.399-42.903-0.295c-6.851-0.245-12.321,0.405-16.593-0.076c-9.42-1.063-19.318-3.609-29.759-5.134
			c-4.19-0.612-7.774-1.174-11.837,1.537c0.988,6.481-1.453,6.541-2.503,10.69c-1.423,5.626-0.974,12.818-4.57,17.584
			c-1.063,0.68-2.616,0.877-3.778,1.458c-14.531-2.699-14.491-14.395-11.891-28.564c-11.468-4.99-17.091-2.271-24.508-9.717
			c-1.275-9.066,7.097-14.014,10.536-13.375C29.544,182.31,36.838,184.669,41.99,185.075z M56.577,18.751
			c-2.096-1.148-3.835-3.889-7.375-2.773c-0.014-0.145-0.038-0.279-0.239-0.234c-1.5,2.857-2.347,6.595-1.761,14.002
			c0.252,3.174,0.534,6.919,0.787,7.813c1.198,4.227,8.783,6.672,12.833,3.431C64.544,32.459,60.934,24.02,56.577,18.751z
			 M276.982,40.554c1.328,0.954,0.721,0.806,2.141,0.69c-0.679-0.268,1.031,0.101,0.23-0.713c0.763,0.565,0.443-0.375,0.706-0.481
			c0.356,0.646,1.906-0.335,1.179-0.722c-0.126,0.554-0.708,0.56-0.238,0.002c-0.994,0.172-0.778,0.793-1.184,0.012
			C279.018,40.341,278.404,39.906,276.982,40.554z M305.18,39.569c-7.821-0.268-12.104,2.338-18.946,1.605
			c-4.051,2.835-9.615,4.187-13.918,6.772c-0.086,1.402-0.829,2.161-0.915,3.564c3.682,1.021,5.985,7.181,9.795,7.964
			c3.813,0.783,7.493-2.223,11.112-2.952c4.203-6.053,11.383-10.431,15.489-15.794C307.123,39.776,306.413,39.611,305.18,39.569z
			 M31.555,53.836c2.97,1.361,7.294,1.339,9.28,3.702c-0.295,0.573-0.701,1.034-0.932,1.669c2.244,0.367,4.728,0.672,6.634-0.302
			c0.41-3.611-2.751-4.842-3.152-7.317c-0.419-2.583,1.209-4.871,0.412-6.403C38.956,46.085,28.4,46.354,31.555,53.836z
			 M48.341,49.406c1.051-1.082,1.897-2.364,3.288-3.113c-1.36-2.692-5.252,1.035-4.003,2.646c0.279,0.035,0.672-0.048,0.713,0.229
			C48.208,49.17,48.071,49.364,48.341,49.406z M258.991,189.579c-0.363-1.553-2.328-2.376-2.883-4.001
			c-0.654-1.916-0.396-4.299-0.772-6.392c-1.225-6.804-1.782-9.439-2.514-14.671c-1.713-12.248-1.163-26.494-2.514-39.322
			c-0.858-8.15-1.309-15.471-0.455-22.513c0.296-2.454,1.604-4.558,1.829-6.892c0.777-8.071,0.513-12.271,2.396-21.83
			c1.2-6.093,0.724-12.423,1.47-19.45c0.11-1.032,0.692-2.23,0.679-3.325c-0.018-1.332-1.284-2.176-1.22-3.543
			c0.016-0.348,0.703-1.579,0.456-1.901c-2.193-2.847-10.87-1.358-13.523-1.291c-4.371,0.11-8.132-0.396-11.137,0.345
			c-0.75-0.025-1.685,1.788-2.824,2.161c-10.929-1.209-19.908-0.404-30.104-0.182c-14.795,0.323-29.553,0.723-45.729,1.629
			c-4.604,0.257-8.9,0.897-14.455,0.376c-16.78-1.573-19.913-0.342-31.296-0.882c-8.838-0.418-26.286-2.634-41.013-0.787
			c-2.74,5.704-0.879,6.9-1.984,15.426c1.281,0.082,2.905,0.11,4.039,0.909c0.182,9.788,3.588,20.117,4.309,28.875
			c0.93,11.289-0.874,20.271-1.599,30.591c-0.603,8.575-0.333,17.421-1.151,27.98c-1.204,15.534-3.919,25.448-3.989,37.043
			c-1.073,0.905-2.669,1.293-3.532,2.404c-0.722,12.835,7.043,9.83,12.901,10.542c3.97,0.481,8.525,1.722,13.058,2.243
			c9.06,1.042,16.203,3.958,23.35,4.248c1.285,0.052,2.665-0.793,4.023-0.75c9.841,0.31,16.948,0.556,33.184,0.153
			c13.089-0.325,31.478,0.665,45.03-0.437c2.861-0.232,5.56-1.19,8.284-1.265c4.03-0.112,8.074,0.567,11.382,0.601
			c15.126,0.155,24.509-1.101,43.832-1.847C257.783,200.201,259.997,193.865,258.991,189.579z M265.409,44.695
			c2.262,1.004,6.298,0.568,6.148-1.482C269.113,43.319,267.071,43.821,265.409,44.695z M50.755,53.887
			c2.141,2.844,4.795,5.163,9.533,5.359c0.597-3.875-0.369-9.282,0.827-12.57C55.789,46.326,51.327,50.203,50.755,53.887z
			 M259.896,62.762c2.649,0.435,3.664-4.065,4.684-5.734c0.577-0.943,1.941-1.487,1.871-2.625c-0.164-2.676-4.969-3.653-7.63-4.666
			C259.789,53.456,258.759,59.214,259.896,62.762z M269.347,59.589c1.441,0.718,4.255,1.928,6.168,0.652
			c-1.899-1.735-3.839-3.426-6.208-4.681C269.32,56.903,269.333,58.246,269.347,59.589z M65.505,157.323
			c0.322-3.34,0.191-8.108,0.375-10.195c0.237-2.708,0.839-8.818,0.824-12.808c-0.044-11.955,0.805-22.09,1.812-33.2
			c0.522-5.759,0.231-9.742-0.391-15.876c-0.248-2.45-1.199-2.792-1.705-4.724c-0.867-3.307-0.921-9.16-2.733-13.009
			c1.223,19.561,0.986,36.184-1.113,56.421c-0.294,2.837-1.345,5.753-1.576,8.548c-1.102,13.372,0.867,27.131-0.189,37.718
			c-0.409,4.099,0.207,8.33,0.831,12.317C63.54,174.265,64.702,165.644,65.505,157.323z M276.135,124.231
			c0.022-9.512,0.057-20.715,0.405-31.528c0.274-8.539,1.177-14.701,0.976-21.579c-5.302-9.879-14.973-0.301-16.77,6.089
			c-0.242,4.392,0.362,5.081,0.83,12.316c0.65,10.029,0.184,18.927,0.273,28.203c0.097,9.965,0.928,16.194,0.487,25.831
			c-0.352,7.723-1.688,28.736,1.088,38.862c2.056,1.625,8.532,1.585,11.144,0.367C275.673,164.195,276.083,146.432,276.135,124.231z
			 M57.812,178.996c-0.401-16.199-0.723-34.158,0.567-47.677c1.439-15.071,4.926-39.899,1.582-56.901
			c-1.34-1.426-2.188-3.354-4.071-4.227c-1.337,0.487-2.477,1.17-3.297,2.165c0.548,14.379-1.266,26.86-2.92,41.034
			c-0.337,2.887-1.55,5.543-1.813,8.551c-0.187,2.118,0.041,4.452-0.172,6.638c-1.423,14.59-0.504,28.855-1.578,41.287
			c-0.289,3.341-1.821,18.988,8.467,17.694C58.131,185.466,57.894,182.292,57.812,178.996z M258.415,154.504
			c0.667-12.346,0.211-23.418,0.364-35.794c0.091-7.347,0.061-16.044-0.46-22.987c-0.398-5.3-0.317-9.761-0.357-12.321
			c-0.035-2.377,1.023-4.983-1.021-7.575c-1.958,19.502-4.461,34.74-3.3,50.755c1.123,15.492,1.619,36.634,4.714,46.173
			C259.008,169.535,257.854,164.865,258.415,154.504z M257.888,173.472c0.287,0.047,0.148,0.261,0.005,0.474
			c0.713,0.642,0.353,1.718,0.733,2.363c0.012-0.145,0.033-0.28,0.234-0.239c0.002,0.131,0.196,0.266,0.238-0.002
			c-1.061-0.704,0.409-2.899-0.971-2.361c0.34-0.136,0.575-0.375,0.704-0.718C258.502,172.24,258.621,173.154,257.888,173.472z
			 M317.689,180.951c-0.417-0.053-0.545-0.403-0.483-0.943c-6.453-0.769-11.124,1.391-17.513,2.777
			c-5.316,1.154-11.373,1.441-16.092,2.526c-3.147,0.724-3.208,3.388-5.407,4.556c-0.349,0.186-6.142-0.61-5.902,2.427
			c0.208,2.634,5.855,3.133,8.807,3.708c0.242,1.269,1.029,1.982,1.216,3.307C294.866,197.353,313.896,195.695,317.689,180.951z
			 M18.147,195.024c1.182,1.054,2.645,3.062,4.542,3.985c3.604,1.752,10.698,4.779,15.921,4.112
			c4.516-0.576,5.409-8.384,5.584-10.72c-0.922-0.513-1.416-3.34-2.156-2.349C38.323,186.482,17.826,183.856,18.147,195.024z
			 M270.826,187.805c-0.213-0.917-2.815-1.103-3.79,0.274c1.489,4.304,4.438,0.605,4.26-0.753
			C271.248,187.592,271.036,187.697,270.826,187.805z M51.796,194.223c-0.121,1.188,4.146,3.498,2.881,3.765
			c1.325,0.497,1.907,1.283,3.33,1.153c-0.059-3.282,0.161-4.611-1.01-6.391C54.716,192.134,52.025,191.993,51.796,194.223z
			 M261.477,201.406c3.075-0.513,4.022-3.817,5.149-6.687c-1.299-1.309-1.989-3.238-3.596-4.231
			C261.686,192.512,262.306,199.643,261.477,201.406z M47.8,197.581c0.481,3.226-2.671,6.652-0.168,7.112
			c1.902-1.668,10.49,1.269,11.372-0.584C54.265,203.109,52.365,200.331,47.8,197.581z M266.677,199.933
			c0.612,0.051-0.321,0.411,0.01,0.948c3.43-0.26,10.002,1.004,10.658-0.814c-0.287-0.047-0.148-0.261-0.005-0.474
			C272.597,197.301,269.6,194.925,266.677,199.933z M263.69,209.68c-1.401,6.161-2.022,12.236,2.282,15.384
			c3.298,1.644,8.353,0.766,10.417-1.286c0.431-3.994,0.968-8.918,0.831-12.096c-3.323-0.813-4.157-3.417-7.158-4.908
			C266.774,207.87,266.468,208.229,263.69,209.68z M55.349,218.365c-2.319-6.18-13.869-2.642-12.327-0.117
			c-2.19,5.521,2.429,14.527,6.056,13.452c-0.511,0.705-0.247,0.136-0.95-0.228c0.657,0.409,1.202-0.375,1.666,0.695
			c-0.344-0.262-0.581-0.25-0.708,0.244c5.073-1.395,4.426-11.469,6.038-12.857c-0.343-0.123-0.57,0.929-0.709,0.244
			c0.629-0.428,0.215-0.943,0.939-0.958C55.066,218.792,55.206,218.578,55.349,218.365z"/>
		<path fill-rule="evenodd" clip-rule="evenodd" fill="#FFFFFF" d="M279.815,39.341c0.406,0.781,0.19,0.16,1.184-0.012
			c-0.47,0.558,0.112,0.552,0.238-0.002c0.728,0.387-0.822,1.368-1.179,0.722c-0.262,0.106,0.058,1.046-0.706,0.481
			c0.8,0.814-0.91,0.445-0.23,0.713c-1.42,0.116-0.813,0.264-2.141-0.69C278.404,39.906,279.018,40.341,279.815,39.341z"/>
		<path fill-rule="evenodd" clip-rule="evenodd" fill="#FFFFFF" d="M48.339,49.169c-0.041-0.278-0.434-0.195-0.713-0.229
			c-1.249-1.611,2.643-5.339,4.003-2.646c-1.391,0.749-2.237,2.031-3.288,3.113C48.071,49.364,48.208,49.17,48.339,49.169z"/>
		<path fill-rule="evenodd" clip-rule="evenodd" fill="#FFFFFF" d="M256.522,203.824c-19.323,0.746-28.705,2.002-43.832,1.847
			c-3.308-0.034-7.353-0.713-11.382-0.601c-2.724,0.075-5.423,1.033-8.284,1.265c-13.553,1.102-31.941,0.112-45.03,0.437
			c-16.236,0.403-23.343,0.157-33.184-0.153c-1.358-0.043-2.738,0.802-4.023,0.75c-7.147-0.291-14.29-3.206-23.35-4.248
			c-4.533-0.521-9.088-1.762-13.058-2.243c-5.858-0.711-13.623,2.293-12.901-10.542c0.862-1.11,2.459-1.499,3.532-2.404
			c0.07-11.595,2.785-21.509,3.989-37.043c0.817-10.56,0.548-19.405,1.151-27.98c0.726-10.32,2.529-19.302,1.599-30.591
			c-0.721-8.759-4.127-19.087-4.309-28.875c-1.134-0.799-2.757-0.827-4.039-0.909c1.105-8.525-0.755-9.722,1.984-15.426
			c14.727-1.847,32.175,0.369,41.013,0.787c11.383,0.54,14.516-0.691,31.296,0.882c5.554,0.521,9.851-0.119,14.455-0.376
			c16.176-0.906,30.934-1.306,45.729-1.629c10.196-0.222,19.175-1.027,30.104,0.182c1.139-0.373,2.074-2.186,2.824-2.161
			c3.004-0.741,6.766-0.235,11.137-0.345c2.653-0.067,11.33-1.557,13.523,1.291c0.248,0.322-0.439,1.553-0.456,1.901
			c-0.064,1.368,1.202,2.211,1.22,3.543c0.013,1.095-0.569,2.293-0.679,3.325c-0.747,7.027-0.27,13.357-1.47,19.45
			c-1.884,9.558-1.619,13.759-2.396,21.83c-0.225,2.333-1.532,4.438-1.829,6.892c-0.854,7.042-0.404,14.363,0.455,22.513
			c1.352,12.828,0.801,27.074,2.514,39.322c0.732,5.232,1.289,7.867,2.514,14.671c0.375,2.093,0.118,4.477,0.772,6.392
			c0.555,1.625,2.52,2.449,2.883,4.001C259.997,193.865,257.783,200.201,256.522,203.824z M91.347,60.13
			c-3.63-0.13-8.552-1.381-8.514,1.979c4.6,1.991,14.653,0.662,22.292,1.206c2.017,0.143,4.949,2.01,5.92-0.532
			C107.651,59.413,98.75,60.394,91.347,60.13z M158.208,62.326c-1.967-4.057-6.271,0.242-5.414,3.845
			c1.106-0.011,2.211-0.021,3.318-0.032C156.558,64.939,157.675,63.439,158.208,62.326z M118.647,64.605
			c1.193,0.539,2.428,1.035,3.806,1.386c0.261-1.231,1.005-1.989,1.153-3.33C121.163,60.553,118.839,60.784,118.647,64.605z
			 M148.519,65.264c-0.189-2.943-3.755-2.122-5.951-2.55c-3.388-0.661-8.1-2.119-11.622-0.835c0.011,0.558-0.401,0.701-0.223,1.424
			C138.495,66.403,144.189,65.465,148.519,65.264z M226.785,70.194c1.052-3.088,6.917-2.645,10.626-4.133
			c1.58-0.634,4.928-2.729,3.044-3.821c-7.196,1.7-14.942,7.586-22.916,7.807c-8.93,0.247-17.387-0.684-25.853-1.883
			C203.591,72.62,215.475,72.636,226.785,70.194z M185.956,63.953c-9.185,0.406-19.841-1.153-24.396,1.896
			c2.427,1.817,7.189,1.194,9.731,1.328c8.133,0.429,26.291-1.469,33.652-0.563c0.7-1.354-0.815-2.299-1.217-3.306
			C198.049,62.077,191.426,63.711,185.956,63.953z M114.059,80.293c-3.097-1.127-5.956-2.304-8.799-2.996
			c-7.064-3.808-14.902-6.826-21.91-10.691c-0.158,0.002-0.315,0.004-0.474,0.005c-4.028,2.59,3.936,4.628,6.217,5.628
			c4.945,2.169,8.426,3.51,12.377,5.332c1.561,0.72,3.466,0.784,4.991,1.374c4.933,1.905,11.46,5.366,15.93,5.06
			C120.498,81.768,116.941,81.343,114.059,80.293z M237.267,75.781c3.702-2.659,11.735-7.758,7.014-10.023
			c-9.327,8.145-17.296,17.622-28.208,24.212c-0.553,0.006-1.106,0.011-1.659,0.016c-0.002,1.119,0.41,1.816,1.205,2.122
			C223.941,88.375,230.71,80.491,237.267,75.781z M241.014,95.417c0.031-0.439,0.801-0.153,0.943-0.483
			c1.588-5.668,3.516-14.248,5.718-21.387c0.848-0.519,1.892-1.494,1.157-2.855c-0.738-0.304-0.676,0.07-1.659,0.016
			c-3.891,7.417-3.979,19.399-7.805,26.148C237.418,104.177,242.272,96.282,241.014,95.417z M82.22,72.306
			c-1.973,1.162-0.622,4.794,1.233,4.966c0.609-0.029,0.33-0.929,0.939-0.958c5.908,1.475,9.921,8.427,16.67,8.134
			C94.571,80.919,87.114,74.417,82.22,72.306z M78.714,77.318c-0.649-1.315-2.087-2.323-3.573-1.862
			c1.581,6.179,3.922,14.938,2.597,23.44c0.835,0.738,1.977,1.767,2.855,1.157C81.592,95.461,81.414,82.791,78.714,77.318z
			 M149.83,78.288c-6.586,2.772-9.211,9.433-13.608,14.353c-1.652,0.145-2.845,0.374-4.499,0.517
			c5.476,8.38,12.061,15.626,17.771,23.768c-6.576,5.443-12.58,11.449-19.272,16.778c6.379,7.698,12.877,15.272,19.654,22.563
			c2.131-6.311,5.155-11.258,9.807-15.265c0.419-0.359,4.551-4.389,5.173-4.316c0.231,0.027,2.884,3.546,3.599,4.469
			c1.354,1.748,2.081,3.093,3.365,4.708c0.833,1.049,5.895,8.875,7.197,8.937c0.587,0.028,3.39-2.853,4.703-3.838
			c5.209-3.904,9.774-7.292,14.829-10.81c-4.742-6.654-10.045-12.735-14.883-19.292c7.21-6.465,14.778-12.58,22.097-18.939
			c-6.018-6.389-11.706-13.116-17.964-19.262c-6.563,6.161-13.343,12.109-20.209,17.973C161.713,93.138,156.01,85.47,149.83,78.288z
			 M214.053,126.018c1.771,0.906,2.302,3.077,3.129,4.947c0.742,0.028,2.322,0.7,2.604-0.263c-0.825-1.843-1.8-4.297-2.911-6.845
			C215.326,123.526,214.186,124.334,214.053,126.018z M194.399,128.104c0.896,1.958,1.581,4.133,4.542,3.986
			c-0.184-1.354,0.232-2.12,0.205-3.321C197.473,128.211,196.163,126.671,194.399,128.104z M237.083,130.061
			c0.347,6.283,2.996,13.517,5.855,17.246c2.319-1.634-1.124-4.582-1.729-7.095c-0.905-3.759-1.287-7.734-3.182-10.397
			C237.616,129.801,237.291,129.875,237.083,130.061z M80.234,136.322c-1.532,8.999-6.609,16.266-5.461,23.519
			c1.803-1.215,1.793-3.931,2.317-5.475c1.851-5.447,4.792-10.812,4.565-18.058C81.182,136.313,80.708,136.317,80.234,136.322z
			 M91.856,137.157c-0.561-0.307-1.084-0.65-2.138-0.454c-1.975,7.777-7.828,14.733-11.397,22.391
			c0.671,0.781,0.215,2.019,1.448,2.593C82.885,154.881,89.369,148.619,91.856,137.157z M205.626,137.003
			c-0.238,0.002-0.474,0.004-0.711,0.007c-0.129,0.342-0.364,0.581-0.704,0.717c3.301,5.256,6.859,9.145,11.734,12.449
			C215.204,144.925,208.906,141.256,205.626,137.003z M228.886,140.333c1.705,2.251,3.04,4.879,5.044,6.824
			c1.229-2.454-2.637-3.8-2.207-7.563C230.995,138.713,228.897,139.109,228.886,140.333z M236.565,149.976
			c-1.108,0.002-0.914-1.879-2.625-1.871c0.859,2.28,1.501,5.026,3.12,3.999C237.509,150.786,235.997,150.675,236.565,149.976z
			 M237.317,154.235c0.064-0.484,0.637-0.471,0.701-0.955c-0.997-0.236-0.176-0.938-0.959-1.176c0.13,0.34-0.917,0.587-0.229,0.713
			c0.053-0.257,0.384-0.573,0.472-0.242c-0.267,0.053-0.366,0.267-0.47,0.479c0.347,0.522,0.576-0.304,0.714,0.23
			c-0.132,0-0.268,0.194,0.002,0.236c-0.003-0.131,0.188-0.271,0.236-0.002c-0.715,0.271-0.813,0.22-0.95-0.227
			c-0.012,0.145-0.033,0.28-0.235,0.239c-0.026-0.265,0.341-0.372-0.004-0.474C236.099,153.558,236.915,153.944,237.317,154.235z
			 M226.206,157.187c-0.779-0.065-1.946-0.529-2.607,0.025c0.002,0.238,0.004,0.475,0.007,0.711
			c6.951,7.354,11.517,17.138,21.774,21.121c0.483-0.729,0.306-0.746,0.694-1.666C238.694,171.542,232.222,163.632,226.206,157.187z
			 M205.425,165.21c0.626,0.816,6.85,4.261,9.066,6.075c1.468,1.203,2.678,3.527,3.801,0.911c-4.349-2.746-7.206-7.013-12.412-8.886
			C205.874,164.01,205.394,164.011,205.425,165.21z M102.819,167.864c3.682-0.672,7.443-0.25,9.699-1.99
			c-1.945-2.135-5.256-0.109-7.821,0.075c-3.918,0.282-4.932,1.166-8.365,1.296c-5.792,0.219-11.084-2.196-16.365-1.026
			c-0.404,0.542-0.559,1.329-0.451,2.375C84.956,170.432,94.877,169.313,102.819,167.864z M192.427,169.128
			c1.265,1.29,5.828,2.145,6.398-0.062c0.434-1.675-3.358-2.145-5.476-2.555C192.806,167.153,192.514,168.04,192.427,169.128z
			 M86.544,184.406c2.819,0.444,3.594,1.328,7.126,1.59c9.216,0.683,13.64,0.206,21.404-0.948c0.147-0.869-0.522-0.904-0.49-1.654
			c-12.042,0.804-24.28-0.359-31.623-1.798C80.694,184.742,84.439,184.073,86.544,184.406z M133.321,184.634
			c0.004,0.395,0.008,0.79,0.012,1.185c3.436-0.594,14.848,0.596,18.963,0.054c-0.021-1.017-0.273-1.796-0.734-2.364
			C145.461,183.734,135.958,181.509,133.321,184.634z M189.026,185.042c-11.96,0.918-15.517-2.474-24.642,0.95
			c0.393,3.629,3.699,1.398,5.7,1.13c8.301-1.111,16.657,0.06,24.167-0.945c3.46-0.463,5.689,0.936,8.041-1.737
			c-0.359-0.39,0.091-0.638-0.25-1.42C197.248,181.687,193.461,184.702,189.026,185.042z M122.9,185.446
			c0.344,0.55,1.083,2.277,2.396,2.584c0.583-0.758,1.148-1.534,1.875-2.152c-0.607-1.055-1.158-2.169-2.395-2.583
			C124.397,184.254,123.163,184.374,122.9,185.446z M156.573,187.016c0.731,0.452,1.201,1.17,1.912,1.641
			c1.381-0.288,2.016-1.309,3.302-1.69c0.033-1.469,0.148-3.023-1.215-3.069c-1.407,0.591-3.669,1.992-3.769,2.406
			c-0.559,0.481,0.262-0.107,0.472-0.241C157.209,186.544,156.638,186.532,156.573,187.016z M216.755,184.773
			c0.378,2.173,3.378,3.456,5.234,2.083c-0.006-0.632-0.012-1.264-0.018-1.896C220.038,184.494,218.277,183.146,216.755,184.773z
			 M206.806,185.344c0.067,2.589,3.675,3.565,4.993,1.611C211.325,184.807,208.302,183.089,206.806,185.344z"/>
		<path fill-rule="evenodd" clip-rule="evenodd" d="M282.809,54.719c1.822-1.448,8.731-5.251,10.415-1.523
			C288.151,54.031,287.169,57.727,282.809,54.719z"/>
		<path fill-rule="evenodd" clip-rule="evenodd" d="M130.723,63.303c-0.178-0.723,0.234-0.866,0.223-1.424
			c3.522-1.284,8.234,0.174,11.622,0.835c2.196,0.428,5.762-0.394,5.951,2.55C144.189,65.465,138.495,66.403,130.723,63.303z"/>
		<path fill-rule="evenodd" clip-rule="evenodd" d="M191.686,68.164c8.466,1.199,16.923,2.13,25.853,1.883
			c7.974-0.22,15.72-6.106,22.916-7.807c1.884,1.093-1.464,3.188-3.044,3.821c-3.708,1.488-9.574,1.044-10.626,4.133
			C215.475,72.636,203.591,72.62,191.686,68.164z"/>
		<path fill-rule="evenodd" clip-rule="evenodd" fill="#FFFFFF" d="M274.569,182.792c-2.612,1.219-9.088,1.258-11.144-0.367
			c-2.777-10.126-1.44-31.139-1.088-38.862c0.44-9.637-0.39-15.865-0.487-25.831c-0.09-9.276,0.377-18.174-0.273-28.203
			c-0.468-7.235-1.072-7.924-0.83-12.316c1.796-6.39,11.468-15.968,16.77-6.089c0.202,6.878-0.701,13.04-0.976,21.579
			c-0.348,10.813-0.383,22.016-0.405,31.528C276.083,146.432,275.673,164.195,274.569,182.792z"/>
		<path fill-rule="evenodd" clip-rule="evenodd" fill="#FFFFFF" d="M54.577,187.56c-10.289,1.294-8.756-14.353-8.467-17.694
			c1.074-12.431,0.154-26.697,1.578-41.287c0.213-2.186-0.014-4.52,0.172-6.638c0.264-3.007,1.476-5.664,1.813-8.551
			c1.654-14.174,3.468-26.655,2.92-41.034c0.82-0.995,1.96-1.678,3.297-2.165c1.882,0.874,2.731,2.801,4.071,4.227
			c3.344,17.002-0.143,41.83-1.582,56.901c-1.29,13.519-0.968,31.478-0.567,47.677C57.894,182.292,58.131,185.466,54.577,187.56z"/>
		<path fill-rule="evenodd" clip-rule="evenodd" d="M239.368,96.856c3.826-6.75,3.914-18.731,7.805-26.148
			c0.983,0.054,0.921-0.32,1.659-0.016c0.734,1.362-0.309,2.337-1.157,2.855c-2.203,7.14-4.13,15.719-5.718,21.387
			c-0.142,0.331-0.912,0.044-0.943,0.483C242.272,96.282,237.418,104.177,239.368,96.856z"/>
		<path fill-rule="evenodd" clip-rule="evenodd" d="M101.063,84.449c-6.749,0.293-10.762-6.66-16.67-8.134
			c-0.61,0.029-0.33,0.929-0.939,0.958c-1.855-0.172-3.207-3.805-1.233-4.966C87.114,74.417,94.571,80.919,101.063,84.449z"/>
		<path fill-rule="evenodd" clip-rule="evenodd" fill="#FFFFFF" d="M258.83,172.988c-0.128,0.343-0.364,0.582-0.704,0.718
			c1.38-0.538-0.09,1.658,0.971,2.361c-0.042,0.268-0.236,0.133-0.238,0.002c-0.201-0.042-0.222,0.094-0.234,0.239
			c-0.381-0.645-0.02-1.721-0.733-2.363c0.144-0.213,0.282-0.427-0.005-0.474C258.621,173.154,258.502,172.24,258.83,172.988z"/>
		<path fill-rule="evenodd" clip-rule="evenodd" d="M79.769,161.688c-1.233-0.574-0.776-1.813-1.448-2.593
			c3.57-7.658,9.423-14.614,11.397-22.391c1.054-0.196,1.577,0.147,2.138,0.454C89.369,148.619,82.885,154.881,79.769,161.688z"/>
		<path fill-rule="evenodd" clip-rule="evenodd" d="M237.059,152.104c-1.618,1.027-2.26-1.719-3.12-3.999
			c1.711-0.008,1.518,1.873,2.625,1.871C235.997,150.675,237.509,150.786,237.059,152.104z"/>
		<path fill-rule="evenodd" clip-rule="evenodd" d="M236.595,153.057c0.345,0.103-0.022,0.209,0.004,0.474
			c0.202,0.042,0.223-0.094,0.235-0.239c0.138,0.447,0.235,0.499,0.95,0.227c-0.048-0.269-0.239-0.128-0.236,0.002
			c-0.27-0.042-0.135-0.236-0.002-0.236c-0.138-0.535-0.367,0.292-0.714-0.23c0.104-0.212,0.203-0.426,0.47-0.479
			c-0.088-0.331-0.418-0.016-0.472,0.242c-0.688-0.125,0.359-0.373,0.229-0.713c0.784,0.237-0.038,0.94,0.959,1.176
			c-0.064,0.483-0.637,0.471-0.701,0.955C236.915,153.944,236.099,153.558,236.595,153.057z"/>
		<path fill-rule="evenodd" clip-rule="evenodd" d="M79.517,168.593c-0.108-1.045,0.047-1.832,0.451-2.375
			c5.28-1.17,10.573,1.246,16.365,1.026c3.433-0.13,4.446-1.014,8.365-1.296c2.565-0.185,5.875-2.21,7.821-0.075
			c-2.256,1.74-6.018,1.318-9.699,1.99C94.877,169.313,84.956,170.432,79.517,168.593z"/>
		<path fill-rule="evenodd" clip-rule="evenodd" d="M82.962,181.596c7.342,1.439,19.58,2.602,31.623,1.798
			c-0.032,0.75,0.638,0.786,0.49,1.654c-7.764,1.153-12.188,1.63-21.404,0.948c-3.532-0.262-4.308-1.146-7.126-1.59
			C84.439,184.073,80.694,184.742,82.962,181.596z"/>
		<path fill-rule="evenodd" clip-rule="evenodd" d="M202.042,183.02c0.341,0.782-0.108,1.03,0.25,1.42
			c-2.352,2.673-4.581,1.274-8.041,1.737c-7.51,1.004-15.866-0.166-24.167,0.945c-2.001,0.268-5.307,2.5-5.7-1.13
			c9.125-3.424,12.681-0.031,24.642-0.95C193.461,184.702,197.248,181.687,202.042,183.02z"/>
		<path fill-rule="evenodd" clip-rule="evenodd" d="M157.275,186.062c-0.21,0.134-1.031,0.723-0.472,0.241
			c0.1-0.415,2.362-1.815,3.769-2.406c1.363,0.046,1.248,1.6,1.215,3.069c-1.286,0.382-1.921,1.402-3.302,1.69
			c-0.711-0.471-1.181-1.188-1.912-1.641C156.638,186.532,157.209,186.544,157.275,186.062z"/>
		<path fill-rule="evenodd" clip-rule="evenodd" fill="#FFFFFF" d="M42.038,190.052c0.74-0.991,1.233,1.836,2.156,2.349
			c-0.175,2.336-1.068,10.144-5.584,10.72c-5.223,0.667-12.317-2.359-15.921-4.112c-1.897-0.924-3.36-2.932-4.542-3.985
			C17.826,183.856,38.323,186.482,42.038,190.052z"/>
		<path fill-rule="evenodd" clip-rule="evenodd" fill="#FFFFFF" d="M271.295,187.326c0.178,1.358-2.771,5.057-4.26,0.753
			c0.975-1.377,3.577-1.19,3.79-0.274C271.036,187.697,271.248,187.592,271.295,187.326z"/>
		<path fill-rule="evenodd" clip-rule="evenodd" fill="#FFFFFF" d="M56.997,192.75c1.171,1.779,0.952,3.108,1.01,6.391
			c-1.422,0.13-2.004-0.656-3.33-1.153c1.264-0.268-3.002-2.577-2.881-3.765C52.025,191.993,54.716,192.134,56.997,192.75z"/>
		<path fill-rule="evenodd" clip-rule="evenodd" fill="#FFFFFF" d="M59.003,204.108c-0.881,1.853-9.47-1.084-11.372,0.584
			c-2.502-0.46,0.649-3.886,0.168-7.112C52.365,200.331,54.265,203.109,59.003,204.108z"/>
		<path fill-rule="evenodd" clip-rule="evenodd" fill="#FFFFFF" d="M55.354,218.839c-0.724,0.014-0.31,0.53-0.939,0.958
			c0.139,0.685,0.366-0.367,0.709-0.244c-1.612,1.388-0.965,11.463-6.038,12.857c0.128-0.494,0.364-0.506,0.708-0.244
			c-0.464-1.07-1.009-0.286-1.666-0.695c0.703,0.364,0.439,0.933,0.95,0.228c-3.627,1.075-8.247-7.93-6.056-13.452
			c-1.542-2.524,10.007-6.063,12.327,0.117C55.206,218.578,55.066,218.792,55.354,218.839z"/>
	</g>
</g>
</svg>
