<?xml version="1.0" encoding="utf-8"?>
<!-- Generator: Adobe Illustrator 15.0.0, SVG Export Plug-In . SVG Version: 6.00 Build 0)  -->
<!DOCTYPE svg PUBLIC "-//W3C//DTD SVG 1.1//EN" "http://www.w3.org/Graphics/SVG/1.1/DTD/svg11.dtd">
<svg version="1.1" id="Calque_1" xmlns="http://www.w3.org/2000/svg" xmlns:xlink="http://www.w3.org/1999/xlink" x="0px" y="0px"
	 width="225px" height="341px" viewBox="0 0 225 341" enable-background="new 0 0 225 341" xml:space="preserve">
<g id="Calque_2">
	<polygon fill="#4F454E" points="109,255.5 42.5,257 40.5,152.5 74.5,153 109.5,145.5 134,139 147.625,130.689 160,106.5 162.5,93
		159.5,76.5 148,60 127,51.5 95.5,59 86.592,72.692 80.5,88 79,111.5 4,107.612 21.5,61 30.5,49 63.5,22.5 83.5,12 119.5,6.5
		155,11.5 183.5,26 204.5,41 215,64 220,83.5 219,101.5 217,118 212,135 193.5,164 176.5,180 158,191.5 127.889,194.152
		113.5,199.5 107.544,204.477 110,206 111,250.5 	"/>
	<rect x="41" y="269.5" fill="#4F454E" width="73.5" height="64"/>
</g>
<g id="Calque_1_1_">
	<g>
		<g>
			<path fill="#040506" d="M50.762,58.725c-2.545,4.338-7.497,6.269-14.271,6.376c-0.028-1.591-0.505-2.733-0.304-4.554
				c1.898-0.835,3.695-1.771,6.68-1.519C44.693,56.875,48.434,56.479,50.762,58.725z"/>
			<path fill="#040506" d="M55.62,66.012c-4.72,1.491-7.714,5.509-13.968,4.555c-0.366-1.051-0.556-2.279-0.607-3.644
				c1.004-1.461,3.847-1.191,6.681-2.125C50.701,63.816,56.031,59.541,55.62,66.012z M47.422,69.352
				c0.55-0.765,1.878-0.753,2.429-1.518C48.712,67.822,47.074,68.886,47.422,69.352z"/>
			<path fill="#040506" d="M57.688,27.773C54.383,30.795,35.66,45.747,33.454,47.49c-7.869,6.214-11.519,19.029-16.701,30.365
				c-1.96,4.288-5.916,11.923-5.466,17.004c0.112-0.517-0.237-0.573-0.607-0.607c0.583,2.629-1.821,6.17-0.911,9.109
				c3.058,4,10.779,1.528,17.004,2.429c3.302-3.12,6.239-5.002,6.984-10.324c7.696-7.109,14.653-16.652,23.988-22.774
				c3.301-2.165,7.295-3.196,10.932-5.466c3.409-2.128,7.126-3.716,10.627-5.769c3.607-2.116,7.061-4.34,10.931-5.466
				c4.198-1.221,8.895-0.987,12.45-3.947c-2.664-3.026-8.75-5.078-13.968-6.68c-4.935-1.516-11.053-2.379-14.879-2.733
				c-3.226-0.299-6.026,1.076-8.806,2.125c-1.181-1.045-3.394-1.061-4.251-2.429c0.206-1.92,0.43-3.821,2.125-4.251
				c0.968-6.32,4.306-10.269,6.68-15.182c-1.113,0-9.94,3.507-11.174,4.395L57.688,27.773z M57.641,24.161
				c5.662-2.822,19.226-10.711,25.915-12.502c2.528-0.677,5.437-0.616,8.199-1.214c5.165-1.12,10.353-2.96,16.093-3.948
				c3.177-0.546,6.938-1.362,9.716-1.519c2.006-0.112,3.959,0.846,6.074,0.911c8.881,0.273,20.535,1.43,29.453,2.733
				c2.816,0.411,5.7,3.075,8.502,4.251c2.733,1.146,5.37,1.551,7.895,2.732c11.396,5.334,21.92,12.221,30.669,21.255
				c3.622,3.741,8.678,6.233,10.931,9.717c1.344,2.077,1.441,4.432,2.43,6.984c0.869,2.243,2.407,4.283,3.34,6.681
				c0.936,2.404,1.289,5.03,2.125,7.591c0.635,1.938,1.899,3.614,2.43,5.466c2.056,7.167,2.056,15.294,1.52,23.077
				c-0.221,3.182-1.443,6.233-1.822,9.413c-0.188,1.581,0.222,3.195,0,4.555c-0.51,3.118-2.643,6.236-3.342,9.413
				c-1.318,6.004-2.164,11.788-3.947,17.308c-2.159,6.692-7.311,13.57-11.234,18.826c-3.421,4.583-5.591,7.716-10.021,12.146
				c-7.647,7.648-14.772,15.238-25.81,20.041c-6.017,2.618-14.216,3.938-21.255,6.377c-2.24,0.775-4.421,2.202-6.376,2.732
				c-4.992,1.355-9.776,1.586-14.271,2.732c-4.261,1.087-8.256,2.493-12.451,4.251c-0.945,18.408,1.201,37.203,0,55.872
				c-6.581-0.268-12.358-3.556-19.434-3.645c-16.503-0.203-33.395,1.818-50.102,2.431c-0.736-0.984-1.556-1.886-2.732-2.431
				c1.023-8.732-0.983-17.734-1.215-27.023c-0.257-10.313,2.691-20.719,2.125-31.275c-0.321-6-1.28-11.97-1.518-17.916
				c-0.256-6.403,0.796-12.887,0.304-19.129c-0.325-4.128-2.785-7.591-0.911-11.235c7.676-1.773,15.373,0.548,23.381,0.607
				c26.817,0.197,55.708-5.066,74.09-16.397c1.866-1.15,3.57-3.019,5.465-4.555c1.963-1.589,4.344-2.761,5.771-4.251
				c2.862-2.993,6.093-8.843,7.896-13.36c2.172-5.446,4.924-11.199,5.162-17.308c0.568-14.64-7.578-22.254-13.058-31.58
				c-5.698-1.501-9.996-5.947-15.485-7.288c-3.719-0.908-9.492-1.534-13.969-0.911c-2.964,0.413-5.643,0.664-8.376,1.555
				c-3.219,1.048-3.854,2.167-7.11,2.696c-6.821,1.107-12.916,8.08-16.093,13.664c-6.526,11.471-4.847,24.72-5.162,41.6
				c-2.529-0.034-4.591-1.644-6.984-1.822c-3.693-0.274-7.575,0.591-11.235,0.607c-5.893,0.027-11.444-1.327-17.308-1.822
				c-6.999-0.591-14.071-0.35-20.952-1.215c-3.822-0.48-7.468-0.985-11.235-0.911c-3.299,0.065-6.876,0.802-9.717-1.518
				c0.639-13.913,5.486-26.721,10.628-37.653c0.669-1.422,0.873-2.971,1.518-4.251c0.805-1.596,2.297-2.736,3.037-4.251
				c0.794-1.629,1.052-3.415,1.822-4.858c4.764-8.941,26.627-24.934,34.559-30.952L57.641,24.161z M86.592,15.303
				c0.165-0.188-2.19,0.733-3.947,0c-0.635,1.162-2.078,3.393-2.733,5.466c-6.263,3.352-11.981,7.25-11.539,17.308
				c13.208,0.051,22.363,4.156,32.794,6.984c7.055,7.279,21.483,5.329,34.616,6.376c13.916-3.189,20.979-20.042,15.486-36.134
				c-3.082-3.906-12.894-4.218-17.612-2.125c0.464,3.747-0.843,6.913-3.644,8.806c-2.533,1.453-6.133-1.356-8.502,0.607
				c3.066,1.983,6.115,3.507,6.983,6.984c1.418,5.683-4.853,14.234-10.324,14.575c-6.342,0.396-12.003-5.602-18.219-5.466
				c-2.967,2.84-10.334,2.676-12.45-0.911c-0.21-2.624-0.421-5.248-0.304-8.199c1.956-4.32,7.931-4.62,12.45-6.376
				c3.011-4.953,7.179-10.134,12.146-12.146C102.577,9.269,94.447,14.781,86.592,15.303z M118.477,12.267
				c-4.494,2.187-8.624,4.738-11.844,8.198c-0.124,2.002-1.33,2.921-1.518,4.858c-2.646,1.808-4.901,4.006-8.502,4.858
				c-1.146-0.372-2.019-1.018-3.644-0.911c-1.272,2.324-0.51,5.874,2.126,6.073c0.766-3.729,6.004-3.011,8.806-4.858
				c1.109-0.732,1.329-2.179,2.125-3.036c4.591-4.941,10.007-10.505,19.433-10.324c1.559,0.029,2.74,1.433,4.555-0.304
				C128.025,12.973,122.365,13.593,118.477,12.267z M213.518,117.329c0.455-1.506,1.568-2.874,1.821-4.251
				c0.502-2.726-0.362-6.602,0.304-10.324c0.489-2.735,1.707-5.269,1.822-7.895c0.211-4.773,0.655-13.936-0.304-19.434
				c-0.349-1.999-2.052-5.551-2.125-5.77c-2.583-7.558-4.24-15.873-8.503-21.559c-5.754-7.675-16.188-14.02-24.596-19.434
				c-3.201-2.061-5.865-4.922-8.502-6.377c-4.588-2.532-10.767-3.985-15.789-5.465c-0.074,15.985-3.021,31.272-13.361,37.956
				c1.455,1.391,4.556,0.158,6.681,0.303c8.656-4.805,10.277-16.646,14.88-25.506c2.399-3.23,8.93-3.087,13.057-1.214
				c3.586,1.627,6.736,6.693,9.717,8.806c1.74,1.234,3.826,1.544,5.162,2.733c1.033,0.92,1.712,2.708,3.037,4.251
				c1.285,1.497,3.19,2.598,4.25,3.948c3.111,3.962,5.074,10.866,8.502,16.397c0.889,1.432,2.539,2.574,3.341,3.947
				c1.864,3.193,2.928,11.149,2.733,17.004c-0.148,4.424-0.422,9.675-1.215,13.36c-0.337,1.565-1.318,2.696-1.519,4.251
				c-0.802,6.212-0.333,12.66-1.214,19.13C213.43,121.472,212.969,119.142,213.518,117.329z M116.957,25.323
				c-1.762-0.03-2.635,1.992-4.858,1.215c-0.049,1.423-0.063,1.727-0.304,2.429c4.79,0.878,7.371,3.964,7.287,9.716
				C124.869,36.592,122.547,25.418,116.957,25.323z M94.184,206.905c-1.242-0.378-0.981-2.259-2.429-2.431
				c-3.55,1.889-5.539,4.797-9.717,5.162c-3.341,0.293-6.185-2.244-9.109-2.125c-1.492,0.062-2.863,1.484-4.251,1.822
				c-2.866,0.697-6.392,0.561-8.806-0.303c-2.388-0.854-4.338-4.28-7.591-2.43c-0.344,2.672,2.369,2.287,2.125,4.858
				c-3.212,0.433-6.829,0.458-9.11,1.822c0.306,5.518-1.615,11.028-0.911,17.915c3.854-0.008,6.627,1.064,10.324,1.214
				c6.501-1.495,3.471-12.521,10.932-13.058c2.536,2.541,0.386,7.187,2.125,10.021c1.981,3.227,7.038,2.321,10.02,0.607
				c-1.929-4.655,1.881-8.012,2.733-12.45c1.309,0.614,3.545,0.301,4.555,1.214c0.568,2.971,0.788,6.15,0.304,9.413
				c1.253,0.567,1.779,1.864,2.732,2.733c5.574-2.768,14.883,1.027,13.057,7.287c-5.862-1.654-9.814-3.49-16.701-4.555
				c-4.625-0.715-9.377,2.684-13.968,1.822c-2.623-0.492-4.494-3.166-6.68-4.251c-3.936,5.454-11.626,7.034-19.737,4.555
				c0.219,4.638,1.591,10.206,1.519,16.701c18.621,2.892,44.237-3.025,62.248,1.214c-0.565-4.115,1.673-8.202,1.518-12.753
				c-0.08-2.351-0.988-4.72-1.214-7.288c-0.227-2.564,0.23-5.355,0-7.895c-0.145-1.597-0.822-3.272-0.911-4.859
				c-0.319-5.691,1.501-11.299,0.304-16.396c-0.469-1.996-1.684-3.324-1.822-5.466c1.988-0.368,3.038-1.538,4.858-1.821
				c2.965-0.463,6.087,0.66,9.108,0c2.838-0.621,5.349-2.431,8.199-3.037c1.899-0.404,3.854-0.144,5.77-0.607
				c5.113-1.24,10.742-3.581,16.396-5.162c5.844-1.634,12.527-3.027,17.004-5.465c1.323-0.721,2.303-2.048,3.645-2.732
				c1.572-0.804,3.71-0.998,5.162-2.125c2.822-2.192,5.75-5.873,8.502-9.11c5.586-6.569,10.275-9.597,14.574-17.308
				c0.914-1.638,1.412-3.302,2.43-4.858c2.302-3.521,7.55-9.41,8.805-13.968c0.379-1.376-0.006-3.007,0.305-4.555
				c0.293-1.463,1.811-3.1,0.606-4.555c-1.849,1.088-2.342,3.528-2.733,6.073c-2.742,4.139-5.006,8.758-6.68,13.968
				c-1.395,1.673-3.326,2.534-5.162,4.555c-1.838,2.024-2.669,5.191-4.555,7.288c-3.465,3.851-13.161,9.411-18.521,4.251
				c-3.733-5.393-0.947-13.095,3.34-16.701c2.146-1.806,4.634-2.693,6.68-5.162c4.875-5.881,9.471-14.915,12.146-24.292
				c0.938-3.291,2.254-6.648,2.732-9.414c2.611-15.112,0.846-31.488-5.465-44.332c-3.143-2.437-5.51-7.229-9.109-8.199
				c-2.688,7.992,4.936,11.826,7.59,17.611c0.775,1.69,0.506,3.429,0.912,5.163c0.424,1.815,1.491,3.26,1.822,4.858
				c1.134,5.47,1.35,11.375,1.822,17.612c0.798,10.55-6.502,17.317-7.288,27.936c-1.489,0.839-2.044,2.612-3.644,3.34
				c-1.623,4.304-4.379,7.396-8.199,10.931c-2.125,1.966-4.51,4.656-6.377,5.162c-4.844,1.313-10.271-1.437-10.932-5.466
				c-0.433-2.641,1.188-4.715,0.911-7.288c-4.215,1.332-4.792,8.864-2.125,12.45c2.418,1.124,5.618,1.467,8.502,2.125
				c1.622,4.779-1.501,9.606,0.606,14.271c3.186,1.066,5.934,2.57,8.502,4.251c-1.221,1.207-1.903,2.955-3.643,3.644
				c-4.51-1.105-10.967-1.994-12.146-6.377c-0.938-3.481,1.087-6.124,1.519-9.717c-8.684-1.593-13.935-8.798-10.323-18.826
				c1.61-4.477,5.594-9.793,8.806-13.968c1.36-1.77,3.308-4.109,5.161-6.376c1.795-2.194,4.402-4.686,4.859-6.377
				c0.348-1.289-0.171-2.78,0-3.947c0.305-2.094,1.608-4.08,1.821-5.769c0.603-4.799,0.181-9.576-0.606-13.36
				c-1.445-6.954-6.817-11.861-7.592-18.523c-0.391-3.361,1.028-4.617,2.732-6.68c2.156-0.273,4.018-0.841,6.68-0.607
				c-0.49,2.11,1.448,1.791,1.822,3.037c2.962,5.162,5.962,9.451,8.502,15.79c0.863,2.155,2.133,4.745,2.429,6.68
				c2.308,15.076-3.506,27.984-8.502,36.134c-3.668,5.985-11.045,10.781-11.538,18.522c6.637-2.879,12.573-8.718,16.701-15.182
				c1.533-2.401,1.137-5.882,3.037-9.109c4.068-6.911,6.035-14.358,5.161-23.381c-0.906-9.375-3.499-16.908-7.287-24.595
				c-3.854-3.534-6.418-8.359-6.377-15.79c1.3-2.445,4.071-3.418,6.681-4.555c0.1,1.269,0.249,1.042,2.125,0.911
				c9.036,4.797,14.186,14.962,17.309,26.721c0.416,1.567,0.416,3.549,0.912,5.162c0.557,1.813,1.645,3.122,1.822,4.555
				c0.24,1.951-0.046,4.781-0.304,7.287c-0.349,3.39-0.419,7.256-0.911,10.324c-0.566,3.53-2.14,6.865-2.732,10.021
				c-0.308,1.631,0.017,3.115-0.305,4.555c-1.97,8.849-6.011,15.507-11.539,22.167c-4.544,5.477-6.863,11.63-11.841,13.664
				c-0.953,5.298,2.274,5.697,5.466,3.947c1.637-2.286,4.659-3.753,6.68-6.376c0.887-1.151,1.24-2.813,2.125-3.947
				c1.121-1.434,2.896-2.222,3.949-3.644c4.014-5.422,6.875-14.446,8.805-22.167c0.705-2.817,2.273-5.602,2.43-7.895
				c0.086-1.285-0.509-2.62-0.607-3.948c-0.322-4.355,1.223-8.031,1.822-11.842c0.975-6.189,1.409-13.314,0.911-17.308
				c-0.591-4.739-4.649-8.179-4.251-13.664c-3.803-8.547-9.713-14.984-15.182-21.863c-7.945-1.767-10.819-13.017-20.648-9.109
				c-3.568,5.61-5.072,14.859-9.717,20.648c-1.684,2.099-7.311,4.639-7.592,7.288c-0.204,1.932,3.234,5.76,4.859,8.199
				c1.943,2.919,3.861,5.425,4.857,7.895c0.68,1.684,0.648,3.79,1.215,5.466c0.673,1.991,1.878,3.459,2.125,4.858
				c0.307,1.742,0.012,4.045,0,6.073c-0.012,2.232,0.548,4.514,0,7.895c-0.618,3.806-3.846,9.022-6.072,13.664
				c-3.183,6.634-6.623,11.929-11.843,15.79c-1.294,0.957-2.88,1.434-4.251,2.429c-1.796,1.303-3.236,3.19-4.857,4.251
				c-11.24,7.361-28.333,11.403-43.727,14.272c-3.986,0.743-8.753,2.099-13.36,2.429c-11.763,0.843-23.507,0.057-36.134-0.607
				c-1.257,3.325-2.12,8.289-1.214,12.45c0.286,1.314,1.945,2.625,3.037,4.858c0.606,1.242,0.657,3.23,1.214,3.949
				c0.145,0.186,1.048,0.172,1.519,0.606c0.609,0.563-0.34,0.894,0.911,0.911c1.838-0.187,3.454-0.594,4.858-1.215
				c-0.637-5.245,0.078-8.779,4.858-10.323c0.876,1.141,2.883,1.807,3.34,3.644c0.292,1.176-0.575,2.744-0.304,3.947
				c0.542,2.41,2.594,3.318,3.947,4.857c5.098-0.873,7.348-4.594,6.376-11.539c1.895-0.131,3.028-2.727,4.555-2.429
				c1.637,0.318,3.588,5.666,3.037,8.805c-0.195,1.113-1.114,1.432-0.911,2.43c3.992,4.52,13.984,1.186,12.146-6.68
				c1.189-0.937,2.52-1.731,3.948-2.429c3.453,0.697,4.162,4.138,3.644,8.806c3.119,1.836,8.829,0.691,11.843-0.911
				c0.918-4.244,2.592-7.731,5.465-10.021c1.275,0.545,2.675,0.97,3.644,1.822c-0.298,3.439-0.157,5.172,0.911,7.591
				c4.441-0.002,10.031-5.474,13.359-0.91c-1.326,3.088-5.235,3.291-9.717,4.25c-2.127,0.457-5.033,2.451-5.769,0.304
				c0.569,0.067,2.012,0.782,2.429,0c-7.199-3.349-11.011,4.518-20.041,2.429c-1.864-0.432-2.902-1.781-5.465-2.429
				c-2.708,0.831-4.959,4.444-8.502,4.858c-3.522,0.411-7.4-0.943-10.021-3.037c-5.525-0.281-6.447,4.326-12.449,2.732
				c-1.994-1.404-2.442-4.87-4.858-4.857c-2.533,0.013-4.784,5.461-8.502,5.162c-2.963-0.58-5.371-1.715-8.199-2.43
				c0.058,10.729,1.058,18.83,1.215,29.15c0.641-1.074,1.654-2.008,4.555-1.519c1.252-2.594,3.137-4.555,2.429-9.108
				c1.372-0.35,2.587-0.854,4.251-0.912c1.434,2.818,2.846,5.656,3.947,8.807c6.202,0.736,9.347-1.584,8.502-7.895
				c1.346-0.577,2.985-0.862,4.251-1.52c1.636,2.414,3.136,4.961,3.644,8.502c5.241,2.155,11.331-0.181,9.109-6.982
				c2.315-1.207,3.968-3.125,7.288-1.822c1.422,3.079,2.357,5.928,2.733,9.413l-1.214,0.911L94.184,206.905z M79.912,65.405
				c-2.144,5.014-2.073,10.301-3.34,17.612c-1.441,8.316-3.137,17.595-1.518,25.203c0.81,0,1.62,0,2.429,0
				c0.743-15.708,0.969-37.048,11.539-44.939c0.013-0.418-0.143-0.667-0.304-0.911C85.029,62.446,82.512,65.242,79.912,65.405z
				 M169.186,65.708c4.881,8.678,8.17,20.411,7.895,33.705c-0.055,2.606-1.352,6.605-0.303,8.806
				c5.277-8.122,4.548-27.188-0.607-35.831c-0.969-1.624-2.883-2.939-3.947-4.555c-0.774-1.177-0.559-2.763-2.125-3.036
				c-0.304,0-0.606,0-0.91,0C169.186,65.101,169.186,65.405,169.186,65.708z M66.855,72.692c-2.918,2.766-0.835,8.984-0.304,12.146
				c0.785,4.676,1.08,10.036,3.644,11.842c1.641-8.348,2.025-18.154,3.34-26.114C70.709,69.512,69.196,72.264,66.855,72.692z
				 M56.835,78.766c-2.784,2.234-6.223,3.954-6.377,8.502c-0.16,4.739,2.745,10.52,6.073,12.45
				c1.608-5.781-0.304-15.081,2.125-20.041C58.185,79.237,57.473,79.038,56.835,78.766z M60.782,102.753
				c-0.188,2.349-1.155,3.492,0,5.77c1.643,0.737,4.398,0.217,5.162-0.911c0.228-3.658-0.885-7.171-2.125-11.539
				c-1.068-3.759-1.384-6.748-2.43-7.896C59.864,92.003,61.173,97.858,60.782,102.753z M43.474,100.628
				c0.71-0.1,1.255-0.365,1.822-0.607c-0.814-3.103,0.767-8.03-0.607-9.413C40.228,91.923,40.746,97.684,43.474,100.628z
				 M48.94,98.806c-1.497,2.167,0.776,5.379,0,8.806c1.791-0.272,3.096,1.217,4.555,0.304
				C52.202,104.653,51.828,100.473,48.94,98.806z M36.49,100.932c-0.459,2.273-1.925,3.54-2.732,5.466
				c1.451,1.246,4.925,0.356,6.68,0C40.077,104.625,40.245,98.513,36.49,100.932z M168.881,121.276
				c1.826-0.501,6.698-10.866,7.352-12.542C173.965,110.744,168.686,119.844,168.881,121.276z M164.023,126.742
				c1.554-0.977,2.688-2.372,3.644-3.948C165.816,123.475,164.641,124.828,164.023,126.742z"/>
			<path fill="#040506" d="M116.957,268.545c-0.889,6.425,1.055,14.645,0.305,23.381c-0.566,6.573-1.555,18.635-0.912,25.811
				c0.379,4.222,3.984,16.563,0,19.13c-3.088,1.987-13.852,0.606-19.129,0.606c-19.386,0-39.326,0-58.301,0
				c3.171-13.147-0.139-33.834,0.911-49.494c0.191-2.854-0.559-5.791-0.304-8.198c0.141-1.327,0.979-2.706,1.214-3.948
				c0.458-2.417-0.07-4.311-0.304-6.68c4.454-0.264,8.271-1.732,12.753-1.822c5.344-0.107,10.474,2.007,15.486,1.822
				c3.72-0.137,7.335-2.194,10.931-2.125c1.687,0.031,3.05,1.359,4.858,1.518c2.496,0.221,6.278-0.977,9.413-1.214
				C102.089,266.705,110.386,265.662,116.957,268.545z M65.033,310.146c1.023-0.9,1.827-2.02,3.644-2.125
				c0.099,4.994,2.871,10.961,3.036,16.396c0.066,2.171-2.264,7.878,2.125,7.592c0.163-16.952,1.244-34.291,1.519-53.139
				c-1.329-0.734-1.936-3.843-4.251-4.556c-1.005-0.31-3.584,0.106-5.162,0c-6.79-0.455-14.275-4.506-18.219-0.91
				c-4.912,11.133-2.578,30.887-1.822,45.851c0.158,3.138-0.766,7.147-0.304,10.021c0.119,0.742-0.081,3.178,1.822,2.732
				c2.193-3.773,0.926-8.611,0.607-13.361c-0.794-11.838,2.672-24.991-1.215-33.4c4.55-5.415,13.926-4.126,22.773-5.162
				c5.491,1.943,4.842,14.409-3.644,10.932c-0.711-1.718-1.362-3.496-2.429-4.858c-2.63-0.445-6.042-0.558-7.895,0.606
				c0.616,2.185-1.062,3.594-1.518,5.771c-0.608,2.896,0.059,6.497-0.304,10.021c-0.867,8.428-1.662,18.5-0.607,26.113
				c0.144,1.038,0.289,2.788,1.518,3.341c2.5-0.47,1.519-4.073,1.519-6.073c0-9.758-0.624-17.859-0.911-26.722
				c5.16-1.122,15.714-4.563,17.612,1.519c-2.375,2.377-5.404,2.5-9.717,1.822c-0.665,0.752-1.049,1.784-2.429,1.822
				c0.586,8.977-0.746,19.709,1.519,27.632c1.619,0,3.239,0,4.858,0c0.394-5.463-0.656-10.382-1.822-13.36
				c0.251,0.72-0.428,1.397-0.304,0.304C65.976,316.215,65.509,312.991,65.033,310.146z M104.811,272.493
				c-5.907,2.088-19.559-0.937-24.595,3.036c2.446,2.96,0.777,6.042,0.304,9.109c-1.139,7.367-0.963,17.983-1.215,22.773
				c-0.387,7.371-2.177,15.74-0.911,24.596c2.834,0,5.668,0,8.502,0c-0.378-5.24-0.604-10.041-1.214-14.879
				c-0.396-3.134-2.179-7.209,0.303-10.021c1.761-0.666,2.795,1.802,3.644,3.037c-1.279,5.989,2.013,10.112,2.429,14.879
				c0.233,2.672-0.922,4.633-0.304,6.983c0.81,0,1.62,0,2.429,0c-0.293-11.838-0.622-22.079-1.822-31.276
				c-1.671,0.055-3.555,2.515-7.287,1.519c-0.104-1.692-1.367-3.588-0.911-4.858c3.14-2.729,9.686-2.055,13.057-4.554
				c1.465,4.827-0.389,9.702,0,14.878c0.601,8.018,2.893,16.096,1.822,24.292c1.214,0,2.429,0,3.644,0
				c-0.271-15.647,0.501-31.776-0.304-48.584c-2.907-0.915-5.969,0.652-8.806,0c-1.206,2.235-3.281,3.603-5.769,4.556
				c-1.403-2.42-2.039-6.028,0-8.198c6.534-0.173,13.396-3.968,19.129-1.216c2.561,3.084,0.986,6.381,0.607,10.021
				c-1.333,12.817,0.811,30.056-0.607,43.422c1.923,0,3.847,0,5.77,0c-2.238-16.212-1.373-34.12-0.911-52.228
				c1.438-1.741,0.932-5.912-0.304-7.592C109.461,272.785,106.679,272.496,104.811,272.493z"/>
		</g>
	</g>
</g>
</svg>
